<svg xmlns="http://www.w3.org/2000/svg" width="381.663" height="276.921" viewBox="149.946 112.556 381.663 276.921"><g opacity=".04" fill="#FCC24B"><path d="M490.575 210.444c-10.089-13.763-11.629-29.95-3.823-37.145l38.052 51.987c-9.214 5.237-24.155-1.102-34.229-14.842M526.666 224.005l-38.125-52.089c9.153-5.877 24.536.438 34.832 14.482 10.311 14.066 11.693 30.665 3.293 37.607M487.986 377.827c-9.525-6.731-14.036-16.889-10.536-23.246l35.942 25.438c-4.835 5.394-15.894 4.527-25.406-2.192M514.321 378.785l-36.013-25.488c4.657-5.794 15.998-5.039 25.718 1.829 9.735 6.879 14.233 17.337 10.295 23.659M224.608 223.328c-.726 6.713-4.594 11.854-8.795 11.871l2.756-25.34c4.089.929 6.762 6.766 6.039 13.469M217.683 209.736l-2.76 25.39c-4.243-.725-7.051-6.674-6.312-13.524.741-6.861 4.766-12.079 9.072-11.866M450.537 143.911c-9.526-6.73-14.036-16.888-10.537-23.245l35.943 25.439c-4.837 5.392-15.895 4.525-25.406-2.194M476.872 144.87l-36.013-25.488c4.657-5.794 15.997-5.04 25.718 1.829 9.735 6.878 14.233 17.337 10.295 23.659"/><path d="M478.124 122.226c-.443 4.097-2.804 7.233-5.367 7.246l1.682-15.466c2.494.567 4.127 4.13 3.685 8.22M473.898 113.931l-1.685 15.496c-2.588-.442-4.303-4.074-3.852-8.254.452-4.188 2.909-7.372 5.537-7.242M415.977 329.878c-20.259 12.675-30.653 32.935-24.226 46.342l76.45-47.912c-9.272-11.587-31.996-11.084-52.224 1.57M469.959 330.941l-76.6 48.005c8.862 12.389 32.148 12.146 52.822-.788 20.707-12.953 31.109-33.831 23.778-47.217M431.492 198.822c-21.352-10.734-44.063-9.099-52.184 3.355l80.64 40.464c5.089-13.94-7.139-33.099-28.456-43.819M458.61 245.512l-80.797-40.544c-5.988 14.006 6.309 33.781 28.097 44.736 21.821 10.971 45.067 9.023 52.7-4.192M418.488 276.092c-9.222-7.143-20.253-8.486-25.311-3.283l34.833 26.938c3.745-6.201-.316-16.525-9.522-23.655M427.103 300.995l-34.902-26.99c-4.18 6.147-.143 16.772 9.266 24.06 9.424 7.3 20.741 8.545 25.636 2.93M328.289 219.235c-10.09 13.763-11.63 29.95-3.823 37.145l38.051-51.988c-9.214-5.236-24.155 1.102-34.228 14.843M364.379 205.672l-38.125 52.09c9.152 5.877 24.536-.438 34.831-14.482 10.312-14.065 11.695-30.664 3.294-37.608M401.957 154.684c-9.525 6.731-14.036 16.888-10.537 23.245l35.942-25.438c-4.835-5.393-15.894-4.527-25.405 2.193M428.292 153.725l-36.014 25.489c4.657 5.794 15.999 5.04 25.718-1.829 9.735-6.879 14.233-17.338 10.296-23.66M395.081 310.339c-.725-6.712-4.593-11.854-8.794-11.871l2.755 25.34c4.088-.929 6.762-6.767 6.039-13.469M388.156 323.929l-2.76-25.388c-4.242.725-7.051 6.674-6.312 13.524.741 6.861 4.766 12.078 9.072 11.864"/><path d="M429.544 176.368c-.443-4.097-2.804-7.233-5.367-7.246l1.681 15.466c2.496-.566 4.128-4.129 3.686-8.22M425.318 184.664l-1.685-15.495c-2.588.441-4.303 4.073-3.852 8.253.452 4.188 2.908 7.372 5.537 7.242M302.762 328.191c-20.259-12.676-30.653-32.936-24.226-46.343l76.45 47.912c-9.272 11.588-31.995 11.085-52.224-1.569M356.745 327.127l-76.6-48.005c8.861-12.389 32.147-12.146 52.821.788 20.707 12.954 31.11 33.833 23.779 47.217M305.273 381.979c-9.221 7.142-20.253 8.486-25.31 3.282l34.833-26.938c3.745 6.201-.317 16.524-9.523 23.656M313.888 357.073l-34.901 26.991c-4.181-6.148-.144-16.773 9.266-24.061 9.423-7.298 20.74-8.543 25.635-2.93M281.866 347.731c-.725 6.712-4.593 11.852-8.794 11.871l2.755-25.341c4.089.929 6.762 6.767 6.039 13.47M274.942 334.139l-2.761 25.39c-4.242-.726-7.051-6.674-6.312-13.524.741-6.861 4.766-12.079 9.073-11.866M302.27 173.07c-20.259 12.676-30.653 32.936-24.225 46.343l76.45-47.912c-9.273-11.586-31.996-11.084-52.225 1.569M356.252 174.134l-76.6 48.006c8.862 12.389 32.147 12.146 52.821-.788 20.707-12.954 31.11-33.832 23.779-47.218M304.781 119.284c-9.221-7.142-20.253-8.486-25.31-3.283l34.833 26.937c3.744-6.199-.318-16.522-9.523-23.654M313.395 144.188l-34.902-26.99c-4.18 6.147-.143 16.772 9.267 24.061 9.425 7.299 20.74 8.544 25.635 2.929M281.374 153.532c-.725-6.712-4.594-11.853-8.794-11.872l2.755 25.34c4.088-.928 6.762-6.766 6.039-13.468M274.449 167.123l-2.761-25.388c-4.241.725-7.05 6.673-6.311 13.524.741 6.859 4.766 12.077 9.072 11.864M189.056 171.385c-20.26-12.676-30.654-32.936-24.227-46.343l76.451 47.912c-9.273 11.587-31.996 11.084-52.224-1.569M243.038 170.321l-76.6-48.005c8.861-12.389 32.147-12.146 52.821.788 20.707 12.954 31.109 33.832 23.779 47.217M204.571 302.439c-21.352 10.735-44.063 9.099-52.185-3.355l80.639-40.464c5.09 13.942-7.137 33.101-28.454 43.819M231.688 255.751l-80.797 40.543c-5.989-14.005 6.308-33.78 28.096-44.736 21.823-10.971 45.068-9.021 52.701 4.193M191.565 225.171c-9.221 7.142-20.252 8.487-25.31 3.283l34.834-26.938c3.745 6.2-.317 16.524-9.524 23.655M200.18 200.267l-34.902 26.99c-4.18-6.148-.144-16.772 9.266-24.061 9.426-7.298 20.741-8.543 25.636-2.929M467.248 301.285c-10.089-13.763-11.63-29.95-3.822-37.144l38.051 51.986c-9.214 5.237-24.155-1.102-34.229-14.842M503.339 314.847l-38.126-52.09c9.153-5.877 24.536.438 34.832 14.483 10.312 14.065 11.694 30.665 3.294 37.607M175.036 346.579c-9.526-6.731-14.037-16.889-10.538-23.246l35.944 25.438c-4.838 5.393-15.897 4.527-25.406-2.192M201.37 347.537l-36.013-25.488c4.657-5.795 15.998-5.039 25.719 1.829 9.733 6.878 14.231 17.336 10.294 23.659M168.159 190.924c-.726 6.712-4.594 11.852-8.795 11.872l2.755-25.341c4.089.929 6.763 6.766 6.04 13.469M161.234 177.333l-2.76 25.389c-4.242-.726-7.051-6.674-6.312-13.524.741-6.861 4.766-12.079 9.072-11.865"/><path d="M202.623 324.893c-.442 4.097-2.804 7.234-5.368 7.245l1.682-15.465c2.494.567 4.128 4.13 3.686 8.22M198.396 316.599l-1.685 15.496c-2.588-.442-4.303-4.074-3.852-8.255.452-4.187 2.908-7.372 5.537-7.241"/></g></svg>