<svg xmlns="http://www.w3.org/2000/svg" xmlns:xlink="http://www.w3.org/1999/xlink" width="680" height="265" viewBox="-240.414 -93.406 680 265"><defs><path id="a" d="M-239.414-93.373h679.901v265.166h-679.901z"/></defs><clipPath id="b"><use xlink:href="#a" overflow="visible"/></clipPath><g opacity=".06" clip-path="url(#b)" fill="#FFF"><path d="M-68.15 138.878l-.552-.754.35 1.051zM-69.576 134.201c-.107.13-.265.08-.372.229l1.571 2.916c.894-1.308-1.799-2.286-1.199-3.145zM-69.426 133.337c.371-1.13-.365-1.596-.618-1.859.575.398-.175 2.11.618 1.859z"/><path d="M36.507-100.377c37.875-36.968 53.508-121.821 53.508-121.821s-85.217 13.565-123.06 50.503c-21.087 20.581-33.539 41.787-37.149 59.968-.005-1.245.06-2.491-.018-3.745l.164.039c-1.381-14.351.184-29.887-1.308-43.697.005-.921.015-1.83.026-2.909v-.675l-.666.109c-2.133.381-4.502.768-7.093 1.204l-.494.081v.509c-.021 9.533.057 19.715.212 29.843-3.75-18.052-16.134-39.026-36.994-59.397-37.879-36.97-123.05-50.535-123.05-50.535s15.624 84.822 53.527 121.778c37.85 36.989 79.078 44.132 98.311 24.492 4.121-4.235 6.807-9.41 8.244-15.223-.006 11.657-1.064 23.128-.632 34.884-.528 10.261.59 20.923.979 31.462v8.779c-.031 1.534.03 3.081-.074 4.603-.801 4.463-.378 9.612.074 14.706V-.253c-3.251-18.455-15.776-40.196-37.378-61.275-37.879-36.994-123.05-50.528-123.05-50.528s15.624 84.822 53.527 121.76c37.85 36.99 79.078 44.132 98.311 24.462 3.399-3.501 5.831-7.611 7.402-12.206.102 7.19.586 14.348 1.188 21.583v60.178l-.103.021-.5.096v.512c-.008 4.197 0 8.528.031 12.943-.221 2.272-.365 4.567-.271 6.85l.321-.226v.308c-.332 1.08-.207 2.219.036 3.332.021 1.528.047 3.062.071 4.596-.05.062-.061.13-.12.192l-.094-.327c-.1.171-.133.363-.15.528-4.156-17.67-16.374-37.987-36.599-57.714-37.879-36.948-123.05-50.529-123.05-50.529s15.624 84.845 53.527 121.814c37.85 36.938 79.078 44.104 98.311 24.413 4.114-4.224 6.807-9.368 8.237-15.188-.013 11.658-1.062 23.1-.632 34.822-.528 10.318.601 21.021.985 31.597v8.263c-.031 1.67.03 3.339-.081 5.002-.808 4.488-.372 9.663.081 14.781v15.131c-3.251-18.47-15.776-40.212-37.378-61.295-37.879-36.97-123.05-50.528-123.05-50.528s15.624 84.848 53.527 121.814c37.85 36.94 79.078 44.089 98.311 24.413 3.391-3.488 5.825-7.599 7.397-12.18.101 7.19.591 14.373 1.193 21.601V377.3c-.464 3.93-1.014 7.955-.847 11.992l.258-.185v.52c-.197.822-.15 1.68 0 2.526 0 1.732.006 3.456.011 5.223l-.064-.194c-.283.485-.168 1.011.071 1.545.032 5.538.096 11.148.182 16.788-3.752-18.045-16.134-39.024-36.996-59.404-37.872-36.921-123.043-50.479-123.043-50.479s15.624 84.792 53.527 121.748c37.85 36.977 79.078 44.133 98.311 24.462 4.121-4.243 6.807-9.403 8.244-15.229-.006 11.67-1.064 23.134-.632 34.894-.528 10.263.59 20.925.979 31.472v8.771c-.031 1.536.03 3.095-.074 4.616-.801 4.462-.378 9.613.074 14.711v15.157c-3.251-18.466-15.776-40.2-37.378-61.271-37.879-36.949-123.05-50.564-123.05-50.564s15.624 84.878 53.527 121.814c37.85 36.965 79.078 44.152 98.311 24.442 3.399-3.493 5.831-7.624 7.397-12.201.101 7.183.583 14.352 1.187 21.579v60.221c-.037.006-.061.013-.102.02l-.495.106v.501c-.008 4.168 0 8.497.031 12.865-.228 2.278-.372 4.587-.276 6.912l.326-.239v.274c-.345 1.101-.213 2.266.036 3.395.021 1.523.047 3.046.064 4.58-.049.061-.064.13-.125.187l-.096-.309a1.155 1.155 0 0 0-.144.516c-4.155-17.667-16.367-37.983-36.599-57.711-37.872-37.03-123.043-50.553-123.043-50.553s15.624 84.816 53.527 121.792c37.85 36.964 79.078 44.107 98.311 24.402 4.121-4.219 6.807-9.391 8.244-15.196-.006 11.664-1.064 23.128-.632 34.885-.528 10.262.59 20.921.979 31.469v8.776c-.031 1.535.03 3.095-.074 4.616-.801 4.462-.378 9.593.074 14.708v15.19c-3.251-18.47-15.776-40.211-37.378-61.302-37.879-36.97-123.05-50.528-123.05-50.528s15.624 84.854 53.527 121.812c37.85 36.938 79.078 44.097 98.311 24.442 3.399-3.493 5.831-7.618 7.402-12.198.102 7.169.586 14.321 1.188 21.547v68.691c-1.14 3.454-1.428 8.32-.835 11.809v.118l.018-.014c.043.232.103.446.146.674-.127.849-.02 1.728.155 2.585l.078 4.788c-.037.055-.053.116-.096.152l-.094-.312c-.345.584-.133 1.215.219 1.865l.071 4.173c-.021.014-.04.034-.064.044.019.02.043.04.071.057l.018 1.198c-3.694-18.096-16.102-39.173-37.058-59.626-37.885-36.987-123.057-50.543-123.057-50.543s15.624 84.819 53.527 121.819c37.85 36.937 79.078 44.099 98.311 24.401 4.127-4.232 6.818-9.413 8.244-15.239-.042 11.37-1.064 22.521-.639 33.969-.528 10.158.589 20.705.979 31.139v8.678c-.032 1.522.031 3.06-.074 4.567-.801 4.418-.377 9.527.074 14.56v15.652c-.025.177-.037.38-.068.571-3.388-18.354-15.903-39.896-37.311-60.773-37.872-36.998-123.043-50.527-123.043-50.527s15.624 84.826 53.527 121.765c37.85 36.964 79.078 44.132 98.311 24.469 3.419-3.521 5.861-7.681 7.433-12.305.15 6.482.611 12.965 1.157 19.503v67.954c-.464 3.873-1.007 7.839-.842 11.815l.415-.288c-.815 1.922.145 4.102.428 5.904v1.394c-.074.406-.221.793-.535 1.106l-.094-.307c-.471.786.094 1.707.629 2.528v7.44c.005.096-.013.158 0 .244v1.245l.419-.073c.24.394.536.7.907.773-1.017.155 1.737.548-.475 1.38.689.106 3.795-.525 3.36-1.374.058-.515.353-1.037.365-1.485l2.514-.43v-91.439c.171 3.426.333 6.89.454 10.407l-.304-.48.527 1.994c-.133.16-.276-.197-.331-.412-.976 2.694.611 7.925-.138 9.612.107.763.515 1.093.822.65.247 10.025.433 20.711 1.194 30.901-.132.489-.396.594-.726.442 1.57 8.708.947 17.842.684 26.747.414.345.439-.901.875-.028.515-2.867-1.025-5.248-.264-7.847l.396.333c.258-1.893-1.014-.38-.492-2.344.332-.77.51.193.535-.149-.164-4.031.203-8.232-.773-11.993.869-.935.03-4.322.862-5.801-.347-1.045-.265-2.088-.833-2.491.455-14.043-.383-28.414-.314-42.824-1.233-4.924-.508-10.56-.237-16.365 1.469 5.623 4.129 10.612 8.145 14.725 19.209 19.703 60.403 12.504 98.315-24.437 37.875-36.963 53.511-121.753 53.511-121.753s-85.218 13.532-123.063 50.526c-22.352 21.768-34.948 44.259-37.646 63.106l-.211-.792c1.465-18.72.433-37.858 1.044-56.911.359-18.492 1.164-35.099.036-52.677 1.511 5.363 4.131 10.165 8.008 14.138 19.209 19.676 60.404 12.479 98.315-24.462C74.369 944.348 90.005 859.53 90.005 859.53S4.787 873.102-33.059 910.042c-21.081 20.562-33.52 41.775-37.141 59.931 0-1.407.065-2.811-.02-4.23l.164.013c-1.382-14.195.183-29.554-1.308-43.247-.187-.249-.362-.399-.546-.627v-60.238c.168 3.473.335 6.947.454 10.527-.071-.205-.24-.284-.304-.479.203.617.581 1.311.528 1.994-.132.179-.276-.178-.332-.406-.976 2.724.608 7.991-.137 9.718.107.768.515 1.104.822.682.245 10.091.426 20.898 1.187 31.211-.132.499-.396.588-.726.437 1.57 8.797.947 18.022.683 27.043.415.344.439-.922.872-.035.516-2.903-1.021-5.316-.264-7.939l.4.351c.254-1.925-1.014-.392-.492-2.38.332-.781.51.189.535-.153-.164-4.064.2-8.298-.774-12.124.868-.938.031-4.356.86-5.879-.343-1.05-.265-2.106-.829-2.487.454-14.228-.384-28.725-.314-43.303-1.384-5.554-.358-12.021-.22-18.598 1.469 5.604 4.129 10.58 8.132 14.668 19.209 19.684 60.403 12.499 98.318-24.405 37.872-36.974 53.508-121.815 53.508-121.815s-85.218 13.535-123.064 50.5c-22.875 22.306-35.539 45.354-37.826 64.474l-.036-.156c1.464-18.935.432-38.273 1.043-57.486.372-19.108 1.2-36.218-.04-54.421 1.484 5.531 4.131 10.454 8.096 14.528 19.209 19.711 60.403 12.509 98.318-24.429 37.872-36.987 53.508-121.814 53.508-121.814S4.781 603.03-33.065 639.989c-21.094 20.563-33.538 41.772-37.147 59.935-.006-1.229.058-2.475-.018-3.702l.162.013c-1.381-14.351.185-29.867-1.306-43.696.005-.921.011-1.843.022-2.923v-.67l-.564.113V596.49c.17 3.461.335 6.941.455 10.515-.071-.202-.239-.277-.304-.486.201.644.579 1.321.527 2.021-.132.18-.276-.204-.332-.425-.976 2.743.609 8.01-.137 9.718.107.767.515 1.122.822.68.246 10.111.426 20.92 1.187 31.219-.133.497-.395.584-.726.448 1.571 8.797.947 18.026.683 27.031.414.351.439-.914.872-.029.517-2.896-1.021-5.302-.264-7.932l.396.341c.258-1.91-1.008-.388-.487-2.371.331-.78.509.197.533-.173-.162-4.058.2-8.275-.772-12.114.865-.941.03-4.367.858-5.861-.343-1.057-.264-2.107-.829-2.507.454-14.216-.384-28.731-.312-43.29-1.386-5.561-.36-12.026-.221-18.611 1.469 5.59 4.13 10.569 8.133 14.672 19.208 19.677 60.402 12.521 98.317-24.486C74.358 537.937 89.99 453.138 89.99 453.138S4.774 466.671-33.072 503.61c-22.872 22.324-35.539 45.354-37.824 64.467l-.038-.14c1.464-18.937.433-38.277 1.044-57.51.368-19.105 1.199-36.206-.04-54.401 1.485 5.525 4.13 10.431 8.096 14.499 19.208 19.703 60.402 12.521 98.317-24.441C74.358 409.146 89.99 324.292 89.99 324.292S4.774 337.84-33.072 374.777c-21.087 20.582-33.538 41.809-37.147 59.983-.005-1.223.059-2.478-.018-3.722l.164.014c-1.382-14.352.184-29.868-1.308-43.697.007-.915.012-1.842.025-2.93v-.65l-.564.094v-68.697c.168 3.46.333 6.935.453 10.507-.07-.201-.239-.271-.304-.479.202.628.58 1.314.529 2.015-.132.16-.278-.197-.332-.416-.976 2.741.607 8.007-.139 9.715.107.767.515 1.106.822.678.246 10.087.427 20.922 1.189 31.218-.133.494-.396.588-.731.445 1.571 8.784.951 18.03.688 27.035.414.343.437-.922.872-.033.515-2.896-1.022-5.304-.264-7.929l.395.337c.259-1.909-1.009-.393-.487-2.37.332-.78.508.19.533-.166-.166-4.055.2-8.298-.773-12.122.865-.938.031-4.359.859-5.881-.343-1.05-.263-2.104-.828-2.487.454-14.209-.385-28.725-.313-43.283-1.379-5.561-.365-11.993-.221-18.561 1.469 5.59 4.13 10.569 8.133 14.668 19.208 19.674 60.402 12.478 98.317-24.489 37.875-36.94 53.508-121.785 53.508-121.785S4.768 185.375-33.078 222.316c-22.861 22.298-35.526 45.341-37.818 64.453l-.042-.151c1.462-18.951.433-38.277 1.043-57.509.368-19.097 1.199-36.188-.042-54.396 1.486 5.531 4.131 10.441 8.097 14.513 19.208 19.677 60.402 12.489 98.317-24.455C74.353 127.825 89.985 42.978 89.985 42.978S4.768 56.571-33.078 93.506c-21.087 20.576-33.536 41.789-37.146 59.958-.006-1.238.054-2.487-.02-3.739l.164.02c-1.381-14.351.185-29.867-1.308-43.703.006-.914.013-1.836.024-2.916v-.65l-.565.094V49.995c.169 3.46.335 6.947.45 10.507-.067-.195-.235-.271-.3-.479.203.645.58 1.322.528 2.015-.132.179-.277-.197-.332-.399-.976 2.725.607 7.99-.139 9.715.105.763.517 1.106.823.657.244 10.111.426 20.919 1.187 31.219-.132.498-.396.604-.729.448 1.57 8.797.951 18.023.687 27.025.414.363.439-.912.872-.03.515-2.896-1.025-5.303-.265-7.925l.396.333c.257-1.908-1.01-.379-.489-2.37.332-.78.508.197.535-.146-.167-4.065.198-8.299-.774-12.136.866-.928.032-4.346.861-5.867-.345-1.051-.264-2.101-.829-2.501.45-14.215-.386-28.708-.314-43.283-1.377-5.552-.365-11.993-.222-18.561 1.471 5.59 4.127 10.572 8.133 14.66 19.208 19.704 60.402 12.527 98.317-24.438C74.382-8.581 90.012-93.373 90.012-93.373S4.797-79.85-33.045-42.844C-55.907-20.551-68.569 2.481-70.866 21.587l-.043-.166c1.465-18.931.433-38.271 1.044-57.482.371-19.104 1.2-36.215-.04-54.409 1.485 5.52 4.13 10.448 8.097 14.504 19.206 19.672 60.404 12.497 98.315-24.411zM-79.502 133.651c.046.086.078.165.127.271v.26c-.032-.174-.086-.354-.127-.531zm.013 546.538c.039.086.071.159.119.239v.257c-.03-.159-.08-.331-.119-.496zm7.593 354.134v-1.013c.051.394.069.785.144 1.192l-.144-.179zm0-7.363v-9.576c.855 3.266.346 6.255 0 9.576zm.232-12.076l-.232.751v-.751c.075 0 .132.033.232 0zm-.232-249.389v-1.066c.051.423.069.825.15 1.263l-.15-.197zm0-7.376v-9.775c.873 3.343.346 6.387 0 9.775zm.239-12.257l-.239.795v-.795c.083 0 .137.037.239 0zm-.239-245.536v-1.032c.051.392.069.791.144 1.204l-.144-.172zm0-7.446v-9.682c.855 3.302.346 6.337 0 9.682zm.232-12.197l-.232.77v-.77c.075 0 .132.032.232 0zM-71.896 219v-1.079c.051.423.069.838.15 1.264l-.15-.185zm0-7.38v-9.766c.873 3.33.346 6.378 0 9.766zm.239-12.251l-.239.792v-.792c.083 0 .137.034.239 0zm-.239-265.176c.075 0 .132.032.232 0l-.232.773v-.773zm0 19.643v-1.026c.051.411.069.791.144 1.216l-.144-.19zm0-7.439v-9.681c.855 3.291.346 6.328 0 9.681z"/><path d="M-68.15 404.073l-.552-.759.35 1.051zM-69.576 399.391c-.107.148-.265.1-.372.228l1.571 2.916c.894-1.308-1.799-2.279-1.199-3.144zM-69.426 398.538c.371-1.128-.365-1.598-.618-1.862.575.388-.175 2.114.618 1.862zM-71.531 326.736c-.049-.166-.043-.087-.013.055l.013-.055zM255.939 202.555v-.028c-.01-.063-.051-.12-.066-.156l.066.184zM276.649 201.014c-19.211 19.71-9.106 58.768 28.787 95.704 37.844 36.971 123.071 50.5 123.071 50.5s-15.666-84.821-53.523-121.763c-37.873-36.966-79.13-44.113-98.335-24.441zM276.649 72.179c-19.211 19.696-9.106 58.751 28.787 95.714 37.844 36.987 123.071 50.536 123.071 50.536s-15.666-84.805-53.523-121.784c-37.873-36.965-79.13-44.141-98.335-24.466zM255.939-62.665v-.03c-.01-.05-.051-.104-.066-.16l.066.19zM260.255-224.064c.233.079.423.14.621.251-.03-.146-.43-.185-.621-.251zM276.649-64.142c-19.211 19.69-9.106 58.748 28.787 95.685 37.844 36.942 123.071 50.53 123.071 50.53S412.842-2.776 374.984-39.689c-37.873-36.982-79.13-44.132-98.335-24.453zM276.649-192.956c-19.211 19.647-9.106 58.735 28.787 95.699C343.28-60.314 428.508-46.76 428.508-46.76s-15.666-84.846-53.523-121.785c-37.874-36.97-79.131-44.121-98.336-24.411zM611.728 138.878l-.554-.754.349 1.051zM610.302 134.201c-.123.13-.268.08-.387.229l1.571 2.916c.902-1.308-1.785-2.286-1.184-3.145zM610.45 133.337c.37-1.13-.369-1.596-.614-1.859.571.398-.178 2.11.614 1.859z"/><path d="M716.404-100.377c37.844-36.968 53.511-121.821 53.511-121.821s-85.207 13.565-123.054 50.503c-21.127 20.648-33.604 41.922-37.177 60.11 0-1.282.065-2.565-.021-3.848l.159.012c-1.375-14.351.185-29.861-1.302-43.69 0-.921.013-1.848.026-2.934v-.676l-.664.11c-2.129.38-4.494.769-7.069 1.202l-.505.081v.509c-.011 9.526.062 19.692.215 29.824-3.745-18.044-16.111-39.019-36.959-59.378-37.894-36.964-123.084-50.535-123.084-50.535s15.663 84.823 53.507 121.785c37.882 36.989 79.105 44.132 98.281 24.492 4.159-4.26 6.874-9.466 8.298-15.327 0 11.693-1.054 23.183-.632 34.967-.528 10.234.581 20.865.975 31.379v8.968c-.036 1.503.033 3.02-.073 4.504-.798 4.451-.386 9.583.073 14.663V-.248c-3.24-18.461-15.762-40.198-37.345-61.282-37.894-36.994-123.084-50.528-123.084-50.528s15.663 84.822 53.507 121.76c37.882 36.99 79.105 44.132 98.281 24.462 3.442-3.519 5.894-7.668 7.469-12.271.105 7.175.598 14.338 1.185 21.562v60.271c-.035.006-.06.014-.098.016l-.503.1v.512c-.013 4.197.014 8.537.036 12.944-.22 2.266-.366 4.554-.271 6.833l.32-.229v.309c-.33 1.08-.201 2.222.043 3.324l.065 4.616c-.045.057-.059.13-.122.187l-.096-.331c-.111.171-.134.367-.148.538-4.145-17.666-16.365-37.987-36.564-57.711C525.694 37.896 440.5 24.311 440.5 24.311s15.662 84.849 53.511 121.818c37.878 36.938 79.109 44.1 98.287 24.416 4.145-4.246 6.859-9.447 8.281-15.289 0 11.68-1.056 23.164-.631 34.914-.526 10.285.595 20.948.975 31.524v8.678c-.022 1.553.036 3.125-.071 4.666-.8 4.481-.38 9.643.071 14.758v15.176c-3.229-18.462-15.751-40.21-37.337-61.307C525.694 166.698 440.5 153.14 440.5 153.14s15.662 84.844 53.511 121.814c37.878 36.938 79.109 44.104 98.287 24.409 3.428-3.497 5.875-7.642 7.453-12.23.105 7.198.595 14.401 1.192 21.635v68.569c-.468 3.915-1.014 7.931-.855 11.955l.248-.177v.54c-.179.796-.136 1.622 0 2.451.01 1.74.01 3.483.022 5.264l-.06-.175c-.284.476-.175 1.003.06 1.531.036 5.544.113 11.161.198 16.809-3.757-18.039-16.115-39.022-36.971-59.392-37.891-36.914-123.085-50.476-123.085-50.476s15.662 84.784 53.511 121.748c37.878 36.983 79.109 44.134 98.287 24.462 4.145-4.252 6.859-9.445 8.281-15.302 0 11.687-1.056 23.179-.631 34.963-.526 10.273.595 20.955.975 31.513v8.678c-.022 1.556.036 3.125-.071 4.666-.8 4.48-.38 9.642.071 14.757v15.131c-3.229-18.467-15.751-40.201-37.337-61.284-37.892-36.938-123.086-50.552-123.086-50.552s15.662 84.877 53.511 121.813c37.878 36.965 79.109 44.154 98.287 24.456 3.428-3.523 5.875-7.666 7.446-12.264.112 7.205.602 14.424 1.199 21.686v60.154c-.043.003-.08.01-.118.017l-.489.105v.502c-.014 4.167 0 8.49.022 12.854-.22 2.274-.366 4.577-.271 6.898l.341-.234v.277c-.351 1.1-.213 2.252.036 3.381.017 1.522.043 3.052.065 4.587-.055.066-.065.13-.136.188l-.096-.314a1.04 1.04 0 0 0-.134.522c-4.146-17.657-16.367-37.967-36.565-57.691-37.892-37.007-123.09-50.529-123.09-50.529s15.665 84.818 53.516 121.793c37.877 36.962 79.104 44.116 98.285 24.405 4.158-4.239 6.859-9.435 8.292-15.272-.009 11.687-1.066 23.171-.645 34.949-.526 10.289.609 20.955.979 31.525v8.682c-.036 1.551.036 3.124-.073 4.663-.812 4.477-.382 9.632.073 14.75v15.173c-3.243-18.469-15.765-40.223-37.337-61.313-37.892-36.967-123.09-50.532-123.09-50.532s15.665 84.852 53.516 121.814c37.877 36.941 79.104 44.097 98.285 24.442 3.426-3.503 5.876-7.647 7.454-12.251.102 7.198.581 14.401 1.188 21.648v68.562c-.004.03-.004.073-.017.105-1.115 3.442-1.413 8.257-.835 11.729v.129l.022-.013c.043.235.106.45.143.676-.128.873-.017 1.755.165 2.626l.082 4.733c-.049.062-.062.134-.119.171l-.096-.311c-.351.588-.132 1.238.226 1.889l.069 4.154c-.026.014-.057.047-.086.057.029.026.06.049.086.075l.022 1.202c-3.668-18.096-16.081-39.187-37.03-59.643-37.889-36.975-123.083-50.526-123.083-50.526s15.662 84.814 53.511 121.815c37.878 36.943 79.109 44.103 98.283 24.416 4.162-4.271 6.88-9.478 8.3-15.332-.043 11.393-1.058 22.576-.642 34.048-.524 10.147.585 20.685.971 31.102v8.771c-.035 1.502.036 3.025-.071 4.523-.8 4.409-.38 9.49.071 14.517v15.724c-.022.187-.035.384-.06.562-3.377-18.354-15.88-39.899-37.29-60.782-37.889-37-123.086-50.525-123.086-50.525s15.665 84.827 53.511 121.764c37.878 36.965 79.107 44.147 98.283 24.473 3.455-3.536 5.912-7.72 7.483-12.378.151 6.48.607 12.963 1.158 19.488v68.046c-.458 3.853-.993 7.807-.835 11.785l.406-.297c-.81 1.911.135 4.079.416 5.895v1.443c-.085.393-.215.767-.525 1.079l-.1-.312c-.464.777.087 1.699.625 2.516v7.466c0 .089-.01.151 0 .231v1.265l.398-.066c.235.397.529.71.903.772-1.018.159 1.732.545-.466 1.381.687.104 3.793-.535 3.352-1.381.062-.516.355-1.037.376-1.486l2.51-.422v-91.476c.158 3.398.337 6.843.452 10.35l-.311-.477.524 1.992c-.128.158-.272-.191-.329-.413-.965 2.693.62 7.925-.13 9.612.106.762.516 1.093.824.65.242 10.025.415 20.711 1.178 30.895-.136.495-.394.602-.714.446 1.573 8.711.936 17.838.671 26.751.399.337.423-.909.888-.03.513-2.867-1.029-5.247-.273-7.847l.386.335c.258-1.893-1.007-.384-.484-2.346.33-.775.509.188.533-.149-.146-4.037.196-8.231-.771-11.992.883-.936.03-4.315.865-5.808-.35-1.037-.255-2.081-.835-2.491.451-14.043-.387-28.414-.314-42.821-1.245-4.953-.494-10.63-.234-16.467 1.464 5.652 4.128 10.685 8.183 14.815 19.182 19.704 60.399 12.505 98.313-24.436 37.844-36.96 53.511-121.752 53.511-121.752s-85.207 13.532-123.054 50.528c-22.381 21.808-34.975 44.341-37.649 63.21l-.235-.884c1.46-18.721.43-37.86 1.045-56.906.366-18.575 1.177-35.233.022-52.887 1.491 5.451 4.123 10.312 8.053 14.328 19.176 19.677 60.407 12.479 98.308-24.462 37.855-36.975 53.523-121.792 53.523-121.792s-85.22 13.571-123.056 50.513c-20.984 20.481-33.401 41.609-37.073 59.735 0-1.334-.022-2.672-.114-4.017l.165.021c-1.401-14.205.172-29.562-1.315-43.251-.184-.245-.366-.396-.551-.618v-60.183c.171 3.437.343 6.904.452 10.448-.072-.205-.245-.284-.307-.479.204.617.577 1.311.528 2.001-.136.172-.274-.185-.331-.413-.971 2.724.614 7.991-.136 9.718.116.768.516 1.104.824.668.242 10.099.429 20.912 1.185 31.225-.129.499-.4.584-.729.429 1.567 8.805.95 18.023.687 27.045.416.35.442-.922.871-.043.516-2.902-1.02-5.311-.258-7.928l.394.353c.258-1.933-1.014-.392-.491-2.38.329-.787.508.184.534-.16-.169-4.063.201-8.291-.775-12.117.868-.944.032-4.362.868-5.879-.351-1.056-.271-2.106-.836-2.487.453-14.228-.382-28.725-.313-43.303-1.393-5.594-.351-12.105-.222-18.723 1.467 5.63 4.132 10.668 8.169 14.793 19.176 19.684 60.407 12.499 98.308-24.405 37.859-36.974 53.523-121.815 53.523-121.815s-85.22 13.535-123.056 50.5c-22.893 22.342-35.562 45.432-37.835 64.565l-.073-.248c1.467-18.935.437-38.273 1.044-57.482.386-19.18 1.215-36.343-.051-54.621 1.471 5.617 4.125 10.607 8.14 14.705 19.176 19.717 60.407 12.519 98.308-24.423 37.859-36.987 53.523-121.814 53.523-121.814s-85.22 13.565-123.056 50.528c-21.128 20.619-33.605 41.884-37.178 60.093-.004-1.265.069-2.543-.016-3.83l.157.01c-1.388-14.345.172-29.861-1.302-43.69 0-.914.014-1.853.026-2.946v-.67l-.577.113V596.55c.171 3.443.343 6.918.452 10.447-.072-.201-.245-.273-.307-.485.204.648.577 1.32.528 2.021-.136.178-.274-.201-.331-.423-.971 2.744.614 8.007-.136 9.715.116.77.516 1.123.824.677.242 10.114.429 20.924 1.185 31.219-.129.495-.4.588-.729.452 1.567 8.784.95 18.023.687 27.028.416.343.442-.915.871-.034.516-2.896-1.02-5.303-.258-7.922l.394.331c.258-1.909-1.014-.386-.491-2.37.329-.781.508.197.534-.166-.169-4.056.201-8.279-.775-12.122.868-.931.032-4.359.868-5.86-.351-1.05-.271-2.107-.836-2.508.453-14.209-.382-28.725-.313-43.284-1.393-5.617-.351-12.114-.222-18.745 1.467 5.64 4.132 10.669 8.169 14.799 19.176 19.678 60.407 12.521 98.321-24.484 37.846-36.914 53.51-121.726 53.51-121.726s-85.22 13.549-123.056 50.486c-22.893 22.368-35.562 45.439-37.835 64.572l-.073-.245c1.467-18.937.437-38.276 1.044-57.506.386-19.172 1.215-36.318-.051-54.606 1.471 5.601 4.125 10.584 8.14 14.686 19.176 19.702 60.407 12.521 98.321-24.456 37.846-36.938 53.51-121.792 53.51-121.792s-85.22 13.558-123.056 50.5c-21.128 20.634-33.605 41.926-37.178 60.14 0-1.283.069-2.564-.016-3.862l.157.019c-1.388-14.344.172-29.866-1.302-43.703 0-.914.014-1.853.026-2.945v-.644l-.567.093v-68.611c.161 3.435.333 6.904.442 10.438-.072-.201-.245-.268-.307-.479.204.627.577 1.313.528 2.015-.136.158-.271-.195-.331-.417-.971 2.748.614 8.008-.136 9.716.116.77.516 1.106.824.676.242 10.093.429 20.92 1.185 31.219-.129.495-.4.582-.729.446 1.567 8.783.95 18.022.687 27.027.416.351.442-.922.871-.029.516-2.899-1.02-5.304-.258-7.926l.394.331c.258-1.909-1.014-.394-.491-2.368.329-.779.508.194.534-.168-.169-4.056.201-8.299-.775-12.115.868-.944.032-4.363.868-5.885-.351-1.05-.271-2.101-.836-2.487.453-14.209-.382-28.729-.313-43.287-1.38-5.597-.351-12.098-.222-18.706 1.467 5.64 4.132 10.666 8.169 14.797 19.176 19.674 60.407 12.479 98.321-24.492 37.846-36.937 53.51-121.785 53.51-121.785s-85.206 13.592-123.056 50.53c-22.881 22.338-35.55 45.432-37.835 64.559l-.073-.258c1.467-18.954.437-38.281 1.044-57.5.386-19.168 1.208-36.319-.051-54.598 1.475 5.599 4.133 10.58 8.14 14.683 19.176 19.677 60.407 12.484 98.321-24.455 37.846-36.944 53.51-121.793 53.51-121.793S684.722 56.512 646.872 93.45c-21.128 20.632-33.605 41.91-37.178 60.111 0-1.285.069-2.572-.016-3.866l.157.01c-1.388-14.351.172-29.861-1.302-43.696 0-.916.014-1.847.026-2.939v-.663l-.567.105V50.005c.161 3.437.333 6.918.442 10.44-.072-.193-.245-.267-.307-.478.204.644.577 1.313.528 2.015-.136.177-.271-.196-.331-.406-.971 2.733.614 7.997-.136 9.724.116.753.516 1.096.824.657.242 10.108.429 20.919 1.185 31.212-.129.494-.4.6-.729.445 1.567 8.804.95 18.029.687 27.028.416.366.442-.915.871-.03.516-2.892-1.02-5.304-.258-7.924l.394.335c.258-1.915-1.014-.386-.491-2.367.329-.779.508.188.534-.169-.169-4.054.201-8.277-.775-12.121.868-.925.032-4.34.868-5.861-.351-1.051-.271-2.107-.836-2.503.453-14.212-.382-28.702-.313-43.281-1.393-5.591-.351-12.093-.222-18.709 1.467 5.636 4.132 10.663 8.169 14.8 19.176 19.704 60.407 12.527 98.321-24.443 37.843-36.95 53.494-121.742 53.494-121.742s-85.203 13.511-123.05 50.529c-22.882 22.335-35.552 45.41-37.834 64.536l-.063-.257c1.456-18.932.423-38.272 1.044-57.485.376-19.187 1.205-36.336-.061-54.611 1.468 5.611 4.125 10.595 8.149 14.694 19.176 19.673 60.408 12.498 98.308-24.41zM600.385 133.594c.047.109.087.201.129.314 0 .102 0 .188.003.299-.03-.207-.088-.418-.132-.613zm.139 547.087c-.03-.161-.086-.35-.13-.521.051.096.081.171.13.258v.263zm7.459 353.67v-.948c.05.386.061.732.13 1.137l-.13-.189zm0-7.446v-9.484c.839 3.229.343 6.197 0 9.484zm.222-12l-.222.717v-.717c.074 0 .13.03.222 0zm-.222-249.361v-.944c.05.38.061.741.13 1.135l-.13-.191zm0-7.525v-9.589c.839 3.267.343 6.274 0 9.589zm.222-12.128l-.222.737v-.737c.074 0 .13.03.222 0zm-.222-245.522v-.921c.05.372.061.709.13 1.097l-.13-.176zm0-7.618v-9.461c.817 3.223.343 6.196 0 9.461zm.222-12.049l-.222.717v-.717c.074 0 .13.031.222 0zm-.222-261.666v-1.014c.05.387.066.778.13 1.179l-.13-.165zm0-7.489v-9.619c.839 3.279.343 6.293 0 9.619zm.232-12.158l-.231.76v-.76c.078 0 .135.03.231 0zm-.232-265.184c.079 0 .13.031.231 0l-.231.768v-.768zm0 19.642v-1c.05.399.066.778.13 1.19l-.13-.19zm0-7.469v-9.65c.845 3.283.343 6.309 0 9.65z"/><path d="M608.326 326.79l.015-.049c-.044-.166-.041-.079-.015.049zM611.728 404.073l-.554-.759.349 1.051zM610.302 399.391c-.123.148-.268.1-.387.228l1.571 2.916c.902-1.308-1.785-2.279-1.184-3.144zM610.45 398.538c.37-1.128-.369-1.598-.614-1.862.571.388-.178 2.114.614 1.862zM935.854 202.555v-.02c-.024-.065-.061-.121-.073-.165l.073.185zM956.564 201.014c-19.213 19.71-9.118 58.768 28.751 95.704 37.865 36.971 123.115 50.5 123.115 50.5s-15.688-84.821-53.544-121.763c-37.865-36.966-79.09-44.113-98.322-24.441zM956.564 72.179c-19.213 19.696-9.118 58.751 28.751 95.714 37.865 36.987 123.115 50.536 123.115 50.536s-15.688-84.805-53.544-121.784c-37.865-36.965-79.09-44.141-98.322-24.466zM935.84-62.669v-.039c-.011-.043-.047-.109-.06-.146l.06.185zM940.182-224.059c.231.081.43.142.617.253-.009-.153-.415-.185-.617-.253zM956.564-64.142c-19.213 19.69-9.118 58.748 28.751 95.685 37.865 36.942 123.115 50.53 123.115 50.53s-15.688-84.849-53.544-121.761c-37.865-36.983-79.09-44.133-98.322-24.454zM985.315-97.258c37.875 36.944 123.115 50.497 123.115 50.497s-15.688-84.846-53.53-121.785c-37.879-36.97-79.104-44.133-98.336-24.411-19.212 19.648-9.118 58.736 28.751 95.699zM-68.15 685.4l-.552-.749.35 1.049zM-69.576 680.727c-.107.133-.265.083-.372.212l1.571 2.932c.894-1.308-1.799-2.283-1.199-3.144zM-69.426 679.862c.371-1.129-.365-1.602-.618-1.865.575.407-.175 2.12.618 1.865zM-68.15 950.57l-.552-.752.35 1.049zM-69.576 945.894c-.107.147-.265.078-.372.227l1.571 2.916c.894-1.308-1.799-2.292-1.199-3.143zM-69.426 945.035c.371-1.129-.365-1.6-.618-1.859.575.39-.175 2.109.618 1.859zM255.952 749.015v-.013c-.022-.053-.067-.108-.087-.152l.087.165zM276.649 747.523c-19.211 19.703-9.106 58.731 28.787 95.668 37.844 37 123.071 50.553 123.071 50.553s-15.666-84.839-53.523-121.814c-37.873-36.939-79.13-44.078-98.335-24.407zM276.649 618.681c-19.211 19.733-9.106 58.758 28.787 95.715 37.844 36.939 123.071 50.535 123.071 50.535s-15.666-84.876-53.523-121.814c-37.873-36.958-79.13-44.118-98.335-24.436zM255.952 483.855v-.016c-.022-.056-.067-.121-.087-.165l.087.181zM276.649 482.333c-19.211 19.644-9.106 58.725 28.787 95.731 37.844 36.881 123.071 50.532 123.071 50.532s-15.666-84.852-53.523-121.872c-37.873-36.922-79.13-44.068-98.335-24.391zM276.649 353.479c-19.211 19.71-9.106 58.765 28.787 95.704 37.844 37.007 123.071 50.516 123.071 50.516s-15.666-84.761-53.523-121.748c-37.873-36.971-79.13-44.146-98.335-24.472zM611.728 685.4l-.554-.749.349 1.049zM610.302 680.727c-.123.133-.268.083-.387.212l1.571 2.932c.902-1.308-1.785-2.283-1.184-3.144zM610.45 679.862c.37-1.129-.369-1.594-.614-1.859.571.401-.178 2.114.614 1.859zM611.728 950.57l-.554-.752.349 1.049zM610.302 945.894c-.123.147-.268.078-.387.227l1.571 2.916c.902-1.308-1.785-2.292-1.184-3.143zM610.45 945.035c.37-1.129-.369-1.6-.614-1.859.571.39-.178 2.109.614 1.859zM935.84 749.002v-.011c-.023-.057-.06-.111-.072-.154l.072.165zM956.564 747.523c-19.213 19.703-9.118 58.731 28.751 95.668 37.865 37 123.115 50.553 123.115 50.553s-15.688-84.839-53.544-121.814c-37.865-36.939-79.09-44.078-98.322-24.407zM956.564 618.681c-19.213 19.733-9.118 58.758 28.751 95.715 37.865 36.939 123.115 50.535 123.115 50.535s-15.688-84.876-53.544-121.814c-37.865-36.958-79.09-44.118-98.322-24.436zM935.84 483.846v-.04c-.011-.059-.047-.115-.06-.146l.06.186zM956.564 482.333c-19.213 19.644-9.118 58.725 28.751 95.731 37.865 36.881 123.115 50.532 123.115 50.532s-15.688-84.852-53.544-121.872c-37.865-36.922-79.09-44.068-98.322-24.391zM956.564 353.479c-19.213 19.71-9.118 58.765 28.751 95.704 37.865 37.007 123.115 50.516 123.115 50.516s-15.688-84.761-53.544-121.748c-37.865-36.971-79.09-44.146-98.322-24.472zM-68.352 1217.78l.202-.289-.552-.755zM-69.576 1212.849l-.372.228 1.571 2.888c.894-1.293-1.799-2.257-1.199-3.116zM-69.426 1212.01c.371-1.12-.365-1.585-.618-1.843.575.394-.175 2.087.618 1.843zM255.952 1019.094v-.017c-.022-.068-.067-.122-.087-.164l.087.181z"/><path d="M266.979 1147.184l.343.046c-1.216-11.647.078-23.964-.162-36.013.136-5.003-.267-8.391-.293-13.42l.436-.122c-1.639-8.483 1.479-17.796-.323-26.623l.581.605c-.853-1.292.154-4.844-1.024-4.821v-.704l.257-.854c-.122-.352-.171-.687-.257-1.03v-9.448c.208-2.067.317-4.282 0-6.752v-.876l.244.317a37.409 37.409 0 0 1-.244-2.282v-2.186c.023-.407-.012-.879.065-1.208.057.221.159.134.266.595 1.459-6.141-.159-12.952-.106-19.391l.696.713c-.812-3.124-.069-8.84-.433-12.957l.327.25-.449-2.073.658-.057c.02-5.376-.559-10.404-.621-15.614l.578.27c-1.044-4.845.013-10.324-.424-15.451l.209.345c.154-9.478-.323-18.412-.756-27.56v-56.758l1.086.177-.004-1.259c-.032-5.307.146-10.742-.649-15.939l.354.062c-.502-4.831-.532-9.783-.466-14.771.329-.398.448-.814.013-1.3.135-6.628.423-13.332.307-19.955.129-5.003-.271-8.391-.307-13.418l.436-.134c-1.651-8.464 1.466-17.796-.336-26.603l.595.601c-.866-1.287.141-4.843-1.027-4.816v-.707l.26-.853c-.136-.362-.162-.689-.26-1.032v-9.446c.214-2.069.32-4.299 0-6.751v-.879l.246.319c-.122-.735-.177-1.515-.246-2.284v-2.188c.026-.401-.011-.885.069-1.206.065.222.157.135.264.579 1.459-6.12-.149-12.936-.106-19.392l.684.729c-.812-3.123-.057-8.85-.419-12.956l.327.25-.437-2.073.646-.073c.017-5.365-.55-10.385-.608-15.599l.578.271c-1.044-4.848.01-10.343-.437-15.447l.208.343c.166-9.476-.313-18.415-.756-27.562V628.93l1.086.165-.006-1.241c-.037-5.334.148-10.746-.638-15.957l.343.047c-.663-6.419-.578-13.043-.392-19.721.258-.363.355-.713.026-1.129.138-5.059.316-10.127.207-15.173.136-5.004-.271-8.392-.293-13.417l.436-.125c-1.642-8.483 1.479-17.792-.327-26.618l.585.607c-.856-1.292.15-4.845-1.027-4.821v-.704l.258-.854c-.122-.352-.173-.688-.258-1.031v-9.447c.214-2.067.32-4.283 0-6.75v-.878l.247.323c-.111-.735-.175-1.516-.247-2.282v-2.185c.026-.395-.013-.878.072-1.209.05.22.155.135.262.594 1.459-6.138-.163-12.95-.106-19.39l.694.713c-.811-3.107-.063-8.833-.431-12.95l.324.244-.446-2.074.658-.057c.016-5.371-.549-10.397-.621-15.608l.582.272c-1.038-4.846.019-10.328-.431-15.452l.212.364c.152-9.491-.327-18.434-.756-27.58v-68.017l1.066.171-.007-1.264c-.036-5.313.142-10.752-.653-15.963l.359.059c-.128-1.251-.128-2.538-.215-3.804.136-.254.136-.515-.051-.798-.543-10.264.314-20.933.113-31.409.129-5.004-.271-8.385-.301-13.411l.437-.136c-1.658-8.462 1.459-17.769-.343-26.595l.601.607c-.858-1.285.135-4.809-1.007-4.818v-.769l.237-.792c-.115-.324-.14-.651-.237-.958v-9.672c.2-1.958.28-4.065 0-6.403v-1.043l.228.294c-.105-.681-.156-1.403-.228-2.11v-2.694c.022-.294-.007-.651.049-.892.06.222.158.136.264.585 1.446-6.119-.142-12.936-.105-19.39l.677.729c-.799-3.124-.049-8.851-.419-12.95l.333.25-.442-2.081.651-.065c.037-5.337-.529-10.349-.592-15.573l.578.268c-1.042-4.841.014-10.316-.437-15.44l.209.344c.165-9.471-.314-18.416-.753-27.56v-51.94l1.08.154-.007-1.229c-.03-5.322.151-10.721-.645-15.915l.351.049c-.67-6.396-.578-13.013-.399-19.68.271-.35.367-.71.036-1.117.136-5.081.32-10.162.209-15.208.134-5.004-.271-8.385-.295-13.43l.429-.122c-1.645-8.467 1.473-17.795-.33-26.622l.588.621c-.858-1.298.148-4.845-1.017-4.832v-.726l.251-.829c-.115-.344-.166-.661-.251-1.01v-9.509c.207-2.032.308-4.205 0-6.617v-.944l.188.305a38.592 38.592 0 0 1-.237-2.221v-2.358c.023-.354-.012-.797.06-1.093.049.229.161.125.264.585 1.456-6.121-.151-12.935-.103-19.392l.688.732c-.835-3.137-.079-8.864-.442-12.971l.327.253-.455-2.087.644-.049c.062-5.339-.516-10.374-.578-15.584l.578.289c-1.044-4.849.013-10.344-.424-15.45l.209.345c.154-9.479-.323-18.421-.756-27.566v-87.982c.534-.743 1.351-1.333-.202-2.261l-.509.627c-.521-.804-.42-.417-.57-.976-2.487-.528-2.646-1.596-4.353-2.321.013.019.023.032-.014.068a2.833 2.833 0 0 1-.98.228l-3.302.129.495 2.227c.241 1.075-.079 2.266-.165 3.008l-.394.4c-.822.601 1.601 2.891.199 2.117.35 5.167.329 11.085.35 16.862.531.809-.043 4.413.974 3.16-1.182 1.443-1.466 5.739-1.436 7.335-.123-.06-.231-.128-.183-.381-1.522 3.101 1.41 3.666-.455 6.568 1.324.454-.416 5.267 1.128 6.911-.286.375-.551.474-.784.364-.014 2.498-.136 5.131-.258 7.677-1.399-2.584-3.081-4.996-5.182-7.144-19.235-19.708-60.436-12.558-98.343 24.411-37.845 36.961-53.524 121.814-53.524 121.814s85.225-13.597 123.09-50.529c17.518-17.088 29.016-34.606 34.5-50.461.155 1.873.4 3.622.843 4.874-1.522 1.253-1.229 3.082-1.708 4.917.714 2.83.506 8.538 1.144 12.854-.688.662.307 3.566-.725 3.792 1.976 12.081 1.289 27.02-.197 39.917.571 1.64 1.744 3.494 2.457 5.156-.1.147-.258.136-.258-.214.188 2.356-.818 4.566-.642 6.918-.157-.018-.157-.018-.329-.387.455 2.203-.816 4.566-.023 7.174l-.291.13.388 1.663c-.331-.043-.847-.104-.73-.994-.057 1.877 0 3.817.007 5.739a32.185 32.185 0 0 0-5.677-7.986c-19.245-19.673-60.431-12.558-98.34 24.442C114.703 15.92 99.01 100.768 99.01 100.768s85.237-13.588 123.086-50.502c18.402-17.944 30.188-36.383 35.3-52.857.222 7.083.386 14.199.307 21.289l-.327-.77.572 4.029c-.153-.021-.251-.216-.324-.39-.591 5.115.394 10.46.237 15.464-.164-.027-.491-.78-.68-.1.501 2.021.122 3.592-.051 4.91l-.54.026.497 2.223c.239 1.073-.092 2.253-.171 3.005l-.387.399c-.821.595 1.608 2.892.196 2.116.355 5.146.333 11.089.355 16.864.419.637.158 2.939.516 3.333-.007.269-.007.54-.007.809-.761 1.861-.994 5.008-.958 6.346-.115-.059-.231-.128-.188-.38-1.521 3.101 1.424 3.672-.455 6.567 1.328.456-.41 5.274 1.136 6.912-.287.376-.551.479-.785.37-.014 2.486-.129 5.088-.258 7.617-1.407-2.585-3.08-5.002-5.182-7.166-19.234-19.67-60.429-12.508-98.336 24.462-37.85 36.938-53.527 121.76-53.527 121.76s85.225-13.532 123.082-50.474c17.518-17.088 29.017-34.605 34.505-50.473.164 1.893.398 3.652.838 4.924-1.521 1.245-1.225 3.074-1.7 4.91.707 2.831.499 8.521 1.142 12.853-.68.65.314 3.543-.717 3.779 1.968 12.087 1.289 27.017-.197 39.93.564 1.646 1.744 3.501 2.457 5.146-.1.165-.258.145-.258-.198.195 2.357-.812 4.566-.627 6.925-.172-.021-.172-.021-.331-.393.442 2.216-.829 4.573-.036 7.188l-.271.135.394 1.674c-.333-.043-.836-.121-.737-.993-.036 1.886.03 3.801.03 5.696-1.466-2.916-3.345-5.611-5.677-7.991-19.238-19.647-60.435-12.479-98.34 24.458-37.839 36.971-53.526 121.816-53.526 121.816s85.229-13.626 123.088-50.532c18.402-17.947 30.188-36.383 35.3-52.864.222 7.108.393 14.235.313 21.352l-.398-.855.57 4.052c-.172-.024-.25-.215-.322-.406-.572 5.132.386 10.461.236 15.464-.164-.026-.488-.787-.681-.087.915 3.706-1.194 5.954.714 7.807-.083.155-.521.288-.67-.104.271 4.378.38 8.815.423 13.261l-1.044.047.499 2.215c.237 1.077-.073 2.255-.172 3.008l-.394.4c-.812.601 1.622 2.894.196 2.116.369 5.164.35 11.085.369 16.863.534.81-.062 4.419.971 3.161-1.18 1.442-1.462 5.737-1.434 7.333-.103-.059-.231-.128-.201-.38-1.509 3.102 1.437 3.672-.442 6.575 1.314.445-.41 5.267 1.136 6.905-.287.379-.551.478-.785.365-.014 2.486-.129 5.102-.258 7.651-1.407-2.593-3.088-5.009-5.188-7.176-19.249-19.647-60.423-12.512-98.344 24.445-37.839 36.941-53.526 121.829-53.526 121.829s85.224-13.588 123.085-50.565c17.521-17.075 29.019-34.593 34.508-50.453.145 1.909.394 3.658.838 4.927-1.502 1.255-1.208 3.077-1.697 4.91.7 2.829.489 8.523 1.137 12.854-.698.651.31 3.548-.721 3.788 1.972 12.099 1.281 27.045-.194 39.939.581 1.644 1.74 3.501 2.453 5.132-.099.164-.258.154-.258-.188.186 2.354-.809 4.566-.638 6.914-.161-.017-.161-.017-.333-.386.456 2.212-.814 4.567-.022 7.175l-.271.148.393 1.665c-.33-.043-.846-.118-.736-.995-.037 1.891.023 3.812.029 5.706a31.859 31.859 0 0 0-5.689-8.003c-19.235-19.678-60.436-12.48-98.337 24.462-37.849 37-53.527 121.777-53.527 121.777s85.225-13.552 123.09-50.515c18.413-17.954 30.198-36.387 35.307-52.86.221 7.118.392 14.258.32 21.378l-.341-.764.572 4.029c-.16-.021-.245-.208-.324-.387-.571 5.118.386 10.458.237 15.468-.158-.03-.489-.787-.674-.105.479 1.964.13 3.512-.043 4.808l-.557.022.494 2.217c.241 1.075-.079 2.265-.165 3.021l-.393.386c-.815.615 1.607 2.891.186 2.117.365 5.168.35 11.104.365 16.888.406.63.148 2.959.529 3.324-.007.271-.007.535-.014.812-.767 1.86-1.001 5.02-.958 6.353-.108-.062-.231-.135-.194-.393-1.508 3.091 1.423 3.662-.441 6.568 1.313.452-.423 5.277 1.121 6.922-.287.363-.551.485-.786.35-.009 2.514-.128 5.139-.258 7.69-1.403-2.575-3.087-5.002-5.184-7.161-19.238-19.705-60.435-12.559-98.34 24.405-37.839 36.986-53.534 121.799-53.534 121.799s85.231-13.543 123.086-50.481c17.527-17.121 29.02-34.638 34.508-50.492.158 1.889.406 3.653.848 4.923-1.521 1.232-1.222 3.062-1.7 4.898.694 2.824.489 8.532 1.13 12.858-.693.649.31 3.557-.72 3.795 1.97 12.085 1.29 27.029-.195 39.938.581 1.647 1.753 3.501 2.453 5.138-.1.165-.258.154-.258-.209.186 2.359-.809 4.587-.636 6.938-.16-.014-.16-.014-.321-.399.443 2.223-.822 4.577-.036 7.186l-.271.135.393 1.678c-.329-.049-.845-.118-.729-.991-.03 1.9.022 3.815.03 5.736-1.474-2.942-3.353-5.636-5.684-8.024-19.242-19.677-60.435-12.494-98.337 24.472-37.842 36.941-53.534 121.792-53.534 121.792s85.231-13.558 123.084-50.528c18.408-17.939 30.194-36.359 35.306-52.841.222 7.107.393 14.226.307 21.343l-.32-.758.564 4.039c-.152-.022-.244-.207-.323-.402-.572 5.134.386 10.465.237 15.473-.158-.032-.488-.778-.674-.085.922 3.705-1.198 5.941.708 7.806-.076.158-.522.291-.671-.102.042.65.029 1.316.066 1.968l-.694.032.455 2.167c.239 1.072-.071 2.252-.171 3.008l-.386.39c-.812.608 1.606 2.894.188 2.12.363 5.154.347 11.092.363 16.875.386.594.179 2.717.463 3.274-.013.334-.013.657-.013.99-.721 1.896-.935 4.914-.902 6.212-.112-.057-.229-.128-.204-.384-1.509 3.085 1.43 3.666-.437 6.575 1.313.436-.423 5.268 1.123 6.904-.288.377-.551.486-.782.35-.014 2.507-.136 5.13-.262 7.681-1.397-2.592-3.081-5.015-5.178-7.181-19.244-19.668-60.435-12.509-98.34 24.458-37.839 36.978-53.534 121.818-53.534 121.818s85.231-13.585 123.086-50.522c17.518-17.096 29.013-34.613 34.501-50.486.165 1.89.399 3.646.842 4.917-1.509 1.252-1.209 3.081-1.7 4.917.693 2.804.491 8.513 1.129 12.853-.693.649.313 3.543-.721 3.779 1.972 12.087 1.292 27.032-.193 39.943.584 1.638 1.743 3.497 2.456 5.132-.099.165-.261.151-.261-.198.191 2.357-.809 4.573-.637 6.925-.159-.013-.159-.013-.331-.387.452 2.216-.812 4.573-.026 7.183l-.271.131.394 1.678c-.331-.05-.846-.121-.736-.994-.03 1.896.026 3.824.033 5.733a31.945 31.945 0 0 0-5.69-8.025c-19.238-19.676-60.435-12.481-98.34 24.486-37.839 36.94-53.534 121.792-53.534 121.792s85.231-13.596 123.086-50.536c18.42-17.957 30.205-36.385 35.316-52.86.215 7.116.393 14.235.307 21.355l-.329-.76.578 4.031c-.163-.02-.258-.207-.335-.394-.57 5.127.384 10.46.242 15.468-.165-.028-.492-.778-.685-.092.922 3.715-1.188 5.948.715 7.809-.073.166-.522.288-.675-.099.658 10.312.611 20.883.295 31.274.279 1.36.465 2.754.605 4.18l.13 1.263 1.007.081c2.358.183 4.726.54 7.12.944l1.251.203v-1.253c-.101-5.394.086-10.82-.708-16.02zm-7.51-130.862c-.465-5.284-.938-10.509-.079-14.854.022-.228.049-.442.079-.67v15.524zm0-58.964c-.228-2.747-.465-5.475-.707-8.242.086-1.505.126-3.021.156-4.543.19-.858.398-1.71.551-2.572v15.357zm0-33.311c-.271-1.312-.551-2.619-.952-3.867-.128-6.482-.071-12.92.678-19.271-.394-2.501-.356-5.103-.136-7.761l.189.021c.079.002.142.022.221.028v30.85zm0-177.799c-.465-5.286-.938-10.511-.079-14.856.022-.228.049-.453.079-.681v15.537zm0-58.969c-.228-2.744-.465-5.468-.707-8.239.086-1.515.126-3.018.156-4.547.19-.864.398-1.724.551-2.564v15.35zm0-33.298c-.271-1.308-.551-2.616-.952-3.851-.128-6.489-.071-12.938.678-19.284a27.112 27.112 0 0 1-.284-2.886l.345.025c.072.004.135.023.214.03v25.966zm0-172.829c-.465-5.316-.952-10.563-.093-14.912.036-.262.057-.522.093-.783v15.695zm0-58.94c-.231-2.751-.472-5.531-.71-8.299.089-1.516.115-3.032.151-4.566.186-.858.406-1.717.559-2.585v15.45zm0-33.414c-.271-1.321-.559-2.629-.964-3.88-.129-6.47-.067-12.897.683-19.237-.62-3.838-.208-7.877.281-12.018v35.135zm0-188.956c-.465-5.304-.952-10.552-.093-14.916.036-.266.057-.525.093-.786v15.702zm0-58.924c-.231-2.751-.472-5.531-.71-8.301.089-1.523.115-3.038.151-4.57.186-.866.406-1.728.559-2.586v15.457zm0-33.429c-.271-1.317-.559-2.625-.964-3.877-.129-6.467-.067-12.885.683-19.218a25.921 25.921 0 0 1-.283-2.966l.351.023c.072.006.135.026.214.026v26.012zm0-172.903c-.465-5.292-.938-10.514-.079-14.848.022-.228.049-.454.079-.687v15.535zm0-58.963c-.228-2.73-.465-5.457-.707-8.225.086-1.516.126-3.032.156-4.542.19-.865.398-1.723.551-2.566v15.333zm0-33.298c-.271-1.314-.551-2.623-.952-3.867-.128-6.476-.071-12.921.678-19.268-.613-3.806-.211-7.814.274-11.932v35.067zm0-63.486v5.892c-.528-.822-1.018-1.572-.459-2.032l-.467-.257c-.132-1.927.526-.227.712-1.706-.058-.553-.846-.214-.578-1.369.34-.043.541-.221.664-.51l.085-.197.078.056c.229.166.585.24.952.307l-.987-.184z"/><path d="M276.649 1017.593c-19.211 19.702-9.106 58.764 28.787 95.704 37.844 36.938 123.071 50.516 123.071 50.516s-15.666-84.814-53.523-121.778c-37.873-36.977-79.13-44.146-98.335-24.442zM276.649 888.781c-19.211 19.663-9.106 58.729 28.787 95.691C343.28 1021.409 428.508 1035 428.508 1035s-15.666-84.817-53.523-121.817c-37.874-36.938-79.131-44.12-98.336-24.402zM611.523 1217.78l.205-.289-.554-.755zM610.302 1212.856l-.387.221 1.571 2.888c.902-1.293-1.785-2.257-1.184-3.109zM610.45 1212.01c.37-1.12-.369-1.578-.614-1.843.571.394-.178 2.087.614 1.843zM946.902 1147.203l.343.049c-1.216-11.632.086-23.964-.159-36.019.137-5.003-.271-8.391-.293-13.417l.433-.128c-1.638-8.484 1.479-17.797-.323-26.622l.583.607c-.847-1.288.152-4.83-1.013-4.817v-.737l.243-.821c-.12-.334-.157-.651-.243-.984v-9.572c.208-2.015.307-4.175 0-6.569v-.957l.23.301c-.107-.7-.158-1.436-.23-2.173v-2.457c.023-.35-.007-.76.06-1.06.05.221.155.134.261.595 1.46-6.14-.143-12.95-.105-19.39l.692.705c-.809-3.12-.049-8.832-.429-12.95l.331.245-.453-2.075.656-.056c.03-5.372-.534-10.392-.619-15.609l.601.271c-1.051-4.845.013-10.325-.442-15.451l.207.344c.162-9.427-.307-18.326-.745-27.417V894.12l1.09.179-.01-1.258c-.044-5.304.145-10.726-.651-15.9l.343.05c-.505-4.838-.534-9.791-.455-14.78.319-.406.449-.828.013-1.313.123-6.622.416-13.318.294-19.936.13-5.002-.27-8.391-.294-13.421l.424-.135c-1.639-8.464 1.465-17.774-.324-26.602l.581.607c-.846-1.288.155-4.83-1.01-4.817v-.737l.244-.821c-.122-.33-.148-.657-.244-.98v-9.589c.207-2.002.307-4.161 0-6.569v-.944l.229.301c-.107-.7-.157-1.442-.229-2.172v-2.46c.036-.348-.008-.77.072-1.058.05.223.142.136.257.578 1.45-6.122-.152-12.934-.115-19.394l.68.727c-.809-3.117-.049-8.854-.415-12.951l.344.245-.457-2.073.645-.077c.033-5.355-.531-10.371-.607-15.589l.591.271c-1.05-4.852.01-10.343-.442-15.451l.208.343c.157-9.427-.307-18.326-.749-27.438v-52.011l1.08.175-.01-1.251c-.034-5.326.157-10.729-.642-15.927l.347.044c-.663-6.417-.571-13.051-.394-19.73.269-.367.367-.723.044-1.146.129-5.053.304-10.104.188-15.13.136-5.021-.27-8.397-.294-13.437l.437-.128c-1.638-8.484 1.479-17.789-.327-26.623l.585.622c-.847-1.292.152-4.846-1.014-4.831v-.737l.246-.821c-.124-.333-.16-.649-.246-.984v-9.585c.207-2.015.307-4.175 0-6.569v-.957l.234.307c-.112-.687-.159-1.436-.234-2.173v-2.449c.026-.363-.008-.773.062-1.063.05.214.151.128.257.591 1.46-6.139-.142-12.951-.105-19.39l.692.716c-.807-3.11-.045-8.836-.429-12.957l.335.254-.457-2.083.658-.047c.03-5.379-.536-10.397-.621-15.608l.601.268c-1.047-4.842.014-10.323-.438-15.447l.207.359c.165-9.435-.307-18.34-.749-27.444v-68.168l1.067.171v-1.264c-.036-5.307.153-10.735-.645-15.92l.344.046c-.129-1.261-.129-2.564-.216-3.846.13-.245.13-.503-.049-.78-.538-10.257.32-20.912.125-31.383.13-5.003-.27-8.385-.296-13.421l.418-.121c-1.637-8.483 1.46-17.788-.326-26.623l.584.609c-.853-1.282.136-4.805-1.007-4.819v-.766l.24-.792c-.118-.323-.141-.65-.24-.957v-9.672c.201-1.958.284-4.065 0-6.404v-1.042l.228.294c-.105-.681-.154-1.4-.228-2.11v-2.695c.023-.277-.007-.65.062-.891.047.22.145.135.269.6 1.441-6.137-.159-12.95-.124-19.412l.678.729c-.798-3.117-.049-8.846-.412-12.95l.327.25-.442-2.081.649-.049c.037-5.359-.528-10.371-.601-15.586l.588.271c-1.051-4.841.013-10.315-.443-15.444l.212.34c.159-9.424-.307-18.329-.749-27.414V82.396l1.08.175-.014-1.249c-.03-5.29.154-10.704-.638-15.883l.344.043c-.664-6.409-.571-13.027-.387-19.717.271-.356.367-.723.037-1.143.128-5.062.307-10.121.19-15.146.136-5.004-.27-8.389-.296-13.421l.436-.136c-1.638-8.463 1.479-17.792-.324-26.618l.581.618c-.845-1.288.156-4.841-1.01-4.831v-.73l.244-.829c-.122-.33-.158-.651-.244-.968v-9.582c.208-2.02.307-4.174 0-6.562v-.971l.23.32c-.108-.707-.157-1.45-.23-2.192v-2.442c.022-.343 0-.774.06-1.057.049.228.154.124.258.584 1.462-6.12-.14-12.935-.104-19.391l.694.731c-.812-3.119-.051-8.852-.431-12.964l.331.252-.453-2.082.654-.048c.034-5.371-.532-10.417-.61-15.609l.594.269c-1.05-4.85.014-10.343-.442-15.449l.209.343c.164-9.434-.309-18.335-.75-27.437v-88.123c.541-.738 1.341-1.326-.196-2.254l-.501.625c-.528-.804-.433-.411-.59-.976-2.487-.522-2.64-1.589-4.359-2.313.013.019.026.03 0 .068a2.707 2.707 0 0 1-1.018.226l-3.278.117.472 2.234c.228 1.068-.092 2.234-.165 2.99l-.387.405c-.821.593 1.602 2.89.194 2.111.352 5.168.335 11.085.352 16.867.534.811-.043 4.413.977 3.156-1.186 1.447-1.466 5.745-1.43 7.334-.113-.055-.233-.129-.198-.374-1.516 3.092 1.427 3.664-.445 6.567 1.324.455-.414 5.266 1.129 6.912-.29.374-.556.472-.786.361-.013 2.487-.129 5.107-.251 7.655-1.406-2.566-3.057-4.966-5.145-7.102-19.245-19.71-60.521-12.559-98.355 24.411-37.856 36.967-53.494 121.82-53.494 121.82s85.179-13.595 123.021-50.527c17.518-17.083 29.01-34.594 34.508-50.436.155 1.858.398 3.596.835 4.842-1.522 1.251-1.229 3.081-1.707 4.917.7 2.829.497 8.538 1.129 12.852-.687.664.32 3.567-.711 3.794 1.962 12.086 1.289 27.013-.197 39.91.559 1.646 1.73 3.511 2.451 5.174-.105.147-.259.135-.259-.214.189 2.357-.812 4.566-.634 6.917-.164-.018-.164-.018-.33-.387.453 2.203-.822 4.567-.026 7.176l-.268.147.38 1.663c-.33-.043-.835-.104-.724-.994-.032 1.908.037 3.824.037 5.727a32.421 32.421 0 0 0-5.647-7.95c-19.245-19.672-60.521-12.558-98.356 24.442-37.849 36.939-53.48 121.786-53.48 121.786s85.172-13.592 123.013-50.505c18.394-17.94 30.179-36.366 35.307-52.831.219 7.089.386 14.186.304 21.282l-.33-.77.578 4.035c-.166-.019-.248-.205-.333-.39-.568 5.121.392 10.462.24 15.472-.155-.026-.485-.787-.671-.093.493 1.987.124 3.552-.049 4.873l-.524.017.479 2.229c.225 1.068-.082 2.229-.172 2.994l-.391.399c-.814.602 1.605 2.894.187 2.118.363 5.156.343 11.084.363 16.863.408.644.164 2.918.514 3.332-.006.28-.006.557-.013.835-.746 1.859-.98 4.995-.932 6.326-.122-.06-.233-.129-.207-.38-1.513 3.088 1.422 3.669-.442 6.568 1.317.449-.42 5.274 1.129 6.905-.294.379-.555.485-.786.369-.013 2.481-.136 5.075-.258 7.599-1.399-2.566-3.064-4.979-5.151-7.119-19.241-19.682-60.527-12.518-98.356 24.452-37.839 36.94-53.487 121.762-53.487 121.762s85.179-13.535 123.02-50.474c17.511-17.084 29.017-34.602 34.505-50.462.165 1.892.409 3.636.852 4.9-1.521 1.251-1.223 3.081-1.708 4.913.694 2.82.5 8.521 1.137 12.855-.693.656.313 3.546-.717 3.788 1.969 12.091 1.288 27.037-.198 39.932.585 1.641 1.736 3.493 2.451 5.138-.094.159-.258.143-.258-.201.194 2.358-.812 4.567-.634 6.917-.166-.012-.166-.012-.317-.386.437 2.217-.83 4.571-.034 7.187l-.28.135.394 1.671c-.333-.043-.849-.112-.736-.995-.034 1.884.023 3.793.036 5.664a32.13 32.13 0 0 0-5.653-7.961c-19.245-19.647-60.521-12.481-98.35 24.454-37.849 36.972-53.495 121.816-53.495 121.816s85.179-13.624 123.021-50.532c18.402-17.943 30.188-36.376 35.312-52.864.223 7.116.394 14.242.311 21.355l-.337-.761.585 4.032c-.165-.022-.258-.207-.336-.394-.565 5.119.385 10.46.242 15.462-.164-.023-.491-.778-.679-.096.914 3.712-1.186 5.954.703 7.806-.073.173-.516.293-.668-.085.271 4.352.374 8.771.424 13.197l-1.044.047.479 2.222c.234 1.07-.086 2.236-.165 2.995l-.386.4c-.822.601 1.594 2.892.181 2.12.357 5.16.348 11.088.357 16.867.542.809-.043 4.411.977 3.159-1.185 1.444-1.465 5.739-1.43 7.334-.111-.06-.233-.129-.197-.38-1.517 3.095 1.426 3.672-.442 6.568 1.328.452-.416 5.272 1.129 6.918-.294.373-.551.473-.786.363-.01 2.477-.132 5.082-.257 7.607-1.396-2.565-3.062-4.97-5.136-7.104-19.244-19.648-60.521-12.523-98.362 24.435-37.849 36.937-53.481 121.828-53.481 121.828s85.179-13.585 123.02-50.565c17.518-17.068 29-34.57 34.501-50.416.159 1.875.4 3.619.842 4.87-1.521 1.248-1.228 3.078-1.7 4.914.692 2.826.489 8.529 1.129 12.851-.687.657.317 3.562-.713 3.795 1.964 12.085 1.29 27.023-.201 39.918.558 1.649 1.736 3.521 2.449 5.166-.098.15-.261.141-.261-.209.198 2.361-.809 4.577-.624 6.928-.171-.023-.171-.023-.333-.393.442 2.209-.822 4.567-.022 7.176l-.271.142.38 1.671c-.331-.043-.834-.118-.724-.991-.037 1.887.026 3.789.026 5.66a31.534 31.534 0 0 0-5.645-7.948c-19.241-19.683-60.52-12.491-98.35 24.449-37.845 37-53.487 121.779-53.487 121.779s85.175-13.553 123.013-50.516c18.396-17.938 30.183-36.35 35.307-52.814.215 7.109.386 14.229.308 21.338l-.324-.77.572 4.039c-.17-.03-.248-.209-.327-.397-.578 5.126.386 10.458.234 15.475-.155-.039-.492-.786-.671-.092.479 1.951.129 3.489-.036 4.787l-.541.016.472 2.229c.222 1.066-.085 2.24-.175 3.002l-.39.394c-.822.607 1.599 2.89.185 2.116.356 5.162.344 11.105.356 16.881.416.644.159 2.965.529 3.339 0 .264 0 .534-.014.798-.76 1.853-.994 5.02-.951 6.36-.115-.069-.235-.13-.209-.39-1.505 3.101 1.43 3.673-.435 6.581 1.324.449-.419 5.267 1.129 6.911-.294.369-.551.473-.786.357-.012 2.485-.136 5.101-.258 7.641-1.399-2.559-3.057-4.954-5.131-7.097-19.249-19.706-60.521-12.558-98.356 24.413-37.853 36.978-53.488 121.791-53.488 121.791s85.172-13.545 123.021-50.486c17.505-17.095 29.009-34.592 34.494-50.442.162 1.866.406 3.596.849 4.851-1.521 1.251-1.229 3.081-1.708 4.904.7 2.829.506 8.531 1.137 12.865-.7.649.307 3.553-.725 3.787 1.969 12.093 1.289 27.045-.189 39.939.577 1.641 1.749 3.493 2.456 5.138-.1.159-.258.143-.258-.208.194 2.358-.812 4.579-.641 6.931-.158-.026-.158-.026-.324-.393.453 2.216-.821 4.569-.026 7.179l-.267.143.386 1.671c-.339-.051-.854-.113-.735-.987-.026 1.875.022 3.79.035 5.676-1.462-2.909-3.328-5.587-5.636-7.962-19.248-19.684-60.521-12.497-98.357 24.473-37.851 36.94-53.484 121.792-53.484 121.792s85.172-13.565 123.018-50.536c18.389-17.928 30.175-36.323 35.306-52.787.221 7.089.394 14.185.308 21.282l-.331-.764.579 4.043c-.173-.026-.262-.206-.335-.4-.577 5.132.38 10.463.235 15.473-.162-.026-.493-.784-.677-.085.921 3.708-1.189 5.939.713 7.8-.087.168-.529.29-.676-.09.049.65.038 1.318.062 1.958l-.656.03.478 2.229c.215 1.067-.092 2.239-.184 3.001l-.388.388c-.822.607 1.603 2.89.186 2.116.356 5.162.343 11.1.356 16.881.393.595.185 2.703.466 3.27-.013.339-.013.67-.013 1.014-.724 1.878-.925 4.903-.908 6.205-.109-.066-.223-.134-.196-.394-1.508 3.101 1.425 3.672-.441 6.58 1.327.45-.412 5.268 1.136 6.912-.301.37-.559.473-.786.355-.013 2.487-.128 5.091-.258 7.619-1.406-2.559-3.058-4.967-5.144-7.104-19.235-19.67-60.521-12.521-98.351 24.45-37.845 36.977-53.488 121.813-53.488 121.813s85.172-13.578 123.015-50.515c17.517-17.089 29.009-34.587 34.506-50.431.155 1.859.4 3.59.837 4.845-1.516 1.251-1.223 3.081-1.701 4.904.7 2.829.492 8.531 1.137 12.864-.694.656.307 3.546-.724 3.787 1.971 12.093 1.288 27.039-.192 39.933.578 1.645 1.736 3.507 2.457 5.138-.1.166-.258.149-.258-.201.185 2.357-.822 4.58-.64 6.929-.166-.018-.166-.018-.323-.394.441 2.222-.824 4.579-.038 7.188l-.271.136.387 1.671c-.33-.05-.846-.112-.736-.99-.022 1.878.03 3.793.043 5.666-1.474-2.896-3.324-5.574-5.64-7.955-19.245-19.677-60.527-12.492-98.357 24.479-37.849 36.938-53.487 121.791-53.487 121.791s85.171-13.588 123.014-50.534c18.396-17.934 30.182-36.338 35.306-52.805.222 7.093.386 14.202.307 21.299l-.333-.763.578 4.039c-.166-.017-.258-.209-.33-.396-.571 5.13.386 10.463.238 15.473-.166-.026-.486-.786-.68-.092.913 3.711-1.186 5.954.713 7.806-.083.161-.52.291-.67-.095.649 10.315.601 20.886.293 31.277.27 1.356.463 2.75.601 4.181l.122 1.265 1.021.078c2.357.185 4.737.542 7.146.939l1.264.204-.013-1.252c-.276-5.54-.085-10.953-.884-16.147zm-7.525-130.826c-.466-5.311-.944-10.558-.086-14.929.036-.245.049-.489.086-.736v15.665zm0-58.963c-.235-2.751-.466-5.523-.713-8.305.085-1.479.128-2.979.147-4.468.198-.859.406-1.714.565-2.559v15.332h.001zm0-33.441c-.272-1.306-.559-2.614-.959-3.842-.128-6.477-.071-12.916.677-19.248-.393-2.487-.355-5.097-.135-7.734l.182.021c.087.002.155.022.235.028v30.775zm0-177.672c-.466-5.311-.944-10.558-.086-14.926.036-.248.049-.493.086-.735v15.661zm0-58.962c-.235-2.762-.466-5.521-.713-8.306.085-1.489.128-2.981.147-4.474.198-.859.406-1.725.565-2.566v15.346h.001zm0-33.428c-.272-1.308-.559-2.615-.959-3.854-.128-6.462-.071-12.907.677-19.243a25.733 25.733 0 0 1-.283-2.861l.336.026c.081.007.156.023.229.03v25.902zm0-172.743c-.466-5.327-.944-10.587-.1-14.965.043-.266.062-.529.1-.79v15.755zm0-58.942c-.235-2.771-.466-5.556-.713-8.335.085-1.499.128-3.01.147-4.488.198-.878.406-1.729.565-2.579v15.402h.001zm0-33.498c-.278-1.317-.565-2.625-.971-3.873-.129-6.455-.067-12.871.683-19.198-.621-3.85-.212-7.912.288-12.072v35.143zm0-188.89c-.466-5.311-.944-10.56-.086-14.929.036-.249.049-.492.086-.727v15.656zm0-58.952c-.235-2.749-.466-5.518-.713-8.285.085-1.507.128-3.016.154-4.518.191-.859.399-1.713.559-2.556v15.359zm0-33.464c-.272-1.314-.559-2.602-.959-3.851-.128-6.455-.071-12.871.677-19.211a26.169 26.169 0 0 1-.283-2.897l.356.024c.072.006.144.032.209.039v25.896zm0-172.781c-.466-5.322-.944-10.568-.086-14.928.036-.246.049-.49.086-.736v15.664zm0-58.961c-.235-2.763-.466-5.52-.713-8.305.085-1.493.128-2.972.147-4.456.198-.861.406-1.732.565-2.579v15.34h.001zm0-33.422c-.272-1.308-.559-2.615-.959-3.855-.128-6.462-.071-12.901.677-19.243-.613-3.824-.211-7.851.282-11.981v35.079zm0-63.419v5.868c-.529-.829-1.024-1.583-.466-2.062l-.467-.258c-.13-1.908.526-.209.711-1.694-.057-.553-.845-.214-.578-1.369a.766.766 0 0 0 .651-.479l.111-.214.099.061c.223.178.588.257.968.337l-1.029-.19z"/><path d="M935.84 1019.084v-.033c-.023-.053-.06-.107-.072-.15l.072.183zM956.564 1017.593c-19.213 19.702-9.118 58.764 28.751 95.704 37.865 36.938 123.115 50.516 123.115 50.516s-15.688-84.814-53.544-121.778c-37.865-36.977-79.09-44.146-98.322-24.442zM956.564 888.781c-19.213 19.663-9.118 58.729 28.751 95.691C1023.18 1021.41 1108.43 1035 1108.43 1035s-15.688-84.817-53.544-121.817c-37.865-36.938-79.09-44.12-98.322-24.402z"/></g></svg>