<svg xmlns="http://www.w3.org/2000/svg" width="195.188" height="267.039" viewBox="0 0 195.188 267.039"><path fill="#FDC24A" d="M.001-.278h195.187v267.317H.001z"/><path fill="#FDBB41" d="M0 52.448C.504 50.94 0 .002 0 .002l25.714 33.28L0 52.448z"/><path fill="#FDBB41" d="M0 51.945c.504 1.515 0 52.457 0 52.457l25.714-33.296L0 51.945z"/><path fill="#FDBB41" d="M0 156.332c.504-1.52 0-52.441 0-52.441l25.714 33.281L0 156.332z"/><path fill="#FDBB41" d="M0 154.812c.504 1.52 0 52.461 0 52.461l25.714-33.3L0 154.812z"/><path fill="#FDBB41" d="M0 204.477c.504 1.508 0 52.45 0 52.45l25.714-33.286L0 204.477zM33.896 7.824c.504 1.508 0 52.45 0 52.45l25.713-33.285L33.896 7.824z"/><path fill="#FDBB41" d="M33.896 112.213c.504-1.509 0-52.447 0-52.447l25.713 33.28-25.713 19.167z"/><path fill="#FDBB41" d="M33.896 111.71c.504 1.514 0 52.456 0 52.456l25.713-33.294-25.713-19.162z"/><path fill="#FDBB41" d="M33.896 216.097c.504-1.521 0-52.443 0-52.443l25.713 33.282-25.713 19.161z"/><path fill="#FDBB41" d="M33.896 214.578c.504 1.521 0 52.461 0 52.461l25.713-33.301-25.713-19.16zM67.79 52.448c.504-1.508 0-52.446 0-52.446l25.713 33.28L67.79 52.448z"/><path fill="#FDBB41" d="M67.79 51.945c.504 1.515 0 52.457 0 52.457l25.713-33.296L67.79 51.945z"/><path fill="#FDBB41" d="M67.79 156.332c.504-1.52 0-52.441 0-52.441l25.713 33.281-25.713 19.16z"/><path fill="#FDBB41" d="M67.79 154.812c.504 1.52 0 52.461 0 52.461l25.713-33.3-25.713-19.161z"/><path fill="#FDBB41" d="M67.79 204.477c.504 1.508 0 52.45 0 52.45l25.713-33.286-25.713-19.164zM101.682 7.824c.504 1.508 0 52.45 0 52.45l25.713-33.285-25.713-19.165z"/><path fill="#FDBB41" d="M101.682 112.213c.504-1.509 0-52.447 0-52.447l25.713 33.28-25.713 19.167z"/><path fill="#FDBB41" d="M101.682 111.71c.504 1.514 0 52.456 0 52.456l25.713-33.294-25.713-19.162z"/><path fill="#FDBB41" d="M101.682 216.097c.504-1.521 0-52.443 0-52.443l25.713 33.282-25.713 19.161z"/><path fill="#FDBB41" d="M101.682 214.578c.504 1.521 0 52.461 0 52.461l25.713-33.301-25.713-19.16zM135.576 52.446c.504-1.508 0-52.446 0-52.446l25.714 33.28-25.714 19.166z"/><path fill="#FDBB41" d="M135.576 51.944c.504 1.515 0 52.456 0 52.456l25.714-33.295-25.714-19.161z"/><path fill="#FDBB41" d="M135.576 156.33c.504-1.52 0-52.441 0-52.441l25.714 33.281-25.714 19.16z"/><path fill="#FDBB41" d="M135.576 154.811c.504 1.521 0 52.461 0 52.461l25.714-33.3-25.714-19.161z"/><path fill="#FDBB41" d="M135.576 204.475c.504 1.508 0 52.45 0 52.45l25.714-33.286-25.714-19.164zM169.474 7.822c.504 1.509 0 52.451 0 52.451l25.713-33.286-25.713-19.165z"/><path fill="#FDBB41" d="M169.474 112.21c.504-1.509 0-52.446 0-52.446l25.713 33.279-25.713 19.167z"/><path fill="#FDBB41" d="M169.474 111.708c.504 1.514 0 52.456 0 52.456l25.713-33.294-25.713-19.162z"/><path fill="#FDBB41" d="M169.474 216.095c.504-1.521 0-52.443 0-52.443l25.713 33.282-25.713 19.161z"/><path fill="#FDBB41" d="M169.474 214.576c.504 1.521 0 52.461 0 52.461l25.713-33.301-25.713-19.16z"/></svg>