<?xml version="1.0" encoding="utf-8"?>
<!-- Generator: Adobe Illustrator 15.0.0, SVG Export Plug-In . SVG Version: 6.00 Build 0)  -->
<!DOCTYPE svg PUBLIC "-//W3C//DTD SVG 1.1//EN" "http://www.w3.org/Graphics/SVG/1.1/DTD/svg11.dtd">
<svg version="1.1" id="Layer_1" xmlns="http://www.w3.org/2000/svg" xmlns:xlink="http://www.w3.org/1999/xlink" x="0px" y="0px"
	 width="381.663px" height="276.921px" viewBox="149.946 112.556 381.663 276.921"
	 enable-background="new 149.946 112.556 381.663 276.921" xml:space="preserve">
<g opacity="0.04">
	<path fill="#FCC24B" d="M490.575,210.444c-10.089-13.763-11.629-29.95-3.823-37.145l38.052,51.987
		C515.59,230.523,500.649,224.184,490.575,210.444"/>
	<path fill="#FCC24B" d="M526.666,224.005l-38.125-52.089c9.153-5.877,24.536,0.438,34.832,14.482
		C533.684,200.464,535.066,217.063,526.666,224.005"/>
	<path fill="#FCC24B" d="M487.986,377.827c-9.525-6.731-14.036-16.889-10.536-23.246l35.942,25.438
		C508.557,385.413,497.498,384.546,487.986,377.827"/>
	<path fill="#FCC24B" d="M514.321,378.785l-36.013-25.488c4.657-5.794,15.998-5.039,25.718,1.829
		C513.761,362.005,518.259,372.463,514.321,378.785"/>
	<path fill="#FCC24B" d="M224.608,223.328c-0.726,6.713-4.594,11.854-8.795,11.871l2.756-25.34
		C222.658,210.788,225.331,216.625,224.608,223.328"/>
	<path fill="#FCC24B" d="M217.683,209.736l-2.76,25.39c-4.243-0.725-7.051-6.674-6.312-13.524
		C209.352,214.741,213.377,209.523,217.683,209.736"/>
	<path fill="#FCC24B" d="M450.537,143.911c-9.526-6.73-14.036-16.888-10.537-23.245l35.943,25.439
		C471.106,151.497,460.048,150.63,450.537,143.911"/>
	<path fill="#FCC24B" d="M476.872,144.87l-36.013-25.488c4.657-5.794,15.997-5.04,25.718,1.829
		C476.312,128.089,480.81,138.548,476.872,144.87"/>
	<path fill="#FCC24B" d="M478.124,122.226c-0.443,4.097-2.804,7.233-5.367,7.246l1.682-15.466
		C476.933,114.573,478.566,118.136,478.124,122.226"/>
	<path fill="#FCC24B" d="M473.898,113.931l-1.685,15.496c-2.588-0.442-4.303-4.074-3.852-8.254
		C468.813,116.985,471.27,113.801,473.898,113.931"/>
	<path fill="#FCC24B" d="M415.977,329.878c-20.259,12.675-30.653,32.935-24.226,46.342l76.45-47.912
		C458.929,316.721,436.205,317.224,415.977,329.878"/>
	<path fill="#FCC24B" d="M469.959,330.941l-76.6,48.005c8.862,12.389,32.148,12.146,52.822-0.788
		C466.888,365.205,477.29,344.327,469.959,330.941"/>
	<path fill="#FCC24B" d="M431.492,198.822c-21.352-10.734-44.063-9.099-52.184,3.355l80.64,40.464
		C465.037,228.701,452.809,209.542,431.492,198.822"/>
	<path fill="#FCC24B" d="M458.61,245.512l-80.797-40.544c-5.988,14.006,6.309,33.781,28.097,44.736
		C427.731,260.675,450.977,258.727,458.61,245.512"/>
	<path fill="#FCC24B" d="M418.488,276.092c-9.222-7.143-20.253-8.486-25.311-3.283l34.833,26.938
		C431.755,293.546,427.694,283.222,418.488,276.092"/>
	<path fill="#FCC24B" d="M427.103,300.995l-34.902-26.99c-4.18,6.147-0.143,16.772,9.266,24.06
		C410.891,305.365,422.208,306.61,427.103,300.995"/>
	<path fill="#FCC24B" d="M328.289,219.235c-10.09,13.763-11.63,29.95-3.823,37.145l38.051-51.988
		C353.303,199.156,338.362,205.494,328.289,219.235"/>
	<path fill="#FCC24B" d="M364.379,205.672l-38.125,52.09c9.152,5.877,24.536-0.438,34.831-14.482
		C371.397,229.215,372.78,212.616,364.379,205.672"/>
	<path fill="#FCC24B" d="M401.957,154.684c-9.525,6.731-14.036,16.888-10.537,23.245l35.942-25.438
		C422.527,147.098,411.468,147.964,401.957,154.684"/>
	<path fill="#FCC24B" d="M428.292,153.725l-36.014,25.489c4.657,5.794,15.999,5.04,25.718-1.829
		C427.731,170.506,432.229,160.047,428.292,153.725"/>
	<path fill="#FCC24B" d="M395.081,310.339c-0.725-6.712-4.593-11.854-8.794-11.871l2.755,25.34
		C393.13,322.879,395.804,317.041,395.081,310.339"/>
	<path fill="#FCC24B" d="M388.156,323.929l-2.76-25.388c-4.242,0.725-7.051,6.674-6.312,13.524
		C379.825,318.926,383.85,324.143,388.156,323.929"/>
	<path fill="#FCC24B" d="M429.544,176.368c-0.443-4.097-2.804-7.233-5.367-7.246l1.681,15.466
		C428.354,184.022,429.986,180.459,429.544,176.368"/>
	<path fill="#FCC24B" d="M425.318,184.664l-1.685-15.495c-2.588,0.441-4.303,4.073-3.852,8.253
		C420.233,181.61,422.689,184.794,425.318,184.664"/>
	<path fill="#FCC24B" d="M302.762,328.191c-20.259-12.676-30.653-32.936-24.226-46.343l76.45,47.912
		C345.714,341.348,322.991,340.845,302.762,328.191"/>
	<path fill="#FCC24B" d="M356.745,327.127l-76.6-48.005c8.861-12.389,32.147-12.146,52.821,0.788
		C353.673,292.864,364.076,313.743,356.745,327.127"/>
	<path fill="#FCC24B" d="M305.273,381.979c-9.221,7.142-20.253,8.486-25.31,3.282l34.833-26.938
		C318.541,364.524,314.479,374.847,305.273,381.979"/>
	<path fill="#FCC24B" d="M313.888,357.073l-34.901,26.991c-4.181-6.148-0.144-16.773,9.266-24.061
		C297.676,352.705,308.993,351.46,313.888,357.073"/>
	<path fill="#FCC24B" d="M281.866,347.731c-0.725,6.712-4.593,11.852-8.794,11.871l2.755-25.341
		C279.916,335.19,282.589,341.028,281.866,347.731"/>
	<path fill="#FCC24B" d="M274.942,334.139l-2.761,25.39c-4.242-0.726-7.051-6.674-6.312-13.524
		C266.61,339.144,270.635,333.926,274.942,334.139"/>
	<path fill="#FCC24B" d="M302.27,173.07c-20.259,12.676-30.653,32.936-24.225,46.343l76.45-47.912
		C345.222,159.915,322.499,160.417,302.27,173.07"/>
	<path fill="#FCC24B" d="M356.252,174.134l-76.6,48.006c8.862,12.389,32.147,12.146,52.821-0.788
		C353.18,208.398,363.583,187.52,356.252,174.134"/>
	<path fill="#FCC24B" d="M304.781,119.284c-9.221-7.142-20.253-8.486-25.31-3.283l34.833,26.937
		C318.048,136.739,313.986,126.416,304.781,119.284"/>
	<path fill="#FCC24B" d="M313.395,144.188l-34.902-26.99c-4.18,6.147-0.143,16.772,9.267,24.061
		C297.185,148.558,308.5,149.803,313.395,144.188"/>
	<path fill="#FCC24B" d="M281.374,153.532c-0.725-6.712-4.594-11.853-8.794-11.872l2.755,25.34
		C279.423,166.072,282.097,160.234,281.374,153.532"/>
	<path fill="#FCC24B" d="M274.449,167.123l-2.761-25.388c-4.241,0.725-7.05,6.673-6.311,13.524
		C266.118,162.118,270.143,167.336,274.449,167.123"/>
	<path fill="#FCC24B" d="M189.056,171.385c-20.26-12.676-30.654-32.936-24.227-46.343l76.451,47.912
		C232.007,184.541,209.284,184.038,189.056,171.385"/>
	<path fill="#FCC24B" d="M243.038,170.321l-76.6-48.005c8.861-12.389,32.147-12.146,52.821,0.788
		C239.966,136.058,250.368,156.936,243.038,170.321"/>
	<path fill="#FCC24B" d="M204.571,302.439c-21.352,10.735-44.063,9.099-52.185-3.355l80.639-40.464
		C238.115,272.562,225.888,291.721,204.571,302.439"/>
	<path fill="#FCC24B" d="M231.688,255.751l-80.797,40.543c-5.989-14.005,6.308-33.78,28.096-44.736
		C200.81,240.587,224.055,242.537,231.688,255.751"/>
	<path fill="#FCC24B" d="M191.565,225.171c-9.221,7.142-20.252,8.487-25.31,3.283l34.834-26.938
		C204.834,207.716,200.772,218.04,191.565,225.171"/>
	<path fill="#FCC24B" d="M200.18,200.267l-34.902,26.99c-4.18-6.148-0.144-16.772,9.266-24.061
		C183.97,195.898,195.285,194.653,200.18,200.267"/>
	<path fill="#FCC24B" d="M467.248,301.285c-10.089-13.763-11.63-29.95-3.822-37.144l38.051,51.986
		C492.263,321.364,477.322,315.025,467.248,301.285"/>
	<path fill="#FCC24B" d="M503.339,314.847l-38.126-52.09c9.153-5.877,24.536,0.438,34.832,14.483
		C510.357,291.305,511.739,307.905,503.339,314.847"/>
	<path fill="#FCC24B" d="M175.036,346.579c-9.526-6.731-14.037-16.889-10.538-23.246l35.944,25.438
		C195.604,354.164,184.545,353.298,175.036,346.579"/>
	<path fill="#FCC24B" d="M201.37,347.537l-36.013-25.488c4.657-5.795,15.998-5.039,25.719,1.829
		C200.809,330.756,205.307,341.214,201.37,347.537"/>
	<path fill="#FCC24B" d="M168.159,190.924c-0.726,6.712-4.594,11.852-8.795,11.872l2.755-25.341
		C166.208,178.384,168.882,184.221,168.159,190.924"/>
	<path fill="#FCC24B" d="M161.234,177.333l-2.76,25.389c-4.242-0.726-7.051-6.674-6.312-13.524
		C152.903,182.337,156.928,177.119,161.234,177.333"/>
	<path fill="#FCC24B" d="M202.623,324.893c-0.442,4.097-2.804,7.234-5.368,7.245l1.682-15.465
		C201.431,317.24,203.065,320.803,202.623,324.893"/>
	<path fill="#FCC24B" d="M198.396,316.599l-1.685,15.496c-2.588-0.442-4.303-4.074-3.852-8.255
		C193.311,319.653,195.767,316.468,198.396,316.599"/>
</g>
</svg>
