<?xml version="1.0" encoding="utf-8"?>
<!-- Generator: Adobe Illustrator 15.0.0, SVG Export Plug-In . SVG Version: 6.00 Build 0)  -->
<!DOCTYPE svg PUBLIC "-//W3C//DTD SVG 1.1//EN" "http://www.w3.org/Graphics/SVG/1.1/DTD/svg11.dtd">
<svg version="1.1" id="Layer_1" xmlns="http://www.w3.org/2000/svg" xmlns:xlink="http://www.w3.org/1999/xlink" x="0px" y="0px"
	 width="195.188px" height="267.039px" viewBox="0 0 195.188 267.039" enable-background="new 0 0 195.188 267.039"
	 xml:space="preserve">
<rect x="0.001" y="-0.278" fill="#FDC24A" width="195.187" height="267.317"/>
<path fill="#FDBB41" d="M0,52.448C0.504,50.94,0,0.002,0,0.002l25.714,33.28L0,52.448z"/>
<path fill="#FDBB41" d="M0,51.945c0.504,1.515,0,52.457,0,52.457l25.714-33.296L0,51.945z"/>
<path fill="#FDBB41" d="M0,156.332c0.504-1.52,0-52.441,0-52.441l25.714,33.281L0,156.332z"/>
<path fill="#FDBB41" d="M0,154.812c0.504,1.52,0,52.461,0,52.461l25.714-33.3L0,154.812z"/>
<path fill="#FDBB41" d="M0,204.477c0.504,1.508,0,52.45,0,52.45l25.714-33.286L0,204.477z"/>
<path fill="#FDBB41" d="M33.896,7.824c0.504,1.508,0,52.45,0,52.45l25.713-33.285L33.896,7.824z"/>
<path fill="#FDBB41" d="M33.896,112.213c0.504-1.509,0-52.447,0-52.447l25.713,33.28L33.896,112.213z"/>
<path fill="#FDBB41" d="M33.896,111.71c0.504,1.514,0,52.456,0,52.456l25.713-33.294L33.896,111.71z"/>
<path fill="#FDBB41" d="M33.896,216.097c0.504-1.521,0-52.443,0-52.443l25.713,33.282L33.896,216.097z"/>
<path fill="#FDBB41" d="M33.896,214.578c0.504,1.521,0,52.461,0,52.461l25.713-33.301L33.896,214.578z"/>
<path fill="#FDBB41" d="M67.79,52.448c0.504-1.508,0-52.446,0-52.446l25.713,33.28L67.79,52.448z"/>
<path fill="#FDBB41" d="M67.79,51.945c0.504,1.515,0,52.457,0,52.457l25.713-33.296L67.79,51.945z"/>
<path fill="#FDBB41" d="M67.79,156.332c0.504-1.52,0-52.441,0-52.441l25.713,33.281L67.79,156.332z"/>
<path fill="#FDBB41" d="M67.79,154.812c0.504,1.52,0,52.461,0,52.461l25.713-33.3L67.79,154.812z"/>
<path fill="#FDBB41" d="M67.79,204.477c0.504,1.508,0,52.45,0,52.45l25.713-33.286L67.79,204.477z"/>
<path fill="#FDBB41" d="M101.682,7.824c0.504,1.508,0,52.45,0,52.45l25.713-33.285L101.682,7.824z"/>
<path fill="#FDBB41" d="M101.682,112.213c0.504-1.509,0-52.447,0-52.447l25.713,33.28L101.682,112.213z"/>
<path fill="#FDBB41" d="M101.682,111.71c0.504,1.514,0,52.456,0,52.456l25.713-33.294L101.682,111.71z"/>
<path fill="#FDBB41" d="M101.682,216.097c0.504-1.521,0-52.443,0-52.443l25.713,33.282L101.682,216.097z"/>
<path fill="#FDBB41" d="M101.682,214.578c0.504,1.521,0,52.461,0,52.461l25.713-33.301L101.682,214.578z"/>
<path fill="#FDBB41" d="M135.576,52.446c0.504-1.508,0-52.446,0-52.446l25.714,33.28L135.576,52.446z"/>
<path fill="#FDBB41" d="M135.576,51.944c0.504,1.515,0,52.456,0,52.456l25.714-33.295L135.576,51.944z"/>
<path fill="#FDBB41" d="M135.576,156.33c0.504-1.52,0-52.441,0-52.441l25.714,33.281L135.576,156.33z"/>
<path fill="#FDBB41" d="M135.576,154.811c0.504,1.521,0,52.461,0,52.461l25.714-33.3L135.576,154.811z"/>
<path fill="#FDBB41" d="M135.576,204.475c0.504,1.508,0,52.45,0,52.45l25.714-33.286L135.576,204.475z"/>
<path fill="#FDBB41" d="M169.474,7.822c0.504,1.509,0,52.451,0,52.451l25.713-33.286L169.474,7.822z"/>
<path fill="#FDBB41" d="M169.474,112.21c0.504-1.509,0-52.446,0-52.446l25.713,33.279L169.474,112.21z"/>
<path fill="#FDBB41" d="M169.474,111.708c0.504,1.514,0,52.456,0,52.456l25.713-33.294L169.474,111.708z"/>
<path fill="#FDBB41" d="M169.474,216.095c0.504-1.521,0-52.443,0-52.443l25.713,33.282L169.474,216.095z"/>
<path fill="#FDBB41" d="M169.474,214.576c0.504,1.521,0,52.461,0,52.461l25.713-33.301L169.474,214.576z"/>
</svg>
