<?xml version="1.0" encoding="utf-8"?>
<!-- Generator: Adobe Illustrator 15.0.0, SVG Export Plug-In . SVG Version: 6.00 Build 0)  -->
<!DOCTYPE svg PUBLIC "-//W3C//DTD SVG 1.1//EN" "http://www.w3.org/Graphics/SVG/1.1/DTD/svg11.dtd">
<svg version="1.1" id="ILLUSTRATION" xmlns="http://www.w3.org/2000/svg" xmlns:xlink="http://www.w3.org/1999/xlink" x="0px"
	 y="0px" width="680px" height="265px" viewBox="-240.414 -93.406 680 265" enable-background="new -240.414 -93.406 680 265"
	 xml:space="preserve">
<g>
	<g>
		<defs>
			<rect id="SVGID_1_" x="-239.414" y="-93.373" width="679.901" height="265.166"/>
		</defs>
		<clipPath id="SVGID_2_">
			<use xlink:href="#SVGID_1_"  overflow="visible"/>
		</clipPath>
		<g opacity="0.06" clip-path="url(#SVGID_2_)">
			<polygon fill="#FFFFFF" points="-68.15,138.878 -68.702,138.124 -68.352,139.175 			"/>
			<path fill="#FFFFFF" d="M-69.576,134.201c-0.107,0.13-0.265,0.08-0.372,0.229l1.571,2.916
				C-67.483,136.038-70.176,135.06-69.576,134.201z"/>
			<path fill="#FFFFFF" d="M-69.426,133.337c0.371-1.13-0.365-1.596-0.618-1.859C-69.469,131.876-70.219,133.588-69.426,133.337z"/>
			<path fill="#FFFFFF" d="M36.507-100.377c37.875-36.968,53.508-121.821,53.508-121.821s-85.217,13.565-123.06,50.503
				c-21.087,20.581-33.539,41.787-37.149,59.968c-0.005-1.245,0.06-2.491-0.018-3.745l0.164,0.039
				c-1.381-14.351,0.184-29.887-1.308-43.697c0.005-0.921,0.015-1.83,0.026-2.909v-0.675l-0.666,0.109
				c-2.133,0.381-4.502,0.768-7.093,1.204l-0.494,0.081v0.509c-0.021,9.533,0.057,19.715,0.212,29.843
				c-3.75-18.052-16.134-39.026-36.994-59.397c-37.879-36.97-123.05-50.535-123.05-50.535s15.624,84.822,53.527,121.778
				c37.85,36.989,79.078,44.132,98.311,24.492c4.121-4.235,6.807-9.41,8.244-15.223c-0.006,11.657-1.064,23.128-0.632,34.884
				c-0.528,10.261,0.59,20.923,0.979,31.462v8.779c-0.031,1.534,0.03,3.081-0.074,4.603c-0.801,4.463-0.378,9.612,0.074,14.706
				v15.166c-3.251-18.455-15.776-40.196-37.378-61.275c-37.879-36.994-123.05-50.528-123.05-50.528s15.624,84.822,53.527,121.76
				c37.85,36.99,79.078,44.132,98.311,24.462c3.399-3.501,5.831-7.611,7.402-12.206c0.102,7.19,0.586,14.348,1.188,21.583v60.178
				c-0.038,0.007-0.061,0.013-0.103,0.021l-0.5,0.096v0.512c-0.008,4.197,0,8.528,0.031,12.943c-0.221,2.272-0.365,4.567-0.271,6.85
				l0.321-0.226c0,0.109,0,0.195,0,0.308c-0.332,1.08-0.207,2.219,0.036,3.332c0.021,1.528,0.047,3.062,0.071,4.596
				c-0.05,0.062-0.061,0.13-0.12,0.192l-0.094-0.327c-0.1,0.171-0.133,0.363-0.15,0.528c-4.156-17.67-16.374-37.987-36.599-57.714
				c-37.879-36.948-123.05-50.529-123.05-50.529s15.624,84.845,53.527,121.814c37.85,36.938,79.078,44.104,98.311,24.413
				c4.114-4.224,6.807-9.368,8.237-15.188c-0.013,11.658-1.062,23.1-0.632,34.822c-0.528,10.318,0.601,21.021,0.985,31.597v8.263
				c-0.031,1.67,0.03,3.339-0.081,5.002c-0.808,4.488-0.372,9.663,0.081,14.781v15.131c-3.251-18.47-15.776-40.212-37.378-61.295
				c-37.879-36.97-123.05-50.528-123.05-50.528s15.624,84.848,53.527,121.814c37.85,36.94,79.078,44.089,98.311,24.413
				c3.391-3.488,5.825-7.599,7.397-12.18c0.101,7.19,0.591,14.373,1.193,21.601V377.3c-0.464,3.93-1.014,7.955-0.847,11.992
				l0.258-0.185c0,0.172,0,0.347,0,0.52c-0.197,0.822-0.15,1.68,0,2.526c0,1.732,0.006,3.456,0.011,5.223l-0.064-0.194
				c-0.283,0.485-0.168,1.011,0.071,1.545c0.032,5.538,0.096,11.148,0.182,16.788c-3.752-18.045-16.134-39.024-36.996-59.404
				c-37.872-36.921-123.043-50.479-123.043-50.479s15.624,84.792,53.527,121.748c37.85,36.977,79.078,44.133,98.311,24.462
				c4.121-4.243,6.807-9.403,8.244-15.229c-0.006,11.67-1.064,23.134-0.632,34.894c-0.528,10.263,0.59,20.925,0.979,31.472v8.771
				c-0.031,1.536,0.03,3.095-0.074,4.616c-0.801,4.462-0.378,9.613,0.074,14.711v15.157c-3.251-18.466-15.776-40.2-37.378-61.271
				c-37.879-36.949-123.05-50.564-123.05-50.564s15.624,84.878,53.527,121.814c37.85,36.965,79.078,44.152,98.311,24.442
				c3.399-3.493,5.831-7.624,7.397-12.201c0.101,7.183,0.583,14.352,1.187,21.579v60.221c-0.037,0.006-0.061,0.013-0.102,0.02
				l-0.495,0.106v0.501c-0.008,4.168,0,8.497,0.031,12.865c-0.228,2.278-0.372,4.587-0.276,6.912l0.326-0.239
				c0,0.104,0,0.183,0,0.274c-0.345,1.101-0.213,2.266,0.036,3.395c0.021,1.523,0.047,3.046,0.064,4.58
				c-0.049,0.061-0.064,0.13-0.125,0.187l-0.096-0.309c-0.101,0.166-0.132,0.357-0.144,0.516
				c-4.155-17.667-16.367-37.983-36.599-57.711c-37.872-37.03-123.043-50.553-123.043-50.553s15.624,84.816,53.527,121.792
				c37.85,36.964,79.078,44.107,98.311,24.402c4.121-4.219,6.807-9.391,8.244-15.196c-0.006,11.664-1.064,23.128-0.632,34.885
				c-0.528,10.262,0.59,20.921,0.979,31.469v8.776c-0.031,1.535,0.03,3.095-0.074,4.616c-0.801,4.462-0.378,9.593,0.074,14.708
				v15.19c-3.251-18.47-15.776-40.211-37.378-61.302c-37.879-36.97-123.05-50.528-123.05-50.528s15.624,84.854,53.527,121.812
				c37.85,36.938,79.078,44.097,98.311,24.442c3.399-3.493,5.831-7.618,7.402-12.198c0.102,7.169,0.586,14.321,1.188,21.547v65.725
				v2.932c0,0.014,0,0.026,0,0.034c-1.14,3.454-1.428,8.32-0.835,11.809c0,0.036,0,0.069,0,0.118l0.018-0.014
				c0.043,0.232,0.103,0.446,0.146,0.674c-0.127,0.849-0.02,1.728,0.155,2.585l0.078,4.788c-0.037,0.055-0.053,0.116-0.096,0.152
				l-0.094-0.312c-0.345,0.584-0.133,1.215,0.219,1.865l0.071,4.173c-0.021,0.014-0.04,0.034-0.064,0.044
				c0.019,0.02,0.043,0.04,0.071,0.057l0.018,1.198c-3.694-18.096-16.102-39.173-37.058-59.626
				c-37.885-36.987-123.057-50.543-123.057-50.543s15.624,84.819,53.527,121.819c37.85,36.937,79.078,44.099,98.311,24.401
				c4.127-4.232,6.818-9.413,8.244-15.239c-0.042,11.37-1.064,22.521-0.639,33.969c-0.528,10.158,0.589,20.705,0.979,31.139v8.678
				c-0.032,1.522,0.031,3.06-0.074,4.567c-0.801,4.418-0.377,9.527,0.074,14.56v15.652c-0.025,0.177-0.037,0.38-0.068,0.571
				c-3.388-18.354-15.903-39.896-37.311-60.773c-37.872-36.998-123.043-50.527-123.043-50.527s15.624,84.826,53.527,121.765
				c37.85,36.964,79.078,44.132,98.311,24.469c3.419-3.521,5.861-7.681,7.433-12.305c0.15,6.482,0.611,12.965,1.157,19.503v67.954
				c-0.464,3.873-1.007,7.839-0.842,11.815l0.415-0.288c-0.815,1.922,0.145,4.102,0.428,5.904v1.394
				c-0.074,0.406-0.221,0.793-0.535,1.106l-0.094-0.307c-0.471,0.786,0.094,1.707,0.629,2.528v7.44c0.005,0.096-0.013,0.158,0,0.244
				v1.245l0.419-0.073c0.24,0.394,0.536,0.7,0.907,0.773c-1.017,0.155,1.737,0.548-0.475,1.38c0.689,0.106,3.795-0.525,3.36-1.374
				c0.058-0.515,0.353-1.037,0.365-1.485l2.514-0.43v-91.439c0.171,3.426,0.333,6.89,0.454,10.407l-0.304-0.48l0.527,1.994
				c-0.133,0.16-0.276-0.197-0.331-0.412c-0.976,2.694,0.611,7.925-0.138,9.612c0.107,0.763,0.515,1.093,0.822,0.65
				c0.247,10.025,0.433,20.711,1.194,30.901c-0.132,0.489-0.396,0.594-0.726,0.442c1.57,8.708,0.947,17.842,0.684,26.747
				c0.414,0.345,0.439-0.901,0.875-0.028c0.515-2.867-1.025-5.248-0.264-7.847l0.396,0.333c0.258-1.893-1.014-0.38-0.492-2.344
				c0.332-0.77,0.51,0.193,0.535-0.149c-0.164-4.031,0.203-8.232-0.773-11.993c0.869-0.935,0.03-4.322,0.862-5.801
				c-0.347-1.045-0.265-2.088-0.833-2.491c0.455-14.043-0.383-28.414-0.314-42.824c-1.233-4.924-0.508-10.56-0.237-16.365
				c1.469,5.623,4.129,10.612,8.145,14.725c19.209,19.703,60.403,12.504,98.315-24.437c37.875-36.963,53.511-121.753,53.511-121.753
				s-85.218,13.532-123.063,50.526c-22.352,21.768-34.948,44.259-37.646,63.106l-0.211-0.792c1.465-18.72,0.433-37.858,1.044-56.911
				c0.359-18.492,1.164-35.099,0.036-52.677c1.511,5.363,4.131,10.165,8.008,14.138c19.209,19.676,60.404,12.479,98.315-24.462
				C74.369,944.348,90.005,859.53,90.005,859.53S4.787,873.102-33.059,910.042c-21.081,20.562-33.52,41.775-37.141,59.931
				c0-1.407,0.065-2.811-0.02-4.23l0.164,0.013c-1.382-14.195,0.183-29.554-1.308-43.247c-0.187-0.249-0.362-0.399-0.546-0.627
				v-2.217v-58.021c0.168,3.473,0.335,6.947,0.454,10.527c-0.071-0.205-0.24-0.284-0.304-0.479c0.203,0.617,0.581,1.311,0.528,1.994
				c-0.132,0.179-0.276-0.178-0.332-0.406c-0.976,2.724,0.608,7.991-0.137,9.718c0.107,0.768,0.515,1.104,0.822,0.682
				c0.245,10.091,0.426,20.898,1.187,31.211c-0.132,0.499-0.396,0.588-0.726,0.437c1.57,8.797,0.947,18.022,0.683,27.043
				c0.415,0.344,0.439-0.922,0.872-0.035c0.516-2.903-1.021-5.316-0.264-7.939l0.4,0.351c0.254-1.925-1.014-0.392-0.492-2.38
				c0.332-0.781,0.51,0.189,0.535-0.153c-0.164-4.064,0.2-8.298-0.774-12.124c0.868-0.938,0.031-4.356,0.86-5.879
				c-0.343-1.05-0.265-2.106-0.829-2.487c0.454-14.228-0.384-28.725-0.314-43.303c-1.384-5.554-0.358-12.021-0.22-18.598
				c1.469,5.604,4.129,10.58,8.132,14.668c19.209,19.684,60.403,12.499,98.318-24.405c37.872-36.974,53.508-121.815,53.508-121.815
				s-85.218,13.535-123.064,50.5c-22.875,22.306-35.539,45.354-37.826,64.474l-0.036-0.156c1.464-18.935,0.432-38.273,1.043-57.486
				c0.372-19.108,1.2-36.218-0.04-54.421c1.484,5.531,4.131,10.454,8.096,14.528c19.209,19.711,60.403,12.509,98.318-24.429
				c37.872-36.987,53.508-121.814,53.508-121.814S4.781,603.03-33.065,639.989c-21.094,20.563-33.538,41.772-37.147,59.935
				c-0.006-1.229,0.058-2.475-0.018-3.702l0.162,0.013c-1.381-14.351,0.185-29.867-1.306-43.696
				c0.005-0.921,0.011-1.843,0.022-2.923v-0.67l-0.564,0.113V596.49c0.17,3.461,0.335,6.941,0.455,10.515
				c-0.071-0.202-0.239-0.277-0.304-0.486c0.201,0.644,0.579,1.321,0.527,2.021c-0.132,0.18-0.276-0.204-0.332-0.425
				c-0.976,2.743,0.609,8.01-0.137,9.718c0.107,0.767,0.515,1.122,0.822,0.68c0.246,10.111,0.426,20.92,1.187,31.219
				c-0.133,0.497-0.395,0.584-0.726,0.448c1.571,8.797,0.947,18.026,0.683,27.031c0.414,0.351,0.439-0.914,0.872-0.029
				c0.517-2.896-1.021-5.302-0.264-7.932l0.396,0.341c0.258-1.91-1.008-0.388-0.487-2.371c0.331-0.78,0.509,0.197,0.533-0.173
				c-0.162-4.058,0.2-8.275-0.772-12.114c0.865-0.941,0.03-4.367,0.858-5.861c-0.343-1.057-0.264-2.107-0.829-2.507
				c0.454-14.216-0.384-28.731-0.312-43.29c-1.386-5.561-0.36-12.026-0.221-18.611c1.469,5.59,4.13,10.569,8.133,14.672
				c19.208,19.677,60.402,12.521,98.317-24.486c37.875-36.913,53.507-121.712,53.507-121.712S4.774,466.671-33.072,503.61
				c-22.872,22.324-35.539,45.354-37.824,64.467l-0.038-0.14c1.464-18.937,0.433-38.277,1.044-57.51
				c0.368-19.105,1.199-36.206-0.04-54.401c1.485,5.525,4.13,10.431,8.096,14.499c19.208,19.703,60.402,12.521,98.317-24.441
				c37.875-36.938,53.507-121.792,53.507-121.792S4.774,337.84-33.072,374.777c-21.087,20.582-33.538,41.809-37.147,59.983
				c-0.005-1.223,0.059-2.478-0.018-3.722l0.164,0.014c-1.382-14.352,0.184-29.868-1.308-43.697c0.007-0.915,0.012-1.842,0.025-2.93
				v-0.65l-0.564,0.094v-68.697c0.168,3.46,0.333,6.935,0.453,10.507c-0.07-0.201-0.239-0.271-0.304-0.479
				c0.202,0.628,0.58,1.314,0.529,2.015c-0.132,0.16-0.278-0.197-0.332-0.416c-0.976,2.741,0.607,8.007-0.139,9.715
				c0.107,0.767,0.515,1.106,0.822,0.678c0.246,10.087,0.427,20.922,1.189,31.218c-0.133,0.494-0.396,0.588-0.731,0.445
				c1.571,8.784,0.951,18.03,0.688,27.035c0.414,0.343,0.437-0.922,0.872-0.033c0.515-2.896-1.022-5.304-0.264-7.929l0.395,0.337
				c0.259-1.909-1.009-0.393-0.487-2.37c0.332-0.78,0.508,0.19,0.533-0.166c-0.166-4.055,0.2-8.298-0.773-12.122
				c0.865-0.938,0.031-4.359,0.859-5.881c-0.343-1.05-0.263-2.104-0.828-2.487c0.454-14.209-0.385-28.725-0.313-43.283
				c-1.379-5.561-0.365-11.993-0.221-18.561c1.469,5.59,4.13,10.569,8.133,14.668c19.208,19.674,60.402,12.478,98.317-24.489
				c37.875-36.94,53.508-121.785,53.508-121.785S4.768,185.375-33.078,222.316c-22.861,22.298-35.526,45.341-37.818,64.453
				l-0.042-0.151c1.462-18.951,0.433-38.277,1.043-57.509c0.368-19.097,1.199-36.188-0.042-54.396
				c1.486,5.531,4.131,10.441,8.097,14.513c19.208,19.677,60.402,12.489,98.317-24.455C74.353,127.825,89.985,42.978,89.985,42.978
				S4.768,56.571-33.078,93.506c-21.087,20.576-33.536,41.789-37.146,59.958c-0.006-1.238,0.054-2.487-0.02-3.739l0.164,0.02
				c-1.381-14.351,0.185-29.867-1.308-43.703c0.006-0.914,0.013-1.836,0.024-2.916v-0.65l-0.565,0.094V49.995
				c0.169,3.46,0.335,6.947,0.45,10.507c-0.067-0.195-0.235-0.271-0.3-0.479c0.203,0.645,0.58,1.322,0.528,2.015
				c-0.132,0.179-0.277-0.197-0.332-0.399c-0.976,2.725,0.607,7.99-0.139,9.715c0.105,0.763,0.517,1.106,0.823,0.657
				c0.244,10.111,0.426,20.919,1.187,31.219c-0.132,0.498-0.396,0.604-0.729,0.448c1.57,8.797,0.951,18.023,0.687,27.025
				c0.414,0.363,0.439-0.912,0.872-0.03c0.515-2.896-1.025-5.303-0.265-7.925l0.396,0.333c0.257-1.908-1.01-0.379-0.489-2.37
				c0.332-0.78,0.508,0.197,0.535-0.146c-0.167-4.065,0.198-8.299-0.774-12.136c0.866-0.928,0.032-4.346,0.861-5.867
				c-0.345-1.051-0.264-2.101-0.829-2.501c0.45-14.215-0.386-28.708-0.314-43.283c-1.377-5.552-0.365-11.993-0.222-18.561
				c1.471,5.59,4.127,10.572,8.133,14.66c19.208,19.704,60.402,12.527,98.317-24.438C74.382-8.581,90.012-93.373,90.012-93.373
				S4.797-79.85-33.045-42.844C-55.907-20.551-68.569,2.481-70.866,21.587l-0.043-0.166c1.465-18.931,0.433-38.271,1.044-57.482
				c0.371-19.104,1.2-36.215-0.04-54.409c1.485,5.52,4.13,10.448,8.097,14.504C-42.602-56.294-1.404-63.469,36.507-100.377z
				 M-79.502,133.651c0.046,0.086,0.078,0.165,0.127,0.271c0,0.087,0,0.165,0,0.26C-79.407,134.008-79.461,133.828-79.502,133.651z
				 M-79.489,680.189c0.039,0.086,0.071,0.159,0.119,0.239c0,0.098,0,0.171,0,0.257C-79.4,680.526-79.45,680.354-79.489,680.189z
				 M-71.896,1034.323v-1.013c0.051,0.394,0.069,0.785,0.144,1.192L-71.896,1034.323z M-71.896,1026.96v-9.576
				C-71.041,1020.65-71.55,1023.639-71.896,1026.96z M-71.664,1014.884l-0.232,0.751v-0.751
				C-71.821,1014.884-71.764,1014.917-71.664,1014.884z M-71.896,765.495v-1.066c0.051,0.423,0.069,0.825,0.15,1.263
				L-71.896,765.495z M-71.896,758.119v-9.775C-71.023,751.687-71.55,754.731-71.896,758.119z M-71.657,745.862l-0.239,0.795v-0.795
				C-71.813,745.862-71.759,745.899-71.657,745.862z M-71.896,500.326v-1.032c0.051,0.392,0.069,0.791,0.144,1.204L-71.896,500.326z
				 M-71.896,492.88v-9.682C-71.041,486.5-71.55,489.535-71.896,492.88z M-71.664,480.683l-0.232,0.77v-0.77
				C-71.821,480.683-71.764,480.715-71.664,480.683z M-71.896,219v-1.079c0.051,0.423,0.069,0.838,0.15,1.264L-71.896,219z
				 M-71.896,211.62v-9.766C-71.023,205.184-71.55,208.232-71.896,211.62z M-71.657,199.369l-0.239,0.792v-0.792
				C-71.813,199.369-71.759,199.403-71.657,199.369z M-71.896-65.807c0.075,0,0.132,0.032,0.232,0l-0.232,0.773V-65.807z
				 M-71.896-46.164v-1.026c0.051,0.411,0.069,0.791,0.144,1.216L-71.896-46.164z M-71.896-53.603v-9.681
				C-71.041-59.993-71.55-56.956-71.896-53.603z"/>
			<polygon fill="#FFFFFF" points="-68.15,404.073 -68.702,403.314 -68.352,404.365 			"/>
			<path fill="#FFFFFF" d="M-69.576,399.391c-0.107,0.148-0.265,0.1-0.372,0.228l1.571,2.916
				C-67.483,401.227-70.176,400.256-69.576,399.391z"/>
			<path fill="#FFFFFF" d="M-69.426,398.538c0.371-1.128-0.365-1.598-0.618-1.862C-69.469,397.064-70.219,398.79-69.426,398.538z"/>
			<path fill="#FFFFFF" d="M-71.531,326.736c-0.049-0.166-0.043-0.087-0.013,0.055L-71.531,326.736z"/>
			<path fill="#FFFFFF" d="M255.939,202.555c0-0.012,0-0.02,0-0.028c-0.01-0.063-0.051-0.12-0.066-0.156L255.939,202.555z"/>
			<path fill="#FFFFFF" d="M276.649,201.014c-19.211,19.71-9.106,58.768,28.787,95.704c37.844,36.971,123.071,50.5,123.071,50.5
				s-15.666-84.821-53.523-121.763C337.111,188.489,295.854,181.342,276.649,201.014z"/>
			<path fill="#FFFFFF" d="M276.649,72.179c-19.211,19.696-9.106,58.751,28.787,95.714c37.844,36.987,123.071,50.536,123.071,50.536
				s-15.666-84.805-53.523-121.784C337.111,59.68,295.854,52.504,276.649,72.179z"/>
			<path fill="#FFFFFF" d="M255.939-62.665c0-0.012,0-0.018,0-0.03c-0.01-0.05-0.051-0.104-0.066-0.16L255.939-62.665z"/>
			<path fill="#FFFFFF" d="M260.255-224.064c0.233,0.079,0.423,0.14,0.621,0.251C260.846-223.959,260.446-223.998,260.255-224.064z"
				/>
			<path fill="#FFFFFF" d="M276.649-64.142c-19.211,19.69-9.106,58.748,28.787,95.685c37.844,36.942,123.071,50.53,123.071,50.53
				S412.842-2.776,374.984-39.689C337.111-76.671,295.854-83.821,276.649-64.142z"/>
			<path fill="#FFFFFF" d="M276.649-192.956c-19.211,19.647-9.106,58.735,28.787,95.699C343.28-60.314,428.508-46.76,428.508-46.76
				s-15.666-84.846-53.523-121.785C337.111-205.515,295.854-212.666,276.649-192.956z"/>
			<polygon fill="#FFFFFF" points="611.728,138.878 611.174,138.124 611.523,139.175 			"/>
			<path fill="#FFFFFF" d="M610.302,134.201c-0.123,0.13-0.268,0.08-0.387,0.229l1.571,2.916
				C612.388,136.038,609.701,135.06,610.302,134.201z"/>
			<path fill="#FFFFFF" d="M610.45,133.337c0.37-1.13-0.369-1.596-0.614-1.859C610.407,131.876,609.658,133.588,610.45,133.337z"/>
			<path fill="#FFFFFF" d="M716.404-100.377c37.844-36.968,53.511-121.821,53.511-121.821s-85.207,13.565-123.054,50.503
				c-21.127,20.648-33.604,41.922-37.177,60.11c0-1.282,0.065-2.565-0.021-3.848l0.159,0.012
				c-1.375-14.351,0.185-29.861-1.302-43.69c0-0.921,0.013-1.848,0.026-2.934v-0.676l-0.664,0.11
				c-2.129,0.38-4.494,0.769-7.069,1.202l-0.505,0.081v0.509c-0.011,9.526,0.062,19.692,0.215,29.824
				c-3.745-18.044-16.111-39.019-36.959-59.378c-37.894-36.964-123.084-50.535-123.084-50.535s15.663,84.823,53.507,121.785
				c37.882,36.989,79.105,44.132,98.281,24.492c4.159-4.26,6.874-9.466,8.298-15.327c0,11.693-1.054,23.183-0.632,34.967
				c-0.528,10.234,0.581,20.865,0.975,31.379v8.968c-0.036,1.503,0.033,3.02-0.073,4.504c-0.798,4.451-0.386,9.583,0.073,14.663
				v15.229c-3.24-18.461-15.762-40.198-37.345-61.282c-37.894-36.994-123.084-50.528-123.084-50.528s15.663,84.822,53.507,121.76
				c37.882,36.99,79.105,44.132,98.281,24.462c3.442-3.519,5.894-7.668,7.469-12.271c0.105,7.175,0.598,14.338,1.185,21.562v60.271
				c-0.035,0.006-0.06,0.014-0.098,0.016l-0.503,0.1v0.512c-0.013,4.197,0.014,8.537,0.036,12.944
				c-0.22,2.266-0.366,4.554-0.271,6.833l0.32-0.229c0,0.111,0,0.196,0,0.309c-0.33,1.08-0.201,2.222,0.043,3.324
				c0.021,1.543,0.043,3.078,0.065,4.616c-0.045,0.057-0.059,0.13-0.122,0.187l-0.096-0.331c-0.111,0.171-0.134,0.367-0.148,0.538
				c-4.145-17.666-16.365-37.987-36.564-57.711C525.694,37.896,440.5,24.311,440.5,24.311s15.662,84.849,53.511,121.818
				c37.878,36.938,79.109,44.1,98.287,24.416c4.145-4.246,6.859-9.447,8.281-15.289c0,11.68-1.056,23.164-0.631,34.914
				c-0.526,10.285,0.595,20.948,0.975,31.524v8.678c-0.022,1.553,0.036,3.125-0.071,4.666c-0.8,4.481-0.38,9.643,0.071,14.758
				v15.176c-3.229-18.462-15.751-40.21-37.337-61.307C525.694,166.698,440.5,153.14,440.5,153.14s15.662,84.844,53.511,121.814
				c37.878,36.938,79.109,44.104,98.287,24.409c3.428-3.497,5.875-7.642,7.453-12.23c0.105,7.198,0.595,14.401,1.192,21.635v68.569
				c-0.468,3.915-1.014,7.931-0.855,11.955l0.248-0.177c0,0.177,0,0.363,0,0.54c-0.179,0.796-0.136,1.622,0,2.451
				c0.01,1.74,0.01,3.483,0.022,5.264l-0.06-0.175c-0.284,0.476-0.175,1.003,0.06,1.531c0.036,5.544,0.113,11.161,0.198,16.809
				c-3.757-18.039-16.115-39.022-36.971-59.392C525.694,319.229,440.5,305.667,440.5,305.667s15.662,84.784,53.511,121.748
				c37.878,36.983,79.109,44.134,98.287,24.462c4.145-4.252,6.859-9.445,8.281-15.302c0,11.687-1.056,23.179-0.631,34.963
				c-0.526,10.273,0.595,20.955,0.975,31.513v8.678c-0.022,1.556,0.036,3.125-0.071,4.666c-0.8,4.48-0.38,9.642,0.071,14.757v15.131
				c-3.229-18.467-15.751-40.201-37.337-61.284C525.694,448.061,440.5,434.447,440.5,434.447s15.662,84.877,53.511,121.813
				c37.878,36.965,79.109,44.154,98.287,24.456c3.428-3.523,5.875-7.666,7.446-12.264c0.112,7.205,0.602,14.424,1.199,21.686v60.154
				c-0.043,0.003-0.08,0.01-0.118,0.017l-0.489,0.105v0.502c-0.014,4.167,0,8.49,0.022,12.854c-0.22,2.274-0.366,4.577-0.271,6.898
				l0.341-0.234c0,0.105,0,0.186,0,0.277c-0.351,1.1-0.213,2.252,0.036,3.381c0.017,1.522,0.043,3.052,0.065,4.587
				c-0.055,0.066-0.065,0.13-0.136,0.188l-0.096-0.314c-0.099,0.169-0.132,0.35-0.134,0.522
				c-4.146-17.657-16.367-37.967-36.565-57.691c-37.892-37.007-123.09-50.529-123.09-50.529s15.665,84.818,53.516,121.793
				c37.877,36.962,79.104,44.116,98.285,24.405c4.158-4.239,6.859-9.435,8.292-15.272c-0.009,11.687-1.066,23.171-0.645,34.949
				c-0.526,10.289,0.609,20.955,0.979,31.525v8.682c-0.036,1.551,0.036,3.124-0.073,4.663c-0.812,4.477-0.382,9.632,0.073,14.75
				v15.173c-3.243-18.469-15.765-40.223-37.337-61.313c-37.892-36.967-123.09-50.532-123.09-50.532s15.665,84.852,53.516,121.814
				c37.877,36.941,79.104,44.097,98.285,24.442c3.426-3.503,5.876-7.647,7.454-12.251c0.102,7.198,0.581,14.401,1.188,21.648v65.666
				v2.896c-0.004,0.03-0.004,0.073-0.017,0.105c-1.115,3.442-1.413,8.257-0.835,11.729c0,0.037,0,0.086,0,0.129l0.022-0.013
				c0.043,0.235,0.106,0.45,0.143,0.676c-0.128,0.873-0.017,1.755,0.165,2.626l0.082,4.733c-0.049,0.062-0.062,0.134-0.119,0.171
				l-0.096-0.311c-0.351,0.588-0.132,1.238,0.226,1.889l0.069,4.154c-0.026,0.014-0.057,0.047-0.086,0.057
				c0.029,0.026,0.06,0.049,0.086,0.075l0.022,1.202c-3.668-18.096-16.081-39.187-37.03-59.643
				C525.694,854.497,440.5,840.946,440.5,840.946s15.662,84.814,53.511,121.815c37.878,36.943,79.109,44.103,98.283,24.416
				c4.162-4.271,6.88-9.478,8.3-15.332c-0.043,11.393-1.058,22.576-0.642,34.048c-0.524,10.147,0.585,20.685,0.971,31.102v8.771
				c-0.035,1.502,0.036,3.025-0.071,4.523c-0.8,4.409-0.38,9.49,0.071,14.517v15.724c-0.022,0.187-0.035,0.384-0.06,0.562
				c-3.377-18.354-15.88-39.899-37.29-60.782c-37.889-37-123.086-50.525-123.086-50.525s15.665,84.827,53.511,121.764
				c37.878,36.965,79.107,44.147,98.283,24.473c3.455-3.536,5.912-7.72,7.483-12.378c0.151,6.48,0.607,12.963,1.158,19.488v68.046
				c-0.458,3.853-0.993,7.807-0.835,11.785l0.406-0.297c-0.81,1.911,0.135,4.079,0.416,5.895v1.443
				c-0.085,0.393-0.215,0.767-0.525,1.079l-0.1-0.312c-0.464,0.777,0.087,1.699,0.625,2.516v7.466c0,0.089-0.01,0.151,0,0.231v1.265
				l0.398-0.066c0.235,0.397,0.529,0.71,0.903,0.772c-1.018,0.159,1.732,0.545-0.466,1.381c0.687,0.104,3.793-0.535,3.352-1.381
				c0.062-0.516,0.355-1.037,0.376-1.486l2.51-0.422v-91.476c0.158,3.398,0.337,6.843,0.452,10.35l-0.311-0.477l0.524,1.992
				c-0.128,0.158-0.272-0.191-0.329-0.413c-0.965,2.693,0.62,7.925-0.13,9.612c0.106,0.762,0.516,1.093,0.824,0.65
				c0.242,10.025,0.415,20.711,1.178,30.895c-0.136,0.495-0.394,0.602-0.714,0.446c1.573,8.711,0.936,17.838,0.671,26.751
				c0.399,0.337,0.423-0.909,0.888-0.03c0.513-2.867-1.029-5.247-0.273-7.847l0.386,0.335c0.258-1.893-1.007-0.384-0.484-2.346
				c0.33-0.775,0.509,0.188,0.533-0.149c-0.146-4.037,0.196-8.231-0.771-11.992c0.883-0.936,0.03-4.315,0.865-5.808
				c-0.35-1.037-0.255-2.081-0.835-2.491c0.451-14.043-0.387-28.414-0.314-42.821c-1.245-4.953-0.494-10.63-0.234-16.467
				c1.464,5.652,4.128,10.685,8.183,14.815c19.182,19.704,60.399,12.505,98.313-24.436c37.844-36.96,53.511-121.752,53.511-121.752
				s-85.207,13.532-123.054,50.528c-22.381,21.808-34.975,44.341-37.649,63.21l-0.235-0.884c1.46-18.721,0.43-37.86,1.045-56.906
				c0.366-18.575,1.177-35.233,0.022-52.887c1.491,5.451,4.123,10.312,8.053,14.328c19.176,19.677,60.407,12.479,98.308-24.462
				c37.855-36.975,53.523-121.792,53.523-121.792s-85.22,13.571-123.056,50.513c-20.984,20.481-33.401,41.609-37.073,59.735
				c0-1.334-0.022-2.672-0.114-4.017l0.165,0.021c-1.401-14.205,0.172-29.562-1.315-43.251c-0.184-0.245-0.366-0.396-0.551-0.618
				v-2.234v-57.949c0.171,3.437,0.343,6.904,0.452,10.448c-0.072-0.205-0.245-0.284-0.307-0.479
				c0.204,0.617,0.577,1.311,0.528,2.001c-0.136,0.172-0.274-0.185-0.331-0.413c-0.971,2.724,0.614,7.991-0.136,9.718
				c0.116,0.768,0.516,1.104,0.824,0.668c0.242,10.099,0.429,20.912,1.185,31.225c-0.129,0.499-0.4,0.584-0.729,0.429
				c1.567,8.805,0.95,18.023,0.687,27.045c0.416,0.35,0.442-0.922,0.871-0.043c0.516-2.902-1.02-5.311-0.258-7.928l0.394,0.353
				c0.258-1.933-1.014-0.392-0.491-2.38c0.329-0.787,0.508,0.184,0.534-0.16c-0.169-4.063,0.201-8.291-0.775-12.117
				c0.868-0.944,0.032-4.362,0.868-5.879c-0.351-1.056-0.271-2.106-0.836-2.487c0.453-14.228-0.382-28.725-0.313-43.303
				c-1.393-5.594-0.351-12.105-0.222-18.723c1.467,5.63,4.132,10.668,8.169,14.793c19.176,19.684,60.407,12.499,98.308-24.405
				c37.859-36.974,53.523-121.815,53.523-121.815s-85.22,13.535-123.056,50.5c-22.893,22.342-35.562,45.432-37.835,64.565
				l-0.073-0.248c1.467-18.935,0.437-38.273,1.044-57.482c0.386-19.18,1.215-36.343-0.051-54.621
				c1.471,5.617,4.125,10.607,8.14,14.705c19.176,19.717,60.407,12.519,98.308-24.423c37.859-36.987,53.523-121.814,53.523-121.814
				s-85.22,13.565-123.056,50.528c-21.128,20.619-33.605,41.884-37.178,60.093c-0.004-1.265,0.069-2.543-0.016-3.83l0.157,0.01
				c-1.388-14.345,0.172-29.861-1.302-43.69c0-0.914,0.014-1.853,0.026-2.946v-0.67l-0.577,0.113V596.55
				c0.171,3.443,0.343,6.918,0.452,10.447c-0.072-0.201-0.245-0.273-0.307-0.485c0.204,0.648,0.577,1.32,0.528,2.021
				c-0.136,0.178-0.274-0.201-0.331-0.423c-0.971,2.744,0.614,8.007-0.136,9.715c0.116,0.77,0.516,1.123,0.824,0.677
				c0.242,10.114,0.429,20.924,1.185,31.219c-0.129,0.495-0.4,0.588-0.729,0.452c1.567,8.784,0.95,18.023,0.687,27.028
				c0.416,0.343,0.442-0.915,0.871-0.034c0.516-2.896-1.02-5.303-0.258-7.922l0.394,0.331c0.258-1.909-1.014-0.386-0.491-2.37
				c0.329-0.781,0.508,0.197,0.534-0.166c-0.169-4.056,0.201-8.279-0.775-12.122c0.868-0.931,0.032-4.359,0.868-5.86
				c-0.351-1.05-0.271-2.107-0.836-2.508c0.453-14.209-0.382-28.725-0.313-43.284c-1.393-5.617-0.351-12.114-0.222-18.745
				c1.467,5.64,4.132,10.669,8.169,14.799c19.176,19.678,60.407,12.521,98.321-24.484c37.846-36.914,53.51-121.726,53.51-121.726
				s-85.22,13.549-123.056,50.486c-22.893,22.368-35.562,45.439-37.835,64.572l-0.073-0.245c1.467-18.937,0.437-38.276,1.044-57.506
				c0.386-19.172,1.215-36.318-0.051-54.606c1.471,5.601,4.125,10.584,8.14,14.686c19.176,19.702,60.407,12.521,98.321-24.456
				c37.846-36.938,53.51-121.792,53.51-121.792s-85.22,13.558-123.056,50.5c-21.128,20.634-33.605,41.926-37.178,60.14
				c0-1.283,0.069-2.564-0.016-3.862l0.157,0.019c-1.388-14.344,0.172-29.866-1.302-43.703c0-0.914,0.014-1.853,0.026-2.945v-0.644
				l-0.567,0.093v-68.611c0.161,3.435,0.333,6.904,0.442,10.438c-0.072-0.201-0.245-0.268-0.307-0.479
				c0.204,0.627,0.577,1.313,0.528,2.015c-0.136,0.158-0.271-0.195-0.331-0.417c-0.971,2.748,0.614,8.008-0.136,9.716
				c0.116,0.77,0.516,1.106,0.824,0.676c0.242,10.093,0.429,20.92,1.185,31.219c-0.129,0.495-0.4,0.582-0.729,0.446
				c1.567,8.783,0.95,18.022,0.687,27.027c0.416,0.351,0.442-0.922,0.871-0.029c0.516-2.899-1.02-5.304-0.258-7.926l0.394,0.331
				c0.258-1.909-1.014-0.394-0.491-2.368c0.329-0.779,0.508,0.194,0.534-0.168c-0.169-4.056,0.201-8.299-0.775-12.115
				c0.868-0.944,0.032-4.363,0.868-5.885c-0.351-1.05-0.271-2.101-0.836-2.487c0.453-14.209-0.382-28.729-0.313-43.287
				c-1.38-5.597-0.351-12.098-0.222-18.706c1.467,5.64,4.132,10.666,8.169,14.797c19.176,19.674,60.407,12.479,98.321-24.492
				c37.846-36.937,53.51-121.785,53.51-121.785s-85.206,13.592-123.056,50.53c-22.881,22.338-35.55,45.432-37.835,64.559
				l-0.073-0.258c1.467-18.954,0.437-38.281,1.044-57.5c0.386-19.168,1.208-36.319-0.051-54.598
				c1.475,5.599,4.133,10.58,8.14,14.683c19.176,19.677,60.407,12.484,98.321-24.455c37.846-36.944,53.51-121.793,53.51-121.793
				S684.722,56.512,646.872,93.45c-21.128,20.632-33.605,41.91-37.178,60.111c0-1.285,0.069-2.572-0.016-3.866l0.157,0.01
				c-1.388-14.351,0.172-29.861-1.302-43.696c0-0.916,0.014-1.847,0.026-2.939v-0.663l-0.567,0.105V50.005
				c0.161,3.437,0.333,6.918,0.442,10.44c-0.072-0.193-0.245-0.267-0.307-0.478c0.204,0.644,0.577,1.313,0.528,2.015
				c-0.136,0.177-0.271-0.196-0.331-0.406c-0.971,2.733,0.614,7.997-0.136,9.724c0.116,0.753,0.516,1.096,0.824,0.657
				c0.242,10.108,0.429,20.919,1.185,31.212c-0.129,0.494-0.4,0.6-0.729,0.445c1.567,8.804,0.95,18.029,0.687,27.028
				c0.416,0.366,0.442-0.915,0.871-0.03c0.516-2.892-1.02-5.304-0.258-7.924l0.394,0.335c0.258-1.915-1.014-0.386-0.491-2.367
				c0.329-0.779,0.508,0.188,0.534-0.169c-0.169-4.054,0.201-8.277-0.775-12.121c0.868-0.925,0.032-4.34,0.868-5.861
				c-0.351-1.051-0.271-2.107-0.836-2.503c0.453-14.212-0.382-28.702-0.313-43.281c-1.393-5.591-0.351-12.093-0.222-18.709
				c1.467,5.636,4.132,10.663,8.169,14.8c19.176,19.704,60.407,12.527,98.321-24.443C754.26-8.581,769.911-93.373,769.911-93.373
				s-85.203,13.511-123.05,50.529c-22.882,22.335-35.552,45.41-37.834,64.536l-0.063-0.257c1.456-18.932,0.423-38.272,1.044-57.485
				c0.376-19.187,1.205-36.336-0.061-54.611c1.468,5.611,4.125,10.595,8.149,14.694C637.272-56.294,678.504-63.469,716.404-100.377z
				 M600.385,133.594c0.047,0.109,0.087,0.201,0.129,0.314c0,0.102,0,0.188,0.003,0.299
				C600.487,134,600.429,133.789,600.385,133.594z M600.524,680.681c-0.03-0.161-0.086-0.35-0.13-0.521
				c0.051,0.096,0.081,0.171,0.13,0.258C600.524,680.503,600.524,680.595,600.524,680.681z M607.983,1034.351v-0.948
				c0.05,0.386,0.061,0.732,0.13,1.137L607.983,1034.351z M607.983,1026.905v-9.484
				C608.822,1020.65,608.326,1023.618,607.983,1026.905z M608.205,1014.905l-0.222,0.717v-0.717
				C608.057,1014.905,608.113,1014.935,608.205,1014.905z M607.983,765.544V764.6c0.05,0.38,0.061,0.741,0.13,1.135L607.983,765.544
				z M607.983,758.019v-9.589C608.822,751.697,608.326,754.704,607.983,758.019z M608.205,745.891l-0.222,0.737v-0.737
				C608.057,745.891,608.113,745.921,608.205,745.891z M607.983,500.369v-0.921c0.05,0.372,0.061,0.709,0.13,1.097L607.983,500.369z
				 M607.983,492.751v-9.461C608.8,486.513,608.326,489.486,607.983,492.751z M608.205,480.702l-0.222,0.717v-0.717
				C608.057,480.702,608.113,480.733,608.205,480.702z M607.983,219.036v-1.014c0.05,0.387,0.066,0.778,0.13,1.179L607.983,219.036z
				 M607.983,211.547v-9.619C608.822,205.207,608.326,208.221,607.983,211.547z M608.215,199.389l-0.231,0.76v-0.76
				C608.062,199.389,608.119,199.419,608.215,199.389z M607.983-65.795c0.079,0,0.13,0.031,0.231,0l-0.231,0.768V-65.795z
				 M607.983-46.153v-1c0.05,0.399,0.066,0.778,0.13,1.19L607.983-46.153z M607.983-53.622v-9.65
				C608.828-59.989,608.326-56.963,607.983-53.622z"/>
			<path fill="#FFFFFF" d="M608.326,326.79l0.015-0.049C608.297,326.575,608.3,326.662,608.326,326.79z"/>
			<polygon fill="#FFFFFF" points="611.728,404.073 611.174,403.314 611.523,404.365 			"/>
			<path fill="#FFFFFF" d="M610.302,399.391c-0.123,0.148-0.268,0.1-0.387,0.228l1.571,2.916
				C612.388,401.227,609.701,400.256,610.302,399.391z"/>
			<path fill="#FFFFFF" d="M610.45,398.538c0.37-1.128-0.369-1.598-0.614-1.862C610.407,397.064,609.658,398.79,610.45,398.538z"/>
			<path fill="#FFFFFF" d="M935.854,202.555c0-0.006,0-0.012,0-0.02c-0.024-0.065-0.061-0.121-0.073-0.165L935.854,202.555z"/>
			<path fill="#FFFFFF" d="M956.564,201.014c-19.213,19.71-9.118,58.768,28.751,95.704c37.865,36.971,123.115,50.5,123.115,50.5
				s-15.688-84.821-53.544-121.763C1017.021,188.489,975.796,181.342,956.564,201.014z"/>
			<path fill="#FFFFFF" d="M956.564,72.179c-19.213,19.696-9.118,58.751,28.751,95.714c37.865,36.987,123.115,50.536,123.115,50.536
				s-15.688-84.805-53.544-121.784C1017.021,59.68,975.796,52.504,956.564,72.179z"/>
			<path fill="#FFFFFF" d="M935.84-62.669c0-0.013,0-0.025,0-0.039c-0.011-0.043-0.047-0.109-0.06-0.146L935.84-62.669z"/>
			<path fill="#FFFFFF" d="M940.182-224.059c0.231,0.081,0.43,0.142,0.617,0.253C940.79-223.959,940.384-223.991,940.182-224.059z"
				/>
			<path fill="#FFFFFF" d="M956.564-64.142c-19.213,19.69-9.118,58.748,28.751,95.685c37.865,36.942,123.115,50.53,123.115,50.53
				s-15.688-84.849-53.544-121.761C1017.021-76.671,975.796-83.821,956.564-64.142z"/>
			<path fill="#FFFFFF" d="M985.315-97.258c37.875,36.944,123.115,50.497,123.115,50.497s-15.688-84.846-53.53-121.785
				c-37.879-36.97-79.104-44.133-98.336-24.411C937.352-173.309,947.446-134.221,985.315-97.258z"/>
			<polygon fill="#FFFFFF" points="-68.15,685.4 -68.702,684.651 -68.352,685.7 			"/>
			<path fill="#FFFFFF" d="M-69.576,680.727c-0.107,0.133-0.265,0.083-0.372,0.212l1.571,2.932
				C-67.483,682.563-70.176,681.588-69.576,680.727z"/>
			<path fill="#FFFFFF" d="M-69.426,679.862c0.371-1.129-0.365-1.602-0.618-1.865C-69.469,678.404-70.219,680.117-69.426,679.862z"
				/>
			<polygon fill="#FFFFFF" points="-68.15,950.57 -68.702,949.818 -68.352,950.867 			"/>
			<path fill="#FFFFFF" d="M-69.576,945.894c-0.107,0.147-0.265,0.078-0.372,0.227l1.571,2.916
				C-67.483,947.729-70.176,946.745-69.576,945.894z"/>
			<path fill="#FFFFFF" d="M-69.426,945.035c0.371-1.129-0.365-1.6-0.618-1.859C-69.469,943.566-70.219,945.285-69.426,945.035z"/>
			<path fill="#FFFFFF" d="M255.952,749.015c0-0.007,0-0.007,0-0.013c-0.022-0.053-0.067-0.108-0.087-0.152L255.952,749.015z"/>
			<path fill="#FFFFFF" d="M276.649,747.523c-19.211,19.703-9.106,58.731,28.787,95.668c37.844,37,123.071,50.553,123.071,50.553
				s-15.666-84.839-53.523-121.814C337.111,734.991,295.854,727.852,276.649,747.523z"/>
			<path fill="#FFFFFF" d="M276.649,618.681c-19.211,19.733-9.106,58.758,28.787,95.715
				c37.844,36.939,123.071,50.535,123.071,50.535s-15.666-84.876-53.523-121.814C337.111,606.159,295.854,598.999,276.649,618.681z"
				/>
			<path fill="#FFFFFF" d="M255.952,483.855c0-0.006,0-0.009,0-0.016c-0.022-0.056-0.067-0.121-0.087-0.165L255.952,483.855z"/>
			<path fill="#FFFFFF" d="M276.649,482.333c-19.211,19.644-9.106,58.725,28.787,95.731
				c37.844,36.881,123.071,50.532,123.071,50.532s-15.666-84.852-53.523-121.872C337.111,469.802,295.854,462.656,276.649,482.333z"
				/>
			<path fill="#FFFFFF" d="M276.649,353.479c-19.211,19.71-9.106,58.765,28.787,95.704c37.844,37.007,123.071,50.516,123.071,50.516
				s-15.666-84.761-53.523-121.748C337.111,340.98,295.854,333.805,276.649,353.479z"/>
			<polygon fill="#FFFFFF" points="611.728,685.4 611.174,684.651 611.523,685.7 			"/>
			<path fill="#FFFFFF" d="M610.302,680.727c-0.123,0.133-0.268,0.083-0.387,0.212l1.571,2.932
				C612.388,682.563,609.701,681.588,610.302,680.727z"/>
			<path fill="#FFFFFF" d="M610.45,679.862c0.37-1.129-0.369-1.594-0.614-1.859C610.407,678.404,609.658,680.117,610.45,679.862z"/>
			<polygon fill="#FFFFFF" points="611.728,950.57 611.174,949.818 611.523,950.867 			"/>
			<path fill="#FFFFFF" d="M610.302,945.894c-0.123,0.147-0.268,0.078-0.387,0.227l1.571,2.916
				C612.388,947.729,609.701,946.745,610.302,945.894z"/>
			<path fill="#FFFFFF" d="M610.45,945.035c0.37-1.129-0.369-1.6-0.614-1.859C610.407,943.566,609.658,945.285,610.45,945.035z"/>
			<path fill="#FFFFFF" d="M935.84,749.002c0-0.007,0-0.007,0-0.011c-0.023-0.057-0.06-0.111-0.072-0.154L935.84,749.002z"/>
			<path fill="#FFFFFF" d="M956.564,747.523c-19.213,19.703-9.118,58.731,28.751,95.668c37.865,37,123.115,50.553,123.115,50.553
				s-15.688-84.839-53.544-121.814C1017.021,734.991,975.796,727.852,956.564,747.523z"/>
			<path fill="#FFFFFF" d="M956.564,618.681c-19.213,19.733-9.118,58.758,28.751,95.715
				c37.865,36.939,123.115,50.535,123.115,50.535s-15.688-84.876-53.544-121.814C1017.021,606.159,975.796,598.999,956.564,618.681z
				"/>
			<path fill="#FFFFFF" d="M935.84,483.846c0-0.014,0-0.026,0-0.04c-0.011-0.059-0.047-0.115-0.06-0.146L935.84,483.846z"/>
			<path fill="#FFFFFF" d="M956.564,482.333c-19.213,19.644-9.118,58.725,28.751,95.731
				c37.865,36.881,123.115,50.532,123.115,50.532s-15.688-84.852-53.544-121.872C1017.021,469.802,975.796,462.656,956.564,482.333z
				"/>
			<path fill="#FFFFFF" d="M956.564,353.479c-19.213,19.71-9.118,58.765,28.751,95.704c37.865,37.007,123.115,50.516,123.115,50.516
				s-15.688-84.761-53.544-121.748C1017.021,340.98,975.796,333.805,956.564,353.479z"/>
			<polygon fill="#FFFFFF" points="-68.352,1217.78 -68.15,1217.491 -68.702,1216.736 			"/>
			<path fill="#FFFFFF" d="M-69.576,1212.849l-0.372,0.228l1.571,2.888C-67.483,1214.672-70.176,1213.708-69.576,1212.849z"/>
			<path fill="#FFFFFF" d="M-69.426,1212.01c0.371-1.12-0.365-1.585-0.618-1.843C-69.469,1210.561-70.219,1212.254-69.426,1212.01z"
				/>
			<path fill="#FFFFFF" d="M255.952,1019.094c0-0.002,0-0.01,0-0.017c-0.022-0.068-0.067-0.122-0.087-0.164L255.952,1019.094z"/>
			<path fill="#FFFFFF" d="M266.979,1147.184l0.343,0.046c-1.216-11.647,0.078-23.964-0.162-36.013
				c0.136-5.003-0.267-8.391-0.293-13.42l0.436-0.122c-1.639-8.483,1.479-17.796-0.323-26.623l0.581,0.605
				c-0.853-1.292,0.154-4.844-1.024-4.821v-0.704l0.257-0.854c-0.122-0.352-0.171-0.687-0.257-1.03v-9.448
				c0.208-2.067,0.317-4.282,0-6.752v-0.876l0.244,0.317c-0.109-0.735-0.179-1.517-0.244-2.282v-2.186
				c0.023-0.407-0.012-0.879,0.065-1.208c0.057,0.221,0.159,0.134,0.266,0.595c1.459-6.141-0.159-12.952-0.106-19.391l0.696,0.713
				c-0.812-3.124-0.069-8.84-0.433-12.957l0.327,0.25l-0.449-2.073l0.658-0.057c0.02-5.376-0.559-10.404-0.621-15.614l0.578,0.27
				c-1.044-4.845,0.013-10.324-0.424-15.451l0.209,0.345c0.154-9.478-0.323-18.412-0.756-27.56v-56.758l1.086,0.177l-0.004-1.259
				c-0.032-5.307,0.146-10.742-0.649-15.939l0.354,0.062c-0.502-4.831-0.532-9.783-0.466-14.771c0.329-0.398,0.448-0.814,0.013-1.3
				c0.135-6.628,0.423-13.332,0.307-19.955c0.129-5.003-0.271-8.391-0.307-13.418l0.436-0.134
				c-1.651-8.464,1.466-17.796-0.336-26.603l0.595,0.601c-0.866-1.287,0.141-4.843-1.027-4.816v-0.707l0.26-0.853
				c-0.136-0.362-0.162-0.689-0.26-1.032v-9.446c0.214-2.069,0.32-4.299,0-6.751v-0.879l0.246,0.319
				c-0.122-0.735-0.177-1.515-0.246-2.284v-2.188c0.026-0.401-0.011-0.885,0.069-1.206c0.065,0.222,0.157,0.135,0.264,0.579
				c1.459-6.12-0.149-12.936-0.106-19.392l0.684,0.729c-0.812-3.123-0.057-8.85-0.419-12.956l0.327,0.25l-0.437-2.073l0.646-0.073
				c0.017-5.365-0.55-10.385-0.608-15.599l0.578,0.271c-1.044-4.848,0.01-10.343-0.437-15.447l0.208,0.343
				c0.166-9.476-0.313-18.415-0.756-27.562v-51.883l1.086,0.165l-0.006-1.241c-0.037-5.334,0.148-10.746-0.638-15.957l0.343,0.047
				c-0.663-6.419-0.578-13.043-0.392-19.721c0.258-0.363,0.355-0.713,0.026-1.129c0.138-5.059,0.316-10.127,0.207-15.173
				c0.136-5.004-0.271-8.392-0.293-13.417l0.436-0.125c-1.642-8.483,1.479-17.792-0.327-26.618l0.585,0.607
				c-0.856-1.292,0.15-4.845-1.027-4.821v-0.704l0.258-0.854c-0.122-0.352-0.173-0.688-0.258-1.031v-9.447
				c0.214-2.067,0.32-4.283,0-6.75v-0.878l0.247,0.323c-0.111-0.735-0.175-1.516-0.247-2.282v-2.185
				c0.026-0.395-0.013-0.878,0.072-1.209c0.05,0.22,0.155,0.135,0.262,0.594c1.459-6.138-0.163-12.95-0.106-19.39l0.694,0.713
				c-0.811-3.107-0.063-8.833-0.431-12.95l0.324,0.244l-0.446-2.074l0.658-0.057c0.016-5.371-0.549-10.397-0.621-15.608l0.582,0.272
				c-1.038-4.846,0.019-10.328-0.431-15.452l0.212,0.364c0.152-9.491-0.327-18.434-0.756-27.58v-68.017l1.066,0.171l-0.007-1.264
				c-0.036-5.313,0.142-10.752-0.653-15.963l0.359,0.059c-0.128-1.251-0.128-2.538-0.215-3.804c0.136-0.254,0.136-0.515-0.051-0.798
				c-0.543-10.264,0.314-20.933,0.113-31.409c0.129-5.004-0.271-8.385-0.301-13.411l0.437-0.136
				c-1.658-8.462,1.459-17.769-0.343-26.595l0.601,0.607c-0.858-1.285,0.135-4.809-1.007-4.818v-0.769l0.237-0.792
				c-0.115-0.324-0.14-0.651-0.237-0.958v-9.672c0.2-1.958,0.28-4.065,0-6.403v-1.043l0.228,0.294
				c-0.105-0.681-0.156-1.403-0.228-2.11v-2.694c0.022-0.294-0.007-0.651,0.049-0.892c0.06,0.222,0.158,0.136,0.264,0.585
				c1.446-6.119-0.142-12.936-0.105-19.39l0.677,0.729c-0.799-3.124-0.049-8.851-0.419-12.95l0.333,0.25l-0.442-2.081l0.651-0.065
				c0.037-5.337-0.529-10.349-0.592-15.573l0.578,0.268c-1.042-4.841,0.014-10.316-0.437-15.44l0.209,0.344
				c0.165-9.471-0.314-18.416-0.753-27.56V82.366l1.08,0.154l-0.007-1.229c-0.03-5.322,0.151-10.721-0.645-15.915l0.351,0.049
				c-0.67-6.396-0.578-13.013-0.399-19.68c0.271-0.35,0.367-0.71,0.036-1.117c0.136-5.081,0.32-10.162,0.209-15.208
				c0.134-5.004-0.271-8.385-0.295-13.43l0.429-0.122c-1.645-8.467,1.473-17.795-0.33-26.622l0.588,0.621
				c-0.858-1.298,0.148-4.845-1.017-4.832v-0.726l0.251-0.829c-0.115-0.344-0.166-0.661-0.251-1.01v-9.509
				c0.207-2.032,0.308-4.205,0-6.617V-34.6l0.188,0.305c-0.103-0.705-0.172-1.466-0.237-2.221v-2.358
				c0.023-0.354-0.012-0.797,0.06-1.093c0.049,0.229,0.161,0.125,0.264,0.585c1.456-6.121-0.151-12.935-0.103-19.392l0.688,0.732
				c-0.835-3.137-0.079-8.864-0.442-12.971l0.327,0.253l-0.455-2.087l0.644-0.049c0.062-5.339-0.516-10.374-0.578-15.584
				l0.578,0.289c-1.044-4.849,0.013-10.344-0.424-15.45l0.209,0.345c0.154-9.479-0.323-18.421-0.756-27.566v-87.982
				c0.534-0.743,1.351-1.333-0.202-2.261l-0.509,0.627c-0.521-0.804-0.42-0.417-0.57-0.976c-2.487-0.528-2.646-1.596-4.353-2.321
				c0.013,0.019,0.023,0.032-0.014,0.068c-0.323,0.142-0.656,0.209-0.98,0.228l-3.302,0.129l0.495,2.227
				c0.241,1.075-0.079,2.266-0.165,3.008l-0.394,0.4c-0.822,0.601,1.601,2.891,0.199,2.117c0.35,5.167,0.329,11.085,0.35,16.862
				c0.531,0.809-0.043,4.413,0.974,3.16c-1.182,1.443-1.466,5.739-1.436,7.335c-0.123-0.06-0.231-0.128-0.183-0.381
				c-1.522,3.101,1.41,3.666-0.455,6.568c1.324,0.454-0.416,5.267,1.128,6.911c-0.286,0.375-0.551,0.474-0.784,0.364
				c-0.014,2.498-0.136,5.131-0.258,7.677c-1.399-2.584-3.081-4.996-5.182-7.144c-19.235-19.708-60.436-12.558-98.343,24.411
				C114.721-112.874,99.042-28.021,99.042-28.021s85.225-13.597,123.09-50.529c17.518-17.088,29.016-34.606,34.5-50.461
				c0.155,1.873,0.4,3.622,0.843,4.874c-1.522,1.253-1.229,3.082-1.708,4.917c0.714,2.83,0.506,8.538,1.144,12.854
				c-0.688,0.662,0.307,3.566-0.725,3.792c1.976,12.081,1.289,27.02-0.197,39.917c0.571,1.64,1.744,3.494,2.457,5.156
				c-0.1,0.147-0.258,0.136-0.258-0.214c0.188,2.356-0.818,4.566-0.642,6.918c-0.157-0.018-0.157-0.018-0.329-0.387
				c0.455,2.203-0.816,4.566-0.023,7.174l-0.291,0.13l0.388,1.663c-0.331-0.043-0.847-0.104-0.73-0.994
				c-0.057,1.877,0,3.817,0.007,5.739c-1.474-2.916-3.352-5.599-5.677-7.986c-19.245-19.673-60.431-12.558-98.34,24.442
				C114.703,15.92,99.01,100.768,99.01,100.768s85.237-13.588,123.086-50.502c18.402-17.944,30.188-36.383,35.3-52.857
				c0.222,7.083,0.386,14.199,0.307,21.289l-0.327-0.77l0.572,4.029c-0.153-0.021-0.251-0.216-0.324-0.39
				c-0.591,5.115,0.394,10.46,0.237,15.464c-0.164-0.027-0.491-0.78-0.68-0.1c0.501,2.021,0.122,3.592-0.051,4.91l-0.54,0.026
				l0.497,2.223c0.239,1.073-0.092,2.253-0.171,3.005l-0.387,0.399c-0.821,0.595,1.608,2.892,0.196,2.116
				c0.355,5.146,0.333,11.089,0.355,16.864c0.419,0.637,0.158,2.939,0.516,3.333c-0.007,0.269-0.007,0.54-0.007,0.809
				c-0.761,1.861-0.994,5.008-0.958,6.346c-0.115-0.059-0.231-0.128-0.188-0.38c-1.521,3.101,1.424,3.672-0.455,6.567
				c1.328,0.456-0.41,5.274,1.136,6.912c-0.287,0.376-0.551,0.479-0.785,0.37c-0.014,2.486-0.129,5.088-0.258,7.617
				c-1.407-2.585-3.08-5.002-5.182-7.166c-19.234-19.67-60.429-12.508-98.336,24.462c-37.85,36.938-53.527,121.76-53.527,121.76
				s85.225-13.532,123.082-50.474c17.518-17.088,29.017-34.605,34.505-50.473c0.164,1.893,0.398,3.652,0.838,4.924
				c-1.521,1.245-1.225,3.074-1.7,4.91c0.707,2.831,0.499,8.521,1.142,12.853c-0.68,0.65,0.314,3.543-0.717,3.779
				c1.968,12.087,1.289,27.017-0.197,39.93c0.564,1.646,1.744,3.501,2.457,5.146c-0.1,0.165-0.258,0.145-0.258-0.198
				c0.195,2.357-0.812,4.566-0.627,6.925c-0.172-0.021-0.172-0.021-0.331-0.393c0.442,2.216-0.829,4.573-0.036,7.188l-0.271,0.135
				l0.394,1.674c-0.333-0.043-0.836-0.121-0.737-0.993c-0.036,1.886,0.03,3.801,0.03,5.696c-1.466-2.916-3.345-5.611-5.677-7.991
				c-19.238-19.647-60.435-12.479-98.34,24.458c-37.839,36.971-53.526,121.816-53.526,121.816s85.229-13.626,123.088-50.532
				c18.402-17.947,30.188-36.383,35.3-52.864c0.222,7.108,0.393,14.235,0.313,21.352l-0.398-0.855l0.57,4.052
				c-0.172-0.024-0.25-0.215-0.322-0.406c-0.572,5.132,0.386,10.461,0.236,15.464c-0.164-0.026-0.488-0.787-0.681-0.087
				c0.915,3.706-1.194,5.954,0.714,7.807c-0.083,0.155-0.521,0.288-0.67-0.104c0.271,4.378,0.38,8.815,0.423,13.261l-1.044,0.047
				l0.499,2.215c0.237,1.077-0.073,2.255-0.172,3.008l-0.394,0.4c-0.812,0.601,1.622,2.894,0.196,2.116
				c0.369,5.164,0.35,11.085,0.369,16.863c0.534,0.81-0.062,4.419,0.971,3.161c-1.18,1.442-1.462,5.737-1.434,7.333
				c-0.103-0.059-0.231-0.128-0.201-0.38c-1.509,3.102,1.437,3.672-0.442,6.575c1.314,0.445-0.41,5.267,1.136,6.905
				c-0.287,0.379-0.551,0.478-0.785,0.365c-0.014,2.486-0.129,5.102-0.258,7.651c-1.407-2.593-3.088-5.009-5.188-7.176
				c-19.249-19.647-60.423-12.512-98.344,24.445c-37.839,36.941-53.526,121.829-53.526,121.829s85.224-13.588,123.085-50.565
				c17.521-17.075,29.019-34.593,34.508-50.453c0.145,1.909,0.394,3.658,0.838,4.927c-1.502,1.255-1.208,3.077-1.697,4.91
				c0.7,2.829,0.489,8.523,1.137,12.854c-0.698,0.651,0.31,3.548-0.721,3.788c1.972,12.099,1.281,27.045-0.194,39.939
				c0.581,1.644,1.74,3.501,2.453,5.132c-0.099,0.164-0.258,0.154-0.258-0.188c0.186,2.354-0.809,4.566-0.638,6.914
				c-0.161-0.017-0.161-0.017-0.333-0.386c0.456,2.212-0.814,4.567-0.022,7.175l-0.271,0.148l0.393,1.665
				c-0.33-0.043-0.846-0.118-0.736-0.995c-0.037,1.891,0.023,3.812,0.029,5.706c-1.466-2.922-3.354-5.61-5.689-8.003
				c-19.235-19.678-60.436-12.48-98.337,24.462c-37.849,37-53.527,121.777-53.527,121.777s85.225-13.552,123.09-50.515
				c18.413-17.954,30.198-36.387,35.307-52.86c0.221,7.118,0.392,14.258,0.32,21.378l-0.341-0.764l0.572,4.029
				c-0.16-0.021-0.245-0.208-0.324-0.387c-0.571,5.118,0.386,10.458,0.237,15.468c-0.158-0.03-0.489-0.787-0.674-0.105
				c0.479,1.964,0.13,3.512-0.043,4.808l-0.557,0.022l0.494,2.217c0.241,1.075-0.079,2.265-0.165,3.021l-0.393,0.386
				c-0.815,0.615,1.607,2.891,0.186,2.117c0.365,5.168,0.35,11.104,0.365,16.888c0.406,0.63,0.148,2.959,0.529,3.324
				c-0.007,0.271-0.007,0.535-0.014,0.812c-0.767,1.86-1.001,5.02-0.958,6.353c-0.108-0.062-0.231-0.135-0.194-0.393
				c-1.508,3.091,1.423,3.662-0.441,6.568c1.313,0.452-0.423,5.277,1.121,6.922c-0.287,0.363-0.551,0.485-0.786,0.35
				c-0.009,2.514-0.128,5.139-0.258,7.69c-1.403-2.575-3.087-5.002-5.184-7.161c-19.238-19.705-60.435-12.559-98.34,24.405
				c-37.839,36.986-53.534,121.799-53.534,121.799s85.231-13.543,123.086-50.481c17.527-17.121,29.02-34.638,34.508-50.492
				c0.158,1.889,0.406,3.653,0.848,4.923c-1.521,1.232-1.222,3.062-1.7,4.898c0.694,2.824,0.489,8.532,1.13,12.858
				c-0.693,0.649,0.31,3.557-0.72,3.795c1.97,12.085,1.29,27.029-0.195,39.938c0.581,1.647,1.753,3.501,2.453,5.138
				c-0.1,0.165-0.258,0.154-0.258-0.209c0.186,2.359-0.809,4.587-0.636,6.938c-0.16-0.014-0.16-0.014-0.321-0.399
				c0.443,2.223-0.822,4.577-0.036,7.186l-0.271,0.135l0.393,1.678c-0.329-0.049-0.845-0.118-0.729-0.991
				c-0.03,1.9,0.022,3.815,0.03,5.736c-1.474-2.942-3.353-5.636-5.684-8.024c-19.242-19.677-60.435-12.494-98.337,24.472
				c-37.842,36.941-53.534,121.792-53.534,121.792s85.231-13.558,123.084-50.528c18.408-17.939,30.194-36.359,35.306-52.841
				c0.222,7.107,0.393,14.226,0.307,21.343l-0.32-0.758l0.564,4.039c-0.152-0.022-0.244-0.207-0.323-0.402
				c-0.572,5.134,0.386,10.465,0.237,15.473c-0.158-0.032-0.488-0.778-0.674-0.085c0.922,3.705-1.198,5.941,0.708,7.806
				c-0.076,0.158-0.522,0.291-0.671-0.102c0.042,0.65,0.029,1.316,0.066,1.968l-0.694,0.032l0.455,2.167
				c0.239,1.072-0.071,2.252-0.171,3.008l-0.386,0.39c-0.812,0.608,1.606,2.894,0.188,2.12c0.363,5.154,0.347,11.092,0.363,16.875
				c0.386,0.594,0.179,2.717,0.463,3.274c-0.013,0.334-0.013,0.657-0.013,0.99c-0.721,1.896-0.935,4.914-0.902,6.212
				c-0.112-0.057-0.229-0.128-0.204-0.384c-1.509,3.085,1.43,3.666-0.437,6.575c1.313,0.436-0.423,5.268,1.123,6.904
				c-0.288,0.377-0.551,0.486-0.782,0.35c-0.014,2.507-0.136,5.13-0.262,7.681c-1.397-2.592-3.081-5.015-5.178-7.181
				c-19.244-19.668-60.435-12.509-98.34,24.458c-37.839,36.978-53.534,121.818-53.534,121.818s85.231-13.585,123.086-50.522
				c17.518-17.096,29.013-34.613,34.501-50.486c0.165,1.89,0.399,3.646,0.842,4.917c-1.509,1.252-1.209,3.081-1.7,4.917
				c0.693,2.804,0.491,8.513,1.129,12.853c-0.693,0.649,0.313,3.543-0.721,3.779c1.972,12.087,1.292,27.032-0.193,39.943
				c0.584,1.638,1.743,3.497,2.456,5.132c-0.099,0.165-0.261,0.151-0.261-0.198c0.191,2.357-0.809,4.573-0.637,6.925
				c-0.159-0.013-0.159-0.013-0.331-0.387c0.452,2.216-0.812,4.573-0.026,7.183l-0.271,0.131l0.394,1.678
				c-0.331-0.05-0.846-0.121-0.736-0.994c-0.03,1.896,0.026,3.824,0.033,5.733c-1.471-2.936-3.358-5.631-5.69-8.025
				c-19.238-19.676-60.435-12.481-98.34,24.486c-37.839,36.94-53.534,121.792-53.534,121.792s85.231-13.596,123.086-50.536
				c18.42-17.957,30.205-36.385,35.316-52.86c0.215,7.116,0.393,14.235,0.307,21.355l-0.329-0.76l0.578,4.031
				c-0.163-0.02-0.258-0.207-0.335-0.394c-0.57,5.127,0.384,10.46,0.242,15.468c-0.165-0.028-0.492-0.778-0.685-0.092
				c0.922,3.715-1.188,5.948,0.715,7.809c-0.073,0.166-0.522,0.288-0.675-0.099c0.658,10.312,0.611,20.883,0.295,31.274
				c0.279,1.36,0.465,2.754,0.605,4.18l0.13,1.263l1.007,0.081c2.358,0.183,4.726,0.54,7.12,0.944l1.251,0.203v-1.253
				C267.586,1157.81,267.773,1152.384,266.979,1147.184z M259.469,1016.322c-0.465-5.284-0.938-10.509-0.079-14.854
				c0.022-0.228,0.049-0.442,0.079-0.67V1016.322z M259.469,957.358c-0.228-2.747-0.465-5.475-0.707-8.242
				c0.086-1.505,0.126-3.021,0.156-4.543c0.19-0.858,0.398-1.71,0.551-2.572V957.358z M259.469,924.047
				c-0.271-1.312-0.551-2.619-0.952-3.867c-0.128-6.482-0.071-12.92,0.678-19.271c-0.394-2.501-0.356-5.103-0.136-7.761l0.189,0.021
				c0.079,0.002,0.142,0.022,0.221,0.028V924.047z M259.469,746.248c-0.465-5.286-0.938-10.511-0.079-14.856
				c0.022-0.228,0.049-0.453,0.079-0.681V746.248z M259.469,687.279c-0.228-2.744-0.465-5.468-0.707-8.239
				c0.086-1.515,0.126-3.018,0.156-4.547c0.19-0.864,0.398-1.724,0.551-2.564V687.279z M259.469,653.981
				c-0.271-1.308-0.551-2.616-0.952-3.851c-0.128-6.489-0.071-12.938,0.678-19.284c-0.147-0.951-0.239-1.915-0.284-2.886
				l0.345,0.025c0.072,0.004,0.135,0.023,0.214,0.03V653.981z M259.469,481.152c-0.465-5.316-0.952-10.563-0.093-14.912
				c0.036-0.262,0.057-0.522,0.093-0.783V481.152z M259.469,422.212c-0.231-2.751-0.472-5.531-0.71-8.299
				c0.089-1.516,0.115-3.032,0.151-4.566c0.186-0.858,0.406-1.717,0.559-2.585V422.212z M259.469,388.798
				c-0.271-1.321-0.559-2.629-0.964-3.88c-0.129-6.47-0.067-12.897,0.683-19.237c-0.62-3.838-0.208-7.877,0.281-12.018V388.798z
				 M259.469,199.842c-0.465-5.304-0.952-10.552-0.093-14.916c0.036-0.266,0.057-0.525,0.093-0.786V199.842z M259.469,140.918
				c-0.231-2.751-0.472-5.531-0.71-8.301c0.089-1.523,0.115-3.038,0.151-4.57c0.186-0.866,0.406-1.728,0.559-2.586V140.918z
				 M259.469,107.489c-0.271-1.317-0.559-2.625-0.964-3.877c-0.129-6.467-0.067-12.885,0.683-19.218
				c-0.155-0.971-0.24-1.966-0.283-2.966l0.351,0.023c0.072,0.006,0.135,0.026,0.214,0.026V107.489z M259.469-65.414
				c-0.465-5.292-0.938-10.514-0.079-14.848c0.022-0.228,0.049-0.454,0.079-0.687V-65.414z M259.469-124.377
				c-0.228-2.73-0.465-5.457-0.707-8.225c0.086-1.516,0.126-3.032,0.156-4.542c0.19-0.865,0.398-1.723,0.551-2.566V-124.377z
				 M259.469-157.675c-0.271-1.314-0.551-2.623-0.952-3.867c-0.128-6.476-0.071-12.921,0.678-19.268
				c-0.613-3.806-0.211-7.814,0.274-11.932V-157.675z M259.469-221.161v5.892c-0.528-0.822-1.018-1.572-0.459-2.032l-0.467-0.257
				c-0.132-1.927,0.526-0.227,0.712-1.706c-0.058-0.553-0.846-0.214-0.578-1.369c0.34-0.043,0.541-0.221,0.664-0.51l0.085-0.197
				l0.078,0.056c0.229,0.166,0.585,0.24,0.952,0.307L259.469-221.161z"/>
			<path fill="#FFFFFF" d="M276.649,1017.593c-19.211,19.702-9.106,58.764,28.787,95.704
				c37.844,36.938,123.071,50.516,123.071,50.516s-15.666-84.814-53.523-121.778C337.111,1005.058,295.854,997.889,276.649,1017.593
				z"/>
			<path fill="#FFFFFF" d="M276.649,888.781c-19.211,19.663-9.106,58.729,28.787,95.691C343.28,1021.409,428.508,1035,428.508,1035
				s-15.666-84.817-53.523-121.817C337.111,876.245,295.854,869.063,276.649,888.781z"/>
			<polygon fill="#FFFFFF" points="611.523,1217.78 611.728,1217.491 611.174,1216.736 			"/>
			<path fill="#FFFFFF" d="M610.302,1212.856l-0.387,0.221l1.571,2.888C612.388,1214.672,609.701,1213.708,610.302,1212.856z"/>
			<path fill="#FFFFFF" d="M610.45,1212.01c0.37-1.12-0.369-1.578-0.614-1.843C610.407,1210.561,609.658,1212.254,610.45,1212.01z"
				/>
			<path fill="#FFFFFF" d="M946.902,1147.203l0.343,0.049c-1.216-11.632,0.086-23.964-0.159-36.019
				c0.137-5.003-0.271-8.391-0.293-13.417l0.433-0.128c-1.638-8.484,1.479-17.797-0.323-26.622l0.583,0.607
				c-0.847-1.288,0.152-4.83-1.013-4.817v-0.737l0.243-0.821c-0.12-0.334-0.157-0.651-0.243-0.984v-9.572
				c0.208-2.015,0.307-4.175,0-6.569v-0.957l0.23,0.301c-0.107-0.7-0.158-1.436-0.23-2.173v-2.457c0.023-0.35-0.007-0.76,0.06-1.06
				c0.05,0.221,0.155,0.134,0.261,0.595c1.46-6.14-0.143-12.95-0.105-19.39l0.692,0.705c-0.809-3.12-0.049-8.832-0.429-12.95
				l0.331,0.245l-0.453-2.075l0.656-0.056c0.03-5.372-0.534-10.392-0.619-15.609l0.601,0.271
				c-1.051-4.845,0.013-10.325-0.442-15.451l0.207,0.344c0.162-9.427-0.307-18.326-0.745-27.417v-56.919l1.09,0.179l-0.01-1.258
				c-0.044-5.304,0.145-10.726-0.651-15.9l0.343,0.05c-0.505-4.838-0.534-9.791-0.455-14.78c0.319-0.406,0.449-0.828,0.013-1.313
				c0.123-6.622,0.416-13.318,0.294-19.936c0.13-5.002-0.27-8.391-0.294-13.421l0.424-0.135c-1.639-8.464,1.465-17.774-0.324-26.602
				l0.581,0.607c-0.846-1.288,0.155-4.83-1.01-4.817v-0.737l0.244-0.821c-0.122-0.33-0.148-0.657-0.244-0.98v-9.589
				c0.207-2.002,0.307-4.161,0-6.569v-0.944l0.229,0.301c-0.107-0.7-0.157-1.442-0.229-2.172v-2.46
				c0.036-0.348-0.008-0.77,0.072-1.058c0.05,0.223,0.142,0.136,0.257,0.578c1.45-6.122-0.152-12.934-0.115-19.394l0.68,0.727
				c-0.809-3.117-0.049-8.854-0.415-12.951l0.344,0.245l-0.457-2.073l0.645-0.077c0.033-5.355-0.531-10.371-0.607-15.589
				l0.591,0.271c-1.05-4.852,0.01-10.343-0.442-15.451l0.208,0.343c0.157-9.427-0.307-18.326-0.749-27.438v-52.011l1.08,0.175
				l-0.01-1.251c-0.034-5.326,0.157-10.729-0.642-15.927l0.347,0.044c-0.663-6.417-0.571-13.051-0.394-19.73
				c0.269-0.367,0.367-0.723,0.044-1.146c0.129-5.053,0.304-10.104,0.188-15.13c0.136-5.021-0.27-8.397-0.294-13.437l0.437-0.128
				c-1.638-8.484,1.479-17.789-0.327-26.623l0.585,0.622c-0.847-1.292,0.152-4.846-1.014-4.831v-0.737l0.246-0.821
				c-0.124-0.333-0.16-0.649-0.246-0.984v-9.585c0.207-2.015,0.307-4.175,0-6.569v-0.957l0.234,0.307
				c-0.112-0.687-0.159-1.436-0.234-2.173v-2.449c0.026-0.363-0.008-0.773,0.062-1.063c0.05,0.214,0.151,0.128,0.257,0.591
				c1.46-6.139-0.142-12.951-0.105-19.39l0.692,0.716c-0.807-3.11-0.045-8.836-0.429-12.957l0.335,0.254l-0.457-2.083l0.658-0.047
				c0.03-5.379-0.536-10.397-0.621-15.608l0.601,0.268c-1.047-4.842,0.014-10.323-0.438-15.447l0.207,0.359
				c0.165-9.435-0.307-18.34-0.749-27.444v-68.168l1.067,0.171v-1.264c-0.036-5.307,0.153-10.735-0.645-15.92l0.344,0.046
				c-0.129-1.261-0.129-2.564-0.216-3.846c0.13-0.245,0.13-0.503-0.049-0.78c-0.538-10.257,0.32-20.912,0.125-31.383
				c0.13-5.003-0.27-8.385-0.296-13.421l0.418-0.121c-1.637-8.483,1.46-17.788-0.326-26.623l0.584,0.609
				c-0.853-1.282,0.136-4.805-1.007-4.819v-0.766l0.24-0.792c-0.118-0.323-0.141-0.65-0.24-0.957v-9.672
				c0.201-1.958,0.284-4.065,0-6.404v-1.042l0.228,0.294c-0.105-0.681-0.154-1.4-0.228-2.11v-2.695
				c0.023-0.277-0.007-0.65,0.062-0.891c0.047,0.22,0.145,0.135,0.269,0.6c1.441-6.137-0.159-12.95-0.124-19.412l0.678,0.729
				c-0.798-3.117-0.049-8.846-0.412-12.95l0.327,0.25l-0.442-2.081l0.649-0.049c0.037-5.359-0.528-10.371-0.601-15.586l0.588,0.271
				c-1.051-4.841,0.013-10.315-0.443-15.444l0.212,0.34c0.159-9.424-0.307-18.329-0.749-27.414V82.396l1.08,0.175l-0.014-1.249
				c-0.03-5.29,0.154-10.704-0.638-15.883l0.344,0.043c-0.664-6.409-0.571-13.027-0.387-19.717c0.271-0.356,0.367-0.723,0.037-1.143
				c0.128-5.062,0.307-10.121,0.19-15.146c0.136-5.004-0.27-8.389-0.296-13.421l0.436-0.136c-1.638-8.463,1.479-17.792-0.324-26.618
				l0.581,0.618c-0.845-1.288,0.156-4.841-1.01-4.831v-0.73l0.244-0.829c-0.122-0.33-0.158-0.651-0.244-0.968v-9.582
				c0.208-2.02,0.307-4.174,0-6.562v-0.971l0.23,0.32c-0.108-0.707-0.157-1.45-0.23-2.192v-2.442c0.022-0.343,0-0.774,0.06-1.057
				c0.049,0.228,0.154,0.124,0.258,0.584c1.462-6.12-0.14-12.935-0.104-19.391l0.694,0.731c-0.812-3.119-0.051-8.852-0.431-12.964
				l0.331,0.252l-0.453-2.082l0.654-0.048c0.034-5.371-0.532-10.417-0.61-15.609l0.594,0.269c-1.05-4.85,0.014-10.343-0.442-15.449
				l0.209,0.343c0.164-9.434-0.309-18.335-0.75-27.437v-88.123c0.541-0.738,1.341-1.326-0.196-2.254l-0.501,0.625
				c-0.528-0.804-0.433-0.411-0.59-0.976c-2.487-0.522-2.64-1.589-4.359-2.313c0.013,0.019,0.026,0.03,0,0.068
				c-0.331,0.146-0.667,0.214-1.018,0.226l-3.278,0.117l0.472,2.234c0.228,1.068-0.092,2.234-0.165,2.99l-0.387,0.405
				c-0.821,0.593,1.602,2.89,0.194,2.111c0.352,5.168,0.335,11.085,0.352,16.867c0.534,0.811-0.043,4.413,0.977,3.156
				c-1.186,1.447-1.466,5.745-1.43,7.334c-0.113-0.055-0.233-0.129-0.198-0.374c-1.516,3.092,1.427,3.664-0.445,6.567
				c1.324,0.455-0.414,5.266,1.129,6.912c-0.29,0.374-0.556,0.472-0.786,0.361c-0.013,2.487-0.129,5.107-0.251,7.655
				c-1.406-2.566-3.057-4.966-5.145-7.102c-19.245-19.71-60.521-12.559-98.355,24.411C794.7-112.862,779.062-28.009,779.062-28.009
				s85.179-13.595,123.021-50.527c17.518-17.083,29.01-34.594,34.508-50.436c0.155,1.858,0.398,3.596,0.835,4.842
				c-1.522,1.251-1.229,3.081-1.707,4.917c0.7,2.829,0.497,8.538,1.129,12.852c-0.687,0.664,0.32,3.567-0.711,3.794
				c1.962,12.086,1.289,27.013-0.197,39.91c0.559,1.646,1.73,3.511,2.451,5.174c-0.105,0.147-0.259,0.135-0.259-0.214
				c0.189,2.357-0.812,4.566-0.634,6.917c-0.164-0.018-0.164-0.018-0.33-0.387c0.453,2.203-0.822,4.567-0.026,7.176l-0.268,0.147
				l0.38,1.663c-0.33-0.043-0.835-0.104-0.724-0.994c-0.032,1.908,0.037,3.824,0.037,5.727c-1.473-2.904-3.343-5.574-5.647-7.95
				c-19.245-19.672-60.521-12.558-98.356,24.442c-37.849,36.939-53.48,121.786-53.48,121.786s85.172-13.592,123.013-50.505
				c18.394-17.94,30.179-36.366,35.307-52.831c0.219,7.089,0.386,14.186,0.304,21.282l-0.33-0.77l0.578,4.035
				c-0.166-0.019-0.248-0.205-0.333-0.39c-0.568,5.121,0.392,10.462,0.24,15.472c-0.155-0.026-0.485-0.787-0.671-0.093
				c0.493,1.987,0.124,3.552-0.049,4.873l-0.524,0.017l0.479,2.229c0.225,1.068-0.082,2.229-0.172,2.994l-0.391,0.399
				c-0.814,0.602,1.605,2.894,0.187,2.118c0.363,5.156,0.343,11.084,0.363,16.863c0.408,0.644,0.164,2.918,0.514,3.332
				c-0.006,0.28-0.006,0.557-0.013,0.835c-0.746,1.859-0.98,4.995-0.932,6.326c-0.122-0.06-0.233-0.129-0.207-0.38
				c-1.513,3.088,1.422,3.669-0.442,6.568c1.317,0.449-0.42,5.274,1.129,6.905c-0.294,0.379-0.555,0.485-0.786,0.369
				c-0.013,2.481-0.136,5.075-0.258,7.599c-1.399-2.566-3.064-4.979-5.151-7.119c-19.241-19.682-60.527-12.518-98.356,24.452
				c-37.839,36.94-53.487,121.762-53.487,121.762s85.179-13.535,123.02-50.474c17.511-17.084,29.017-34.602,34.505-50.462
				c0.165,1.892,0.409,3.636,0.852,4.9c-1.521,1.251-1.223,3.081-1.708,4.913c0.694,2.82,0.5,8.521,1.137,12.855
				c-0.693,0.656,0.313,3.546-0.717,3.788c1.969,12.091,1.288,27.037-0.198,39.932c0.585,1.641,1.736,3.493,2.451,5.138
				c-0.094,0.159-0.258,0.143-0.258-0.201c0.194,2.358-0.812,4.567-0.634,6.917c-0.166-0.012-0.166-0.012-0.317-0.386
				c0.437,2.217-0.83,4.571-0.034,7.187l-0.28,0.135l0.394,1.671c-0.333-0.043-0.849-0.112-0.736-0.995
				c-0.034,1.884,0.023,3.793,0.036,5.664c-1.466-2.902-3.339-5.583-5.653-7.961c-19.245-19.647-60.521-12.481-98.35,24.454
				c-37.849,36.972-53.495,121.816-53.495,121.816s85.179-13.624,123.021-50.532c18.402-17.943,30.188-36.376,35.312-52.864
				c0.223,7.116,0.394,14.242,0.311,21.355l-0.337-0.761l0.585,4.032c-0.165-0.022-0.258-0.207-0.336-0.394
				c-0.565,5.119,0.385,10.46,0.242,15.462c-0.164-0.023-0.491-0.778-0.679-0.096c0.914,3.712-1.186,5.954,0.703,7.806
				c-0.073,0.173-0.516,0.293-0.668-0.085c0.271,4.352,0.374,8.771,0.424,13.197l-1.044,0.047l0.479,2.222
				c0.234,1.07-0.086,2.236-0.165,2.995l-0.386,0.4c-0.822,0.601,1.594,2.892,0.181,2.12c0.357,5.16,0.348,11.088,0.357,16.867
				c0.542,0.809-0.043,4.411,0.977,3.159c-1.185,1.444-1.465,5.739-1.43,7.334c-0.111-0.06-0.233-0.129-0.197-0.38
				c-1.517,3.095,1.426,3.672-0.442,6.568c1.328,0.452-0.416,5.272,1.129,6.918c-0.294,0.373-0.551,0.473-0.786,0.363
				c-0.01,2.477-0.132,5.082-0.257,7.607c-1.396-2.565-3.062-4.97-5.136-7.104c-19.244-19.648-60.521-12.523-98.362,24.435
				c-37.849,36.937-53.481,121.828-53.481,121.828s85.179-13.585,123.02-50.565c17.518-17.068,29-34.57,34.501-50.416
				c0.159,1.875,0.4,3.619,0.842,4.87c-1.521,1.248-1.228,3.078-1.7,4.914c0.692,2.826,0.489,8.529,1.129,12.851
				c-0.687,0.657,0.317,3.562-0.713,3.795c1.964,12.085,1.29,27.023-0.201,39.918c0.558,1.649,1.736,3.521,2.449,5.166
				c-0.098,0.15-0.261,0.141-0.261-0.209c0.198,2.361-0.809,4.577-0.624,6.928c-0.171-0.023-0.171-0.023-0.333-0.393
				c0.442,2.209-0.822,4.567-0.022,7.176l-0.271,0.142l0.38,1.671c-0.331-0.043-0.834-0.118-0.724-0.991
				c-0.037,1.887,0.026,3.789,0.026,5.66c-1.457-2.901-3.322-5.573-5.645-7.948c-19.241-19.683-60.52-12.491-98.35,24.449
				c-37.845,37-53.487,121.779-53.487,121.779s85.175-13.553,123.013-50.516c18.396-17.938,30.183-36.35,35.307-52.814
				c0.215,7.109,0.386,14.229,0.308,21.338l-0.324-0.77l0.572,4.039c-0.17-0.03-0.248-0.209-0.327-0.397
				c-0.578,5.126,0.386,10.458,0.234,15.475c-0.155-0.039-0.492-0.786-0.671-0.092c0.479,1.951,0.129,3.489-0.036,4.787
				l-0.541,0.016l0.472,2.229c0.222,1.066-0.085,2.24-0.175,3.002l-0.39,0.394c-0.822,0.607,1.599,2.89,0.185,2.116
				c0.356,5.162,0.344,11.105,0.356,16.881c0.416,0.644,0.159,2.965,0.529,3.339c0,0.264,0,0.534-0.014,0.798
				c-0.76,1.853-0.994,5.02-0.951,6.36c-0.115-0.069-0.235-0.13-0.209-0.39c-1.505,3.101,1.43,3.673-0.435,6.581
				c1.324,0.449-0.419,5.267,1.129,6.911c-0.294,0.369-0.551,0.473-0.786,0.357c-0.012,2.485-0.136,5.101-0.258,7.641
				c-1.399-2.559-3.057-4.954-5.131-7.097c-19.249-19.706-60.521-12.558-98.356,24.413
				c-37.853,36.978-53.488,121.791-53.488,121.791s85.172-13.545,123.021-50.486c17.505-17.095,29.009-34.592,34.494-50.442
				c0.162,1.866,0.406,3.596,0.849,4.851c-1.521,1.251-1.229,3.081-1.708,4.904c0.7,2.829,0.506,8.531,1.137,12.865
				c-0.7,0.649,0.307,3.553-0.725,3.787c1.969,12.093,1.289,27.045-0.189,39.939c0.577,1.641,1.749,3.493,2.456,5.138
				c-0.1,0.159-0.258,0.143-0.258-0.208c0.194,2.358-0.812,4.579-0.641,6.931c-0.158-0.026-0.158-0.026-0.324-0.393
				c0.453,2.216-0.821,4.569-0.026,7.179l-0.267,0.143l0.386,1.671c-0.339-0.051-0.854-0.113-0.735-0.987
				c-0.026,1.875,0.022,3.79,0.035,5.676c-1.462-2.909-3.328-5.587-5.636-7.962c-19.248-19.684-60.521-12.497-98.357,24.473
				c-37.851,36.94-53.484,121.792-53.484,121.792s85.172-13.565,123.018-50.536c18.389-17.928,30.175-36.323,35.306-52.787
				c0.221,7.089,0.394,14.185,0.308,21.282l-0.331-0.764l0.579,4.043c-0.173-0.026-0.262-0.206-0.335-0.4
				c-0.577,5.132,0.38,10.463,0.235,15.473c-0.162-0.026-0.493-0.784-0.677-0.085c0.921,3.708-1.189,5.939,0.713,7.8
				c-0.087,0.168-0.529,0.29-0.676-0.09c0.049,0.65,0.038,1.318,0.062,1.958l-0.656,0.03l0.478,2.229
				c0.215,1.067-0.092,2.239-0.184,3.001l-0.388,0.388c-0.822,0.607,1.603,2.89,0.186,2.116c0.356,5.162,0.343,11.1,0.356,16.881
				c0.393,0.595,0.185,2.703,0.466,3.27c-0.013,0.339-0.013,0.67-0.013,1.014c-0.724,1.878-0.925,4.903-0.908,6.205
				c-0.109-0.066-0.223-0.134-0.196-0.394c-1.508,3.101,1.425,3.672-0.441,6.58c1.327,0.45-0.412,5.268,1.136,6.912
				c-0.301,0.37-0.559,0.473-0.786,0.355c-0.013,2.487-0.128,5.091-0.258,7.619c-1.406-2.559-3.058-4.967-5.144-7.104
				c-19.235-19.67-60.521-12.521-98.351,24.45c-37.845,36.977-53.488,121.813-53.488,121.813s85.172-13.578,123.015-50.515
				c17.517-17.089,29.009-34.587,34.506-50.431c0.155,1.859,0.4,3.59,0.837,4.845c-1.516,1.251-1.223,3.081-1.701,4.904
				c0.7,2.829,0.492,8.531,1.137,12.864c-0.694,0.656,0.307,3.546-0.724,3.787c1.971,12.093,1.288,27.039-0.192,39.933
				c0.578,1.645,1.736,3.507,2.457,5.138c-0.1,0.166-0.258,0.149-0.258-0.201c0.185,2.357-0.822,4.58-0.64,6.929
				c-0.166-0.018-0.166-0.018-0.323-0.394c0.441,2.222-0.824,4.579-0.038,7.188l-0.271,0.136l0.387,1.671
				c-0.33-0.05-0.846-0.112-0.736-0.99c-0.022,1.878,0.03,3.793,0.043,5.666c-1.474-2.896-3.324-5.574-5.64-7.955
				c-19.245-19.677-60.527-12.492-98.357,24.479c-37.849,36.938-53.487,121.791-53.487,121.791s85.171-13.588,123.014-50.534
				c18.396-17.934,30.182-36.338,35.306-52.805c0.222,7.093,0.386,14.202,0.307,21.299l-0.333-0.763l0.578,4.039
				c-0.166-0.017-0.258-0.209-0.33-0.396c-0.571,5.13,0.386,10.463,0.238,15.473c-0.166-0.026-0.486-0.786-0.68-0.092
				c0.913,3.711-1.186,5.954,0.713,7.806c-0.083,0.161-0.52,0.291-0.67-0.095c0.649,10.315,0.601,20.886,0.293,31.277
				c0.27,1.356,0.463,2.75,0.601,4.181l0.122,1.265l1.021,0.078c2.357,0.185,4.737,0.542,7.146,0.939l1.264,0.204l-0.013-1.252
				C947.51,1157.81,947.701,1152.397,946.902,1147.203z M939.377,1016.377c-0.466-5.311-0.944-10.558-0.086-14.929
				c0.036-0.245,0.049-0.489,0.086-0.736V1016.377z M939.377,957.414c-0.235-2.751-0.466-5.523-0.713-8.305
				c0.085-1.479,0.128-2.979,0.147-4.468c0.198-0.859,0.406-1.714,0.565-2.559V957.414L939.377,957.414z M939.377,923.973
				c-0.272-1.306-0.559-2.614-0.959-3.842c-0.128-6.477-0.071-12.916,0.677-19.248c-0.393-2.487-0.355-5.097-0.135-7.734
				l0.182,0.021c0.087,0.002,0.155,0.022,0.235,0.028V923.973L939.377,923.973z M939.377,746.301
				c-0.466-5.311-0.944-10.558-0.086-14.926c0.036-0.248,0.049-0.493,0.086-0.735V746.301z M939.377,687.339
				c-0.235-2.762-0.466-5.521-0.713-8.306c0.085-1.489,0.128-2.981,0.147-4.474c0.198-0.859,0.406-1.725,0.565-2.566V687.339
				L939.377,687.339z M939.377,653.911c-0.272-1.308-0.559-2.615-0.959-3.854c-0.128-6.462-0.071-12.907,0.677-19.243
				c-0.147-0.938-0.241-1.896-0.283-2.861l0.336,0.026c0.081,0.007,0.156,0.023,0.229,0.03V653.911z M939.377,481.168
				c-0.466-5.327-0.944-10.587-0.1-14.965c0.043-0.266,0.062-0.529,0.1-0.79V481.168z M939.377,422.226
				c-0.235-2.771-0.466-5.556-0.713-8.335c0.085-1.499,0.128-3.01,0.147-4.488c0.198-0.878,0.406-1.729,0.565-2.579V422.226
				L939.377,422.226z M939.377,388.728c-0.278-1.317-0.565-2.625-0.971-3.873c-0.129-6.455-0.067-12.871,0.683-19.198
				c-0.621-3.85-0.212-7.912,0.288-12.072V388.728z M939.377,199.838c-0.466-5.311-0.944-10.56-0.086-14.929
				c0.036-0.249,0.049-0.492,0.086-0.727V199.838z M939.377,140.886c-0.235-2.749-0.466-5.518-0.713-8.285
				c0.085-1.507,0.128-3.016,0.154-4.518c0.191-0.859,0.399-1.713,0.559-2.556V140.886z M939.377,107.422
				c-0.272-1.314-0.559-2.602-0.959-3.851c-0.128-6.455-0.071-12.871,0.677-19.211c-0.147-0.938-0.241-1.923-0.283-2.897
				l0.356,0.024c0.072,0.006,0.144,0.032,0.209,0.039V107.422L939.377,107.422z M939.377-65.359
				c-0.466-5.322-0.944-10.568-0.086-14.928c0.036-0.246,0.049-0.49,0.086-0.736V-65.359z M939.377-124.32
				c-0.235-2.763-0.466-5.52-0.713-8.305c0.085-1.493,0.128-2.972,0.147-4.456c0.198-0.861,0.406-1.732,0.565-2.579V-124.32
				L939.377-124.32z M939.377-157.742c-0.272-1.308-0.559-2.615-0.959-3.855c-0.128-6.462-0.071-12.901,0.677-19.243
				c-0.613-3.824-0.211-7.851,0.282-11.981V-157.742z M939.377-221.161v5.868c-0.529-0.829-1.024-1.583-0.466-2.062l-0.467-0.258
				c-0.13-1.908,0.526-0.209,0.711-1.694c-0.057-0.553-0.845-0.214-0.578-1.369c0.334-0.043,0.527-0.209,0.651-0.479l0.111-0.214
				l0.099,0.061c0.223,0.178,0.588,0.257,0.968,0.337L939.377-221.161z"/>
			<path fill="#FFFFFF" d="M935.84,1019.084c0-0.007,0-0.013,0-0.033c-0.023-0.053-0.06-0.107-0.072-0.15L935.84,1019.084z"/>
			<path fill="#FFFFFF" d="M956.564,1017.593c-19.213,19.702-9.118,58.764,28.751,95.704
				c37.865,36.938,123.115,50.516,123.115,50.516s-15.688-84.814-53.544-121.778
				C1017.021,1005.058,975.796,997.889,956.564,1017.593z"/>
			<path fill="#FFFFFF" d="M956.564,888.781c-19.213,19.663-9.118,58.729,28.751,95.691
				c37.865,36.938,123.115,50.528,123.115,50.528s-15.688-84.817-53.544-121.817C1017.021,876.245,975.796,869.063,956.564,888.781z
				"/>
		</g>
	</g>
</g>
</svg>
